<svg viewBox="0 0 44 44" fill="none" xmlns="http://www.w3.org/2000/svg">
<path d="M34.7314 0.927734C38.1391 -0.145091 41.4043 2.20799 41.8037 5.51855L41.834 5.8418L41.8828 6.80859C41.9213 7.82745 41.9223 8.98664 41.833 10.1387C41.7593 11.0894 41.6108 12.2062 41.2891 13.2959C42.204 15.497 42.7109 17.8937 42.7109 20.4004L42.7031 20.9199C42.4058 31.7981 32.7986 40.0712 21.5977 40.0713C20.0591 40.0713 18.5563 39.915 17.1064 39.6221L14.2139 41.665L14.2129 41.666C11.1393 43.8333 6.8995 41.6352 6.89844 37.875V34.5215C3.12239 31.108 0.659869 26.3393 0.494141 20.9785L0.484375 20.4004C0.484397 17.8954 0.990203 15.4996 1.9043 13.2988C1.5821 12.2083 1.43399 11.0907 1.36035 10.1396C1.24142 8.60322 1.28327 7.05406 1.35938 5.8418L1.38965 5.51855C1.7891 2.20799 5.05422 -0.145091 8.46191 0.927734H8.46289C9.50696 1.25672 11.0275 1.80638 12.4443 2.6709C15.2236 1.42458 18.3312 0.730469 21.5977 0.730469C24.8634 0.730489 27.9703 1.42413 30.749 2.66992C32.1661 1.80557 33.687 1.25653 34.7305 0.927734H34.7314ZM38.4004 6.05762C38.3156 4.70715 37.0552 3.80268 35.7646 4.20898C34.2181 4.69628 32.2991 5.49009 31.2109 6.64453L31.1709 6.6748C31.1415 6.69007 31.1076 6.69547 31.0752 6.68945L31.0283 6.67188C28.2993 5.08746 25.065 4.17092 21.5977 4.1709C18.1295 4.1709 14.8945 5.08782 12.165 6.67285L12.1182 6.69043C12.0857 6.69645 12.0518 6.69105 12.0225 6.67578L11.9824 6.64551C10.8944 5.49078 8.97544 4.69635 7.42871 4.20898C6.13815 3.80268 4.87776 4.70715 4.79297 6.05762C4.65161 8.30912 4.65449 11.5531 5.60449 13.3467C5.62714 13.3894 5.62856 13.4404 5.60645 13.4834L5.40918 13.8789C4.45449 15.8747 3.92483 18.0808 3.9248 20.4004C3.92481 25.4106 6.39726 29.89 10.2822 32.8672C10.3179 32.8946 10.3388 32.9374 10.3389 32.9824V37.874C10.3391 38.8465 11.4357 39.4149 12.2305 38.8545L16.3379 35.9551C16.3734 35.93 16.419 35.9219 16.4609 35.9336C18.0865 36.3864 19.8111 36.6309 21.5977 36.6309C31.358 36.6308 39.2705 29.364 39.2705 20.4004C39.2705 17.9253 38.6658 15.5795 37.5869 13.4805C37.5651 13.4377 37.5656 13.3872 37.5879 13.3447C38.5371 11.5509 38.5417 8.30851 38.4004 6.05762Z" fill="#3F8DFF"/>
<path fill-rule="evenodd" clip-rule="evenodd" d="M24.6872 22.6567C25.2489 22.6567 25.7043 23.1121 25.7043 23.6739C25.7043 25.0663 24.699 25.8774 23.8792 26.2694C23.0408 26.6703 22.0531 26.8281 21.2526 26.8281C20.4521 26.8281 19.4643 26.6703 18.6259 26.2694C17.8061 25.8774 16.8008 25.0663 16.8008 23.6739C16.8008 23.1121 17.2562 22.6567 17.8179 22.6567L18.4488 22.6567C18.9983 22.6567 19.4428 23.1041 19.4392 23.6536C19.5329 23.7703 19.573 23.7905 19.7669 23.8833C20.1655 24.0739 20.7425 24.1832 21.2526 24.1832C21.7626 24.1832 22.3396 24.0739 22.7382 23.8833C22.9322 23.7905 23.0335 23.693 23.0659 23.6536C23.0623 23.1041 23.5068 22.6567 24.0563 22.6567L24.6872 22.6567Z" fill="#3F8DFF"/>
<circle cx="13.5942" cy="18.8373" r="2.34026" fill="#3F8DFF"/>
<circle cx="28.9106" cy="18.8373" r="2.34026" fill="#3F8DFF"/>
</svg>
