<svg width="28" height="21" viewBox="0 0 28 21" fill="none" xmlns="http://www.w3.org/2000/svg">
<path d="M26.162 2.19608C25.9014 2.06575 25.7889 2.31417 25.6366 2.44042C25.5847 2.48115 25.5404 2.5341 25.4961 2.58297C25.1153 2.99834 24.6704 3.27123 24.0885 3.23864C23.2384 3.18978 22.5125 3.46264 21.871 4.12647C21.7346 3.30787 21.2815 2.81918 20.5917 2.50558C20.2303 2.34269 19.8658 2.17977 19.6128 1.82545C19.4367 1.57296 19.3888 1.29195 19.3002 1.01503C19.2442 0.848051 19.1882 0.677009 18.9999 0.648487C18.7947 0.615903 18.7148 0.791037 18.6343 0.937649C18.3136 1.53631 18.1889 2.19608 18.2016 2.86397C18.2291 4.36677 18.8512 5.5641 20.0862 6.41528C20.2267 6.513 20.2629 6.61075 20.2186 6.75327C20.1346 7.04649 20.0338 7.33159 19.9457 7.62482C19.8897 7.81217 19.8057 7.85287 19.6087 7.77143C18.9311 7.48227 18.3457 7.05465 17.828 6.53746C16.9498 5.66997 16.1557 4.71292 15.1655 3.96358C14.9363 3.79071 14.7008 3.62634 14.4594 3.47079C13.4489 2.46894 14.5918 1.64628 14.8565 1.54853C15.1329 1.44671 14.9527 1.09648 14.0583 1.10054C13.1639 1.1046 12.3458 1.41007 11.3032 1.81732C11.1505 1.8784 10.9901 1.9232 10.8262 1.95987C9.8793 1.77658 8.89681 1.73588 7.86999 1.85397C5.93705 2.0739 4.39302 3.00652 3.25781 4.59889C1.89451 6.513 1.57326 8.68778 1.96679 10.9562C2.37914 13.3468 3.57493 15.3261 5.41168 16.8736C7.31663 18.4782 9.51024 19.2643 12.0128 19.1136C13.5329 19.024 15.2251 18.8163 17.1341 17.1669C17.6157 17.4112 18.1212 17.509 18.9591 17.5823C19.6051 17.6434 20.2267 17.5497 20.7078 17.4479C21.4617 17.285 21.4093 16.5723 21.1369 16.442C18.9271 15.3912 19.4122 15.8188 18.9714 15.4727C20.0943 14.1165 21.7865 12.7074 22.4483 8.14204C22.5007 7.77958 22.4564 7.55153 22.4483 7.2583C22.4442 7.07911 22.4839 7.00985 22.685 6.98951C23.2384 6.92434 23.776 6.76958 24.2693 6.49266C25.7008 5.69443 26.2786 4.38305 26.415 2.81102C26.4354 2.57075 26.4109 2.32232 26.162 2.19608ZM13.6851 16.3442C11.544 14.6256 10.5049 14.0595 10.0758 14.0839C9.67467 14.1084 9.74695 14.5767 9.83501 14.8822C9.92715 15.1835 10.0478 15.3912 10.2163 15.656C10.3324 15.8311 10.4128 16.0917 10.0997 16.2872C9.40994 16.723 8.21107 16.1406 8.15509 16.1121C6.75921 15.2731 5.59189 14.1654 4.76973 12.6504C3.9756 11.1924 3.51489 9.62852 3.43851 7.95878C3.41814 7.55559 3.53472 7.41304 3.92724 7.33972C4.44415 7.23901 4.97424 7.22525 5.49568 7.29901C7.68166 7.62485 9.54282 8.62261 11.1026 10.2028C11.993 11.1028 12.6665 12.178 13.3608 13.2287C14.0985 14.3446 14.8927 15.4075 15.9032 16.279C16.26 16.5845 16.5446 16.8166 16.8174 16.9877C15.9953 17.0814 14.6234 17.1017 13.6851 16.3442ZM14.7119 9.60409C14.7119 9.4249 14.8525 9.28235 15.0291 9.28235C15.0691 9.28304 15.1051 9.28983 15.137 9.30272C15.1978 9.32608 15.25 9.36747 15.2865 9.42134C15.3231 9.47521 15.3424 9.53898 15.3417 9.60409C15.3422 9.64607 15.3344 9.68773 15.3188 9.72668C15.3031 9.76563 15.2799 9.80108 15.2504 9.831C15.221 9.86092 15.1859 9.88471 15.1472 9.90098C15.1085 9.91726 15.067 9.92571 15.025 9.92584C14.9832 9.92572 14.9418 9.91725 14.9033 9.90093C14.8648 9.88461 14.83 9.86076 14.8008 9.8308C14.7717 9.80083 14.7488 9.76534 14.7335 9.72641C14.7182 9.68748 14.7109 9.6459 14.7119 9.60409ZM17.9003 11.2738C17.6961 11.3594 17.4915 11.4327 17.2945 11.4408C16.99 11.4571 16.6571 11.3309 16.4769 11.1761C16.1959 10.9358 15.9953 10.8014 15.9113 10.382C15.8752 10.2028 15.895 9.92584 15.9271 9.76701C15.9994 9.4249 15.9189 9.205 15.6827 9.00543C15.4903 8.84251 15.2454 8.79771 14.9767 8.79771C14.8764 8.79771 14.7842 8.75294 14.716 8.71627C14.6828 8.70037 14.6532 8.67777 14.6291 8.6499C14.6051 8.62203 14.587 8.58948 14.5761 8.5543C14.5652 8.51911 14.5617 8.48206 14.5658 8.44546C14.5699 8.40886 14.5815 8.3735 14.5999 8.3416C14.6279 8.28459 14.7644 8.1461 14.7965 8.12167C15.1614 7.90989 15.5824 7.97915 15.9714 8.13797C16.3323 8.28865 16.6047 8.5656 16.9982 8.95657C17.3993 9.42899 17.4716 9.55933 17.6997 9.91363C17.8804 10.1905 18.0448 10.4756 18.1568 10.8014C18.2255 11.0051 18.137 11.172 17.9003 11.2738Z" fill="#4D6BFE"/>
</svg>
