<?xml version="1.0" standalone="no"?><!DOCTYPE svg PUBLIC "-//W3C//DTD SVG 1.1//EN" "http://www.w3.org/Graphics/SVG/1.1/DTD/svg11.dtd"><svg t="1770179344232" class="icon" viewBox="0 0 1024 1024" version="1.1" xmlns="http://www.w3.org/2000/svg" p-id="6013" width="32" height="32" xmlns:xlink="http://www.w3.org/1999/xlink"><path d="M0 0m102.383455 0l819.067639 0q102.383455 0 102.383454 102.383455l0 819.067639q0 102.383455-102.383454 102.383454l-819.067639 0q-102.383455 0-102.383455-102.383454l0-819.067639q0-102.383455 102.383455-102.383455Z" fill="#CAE4FF" p-id="6014"></path><path d="M481.898445 1023.568351l-17.20042-1.638135c-44.065839-4.095338-93.598954-16.688503-135.903798-34.585131-36.468987-15.439425-78.630493-39.827164-94.315639-54.570381-3.358177-3.15341-12.081248-10.525019-19.411903-16.381353-96.834272-77.401892-160.230107-198.460089-170.386545-325.31319l-1.330985-16.545166 0.614301-31.165524 0.6143-31.145046 1.740519-13.514617c19.73953-151.036073 105.045425-279.547785 233.639044-352.076224l12.756978-7.207795 12.777456-12.777455c42.919144-43.001051 93.455618-72.118906 144.770205-83.381086l6.654924-1.474322h83.217272l12.449828 3.603898 12.470305 3.583421 10.95503 5.651566c11.917434 6.143007 24.080589 14.784171 33.110809 23.527718l5.733474 5.528707 2.580063-0.573347c1.433368-0.327627 6.552541-1.638135 11.364563-2.928167l8.784501-2.334343h17.44614l6.573018 2.682447 6.613971 2.682446 10.852647 9.255464c13.842243 11.733144 14.784171 12.388398 32.005068 22.012443 20.374308 11.364563 30.059782 18.654265 44.762046 33.643203 7.064458 7.228272 16.115156 15.439425 20.067157 18.244732 101.687247 71.934615 168.44126 170.734649 193.607113 286.489383 36.919474 169.854152-20.763365 342.431703-152.735638 456.916883-6.491111 5.651567-12.081248 10.934553-12.388398 11.733144-0.30715 0.819068-5.221556 4.975836-10.914076 9.255464-67.75737 50.823147-147.145501 81.906764-232.246629 90.855078l-17.753291 1.863379-28.851658 0.24572c-15.869435 0.143337-30.592176 0.06143-32.721752-0.163814z m81.087696-482.778943c1.515275-12.245061-0.941928-22.933894-4.095338-17.814721-1.146695 1.801949-1.310508 13.105082-0.24572 16.135633 0.778114 2.313866 4.095338 3.583421 4.341058 1.679088z m101.05247-35.404198c3.624374-3.276271 1.842902-8.149723-2.96912-8.149723-4.668686 0-6.593494 4.893929-3.235317 8.252106 2.211483 2.211483 3.685804 2.191006 6.204437-0.102383zM403.452242 484.683275a3.747234 3.747234 0 0 0-0.30715-2.928167l-0.880498-1.433368-1.228601 0.778114c-0.696207 0.409534-1.228601 1.720042-1.228602 2.90769v2.150053h1.535752a2.457203 2.457203 0 0 0 2.109099-1.474322z m138.320048-170.407022a11.26218 11.26218 0 0 0 1.146694-4.443442v-2.293389h-4.443442v8.866407h1.064788c0.614301 0 1.597182-0.962404 2.23196-2.129576z m32.209834-4.504872v-2.252436h-17.753291v4.463919h17.753291v-2.23196z m-12.408874-12.142678l1.597182-0.880498-1.208125-0.73716c-1.474322-0.921451-0.430011-4.013431 1.330985-4.013432 0.696207 0 1.924809-1.023835 2.702923-2.272913l1.433368-2.293389 3.010074 0.348104 2.989597 0.348104 0.348104 3.051027 0.348103 3.051027h4.300105v-2.1091c0-1.146695 0.737161-3.521991 1.638136-5.262509 2.129576-4.033908 2.129576-5.93824 0.020476-5.938241h-1.658612v-2.661969c0-1.433368 0.757638-3.255794 1.658612-4.013432 2.948643-2.457203-1.146695-6.654925-4.443442-4.566302a13.494139 13.494139 0 0 1-4.422965 0.962405c-1.842902 0.143337-5.93824 0.573347-9.153081 0.941927l-5.835857 0.655254v4.238675h4.812023c5.528707 0 6.245391 0.430011 5.487753 3.378654-0.675731 2.559586-3.132934 2.866737-4.033908 0.491441-0.348104-0.900974-1.146695-1.658612-1.760996-1.658612h-1.105741l0.614301 3.235317 0.655254 3.214841-2.252436 1.228601a14.988938 14.988938 0 0 1-5.897287 1.208125h-3.624374l1.351461 1.330985c1.740519 1.760995 1.679089 5.242033-0.102383 5.93824-0.798591 0.286674-1.515275 1.597182-1.617659 2.866737l-0.163813 2.334343 5.69252-0.757638c3.15341-0.409534 6.429681-1.167171 7.310178-1.638135z m-18.654266-3.39913v-4.443442h-8.886884v8.866407h8.886884v-4.422965z m8.866407-11.098367v-2.231959h-4.422965v4.443442h4.422965v-2.211483z m37.738542-17.753291v-2.211483h-6.654925v4.422966h6.654925v-2.211483z" fill="#CAE3FD" p-id="6015"></path><path d="M475.796391 40.953382l-14.968461 1.924809-14.988938 1.924809-14.067486 4.300105c-18.347115 5.63109-36.243743 13.289372-53.853698 23.015801-30.612653 16.934223-67.654987 47.5264-85.510661 70.644583-2.825783 3.644851-8.252106 10.299776-12.040294 14.763695-16.872793 19.86239-45.11015 67.921184-54.263231 92.288446-0.819068 2.150053-3.03055 7.637806-4.95536 12.204108-17.241374 40.871475-35.936593 107.850731-39.9705 143.132069-5.63109 49.451209-7.392085 114.874236-3.849618 143.13207 0.266197 2.129576 0.778114 9.112127 1.146694 15.521332 0.348104 6.409204 1.351462 21.131945 2.211483 32.742229 0.839544 11.589807 2.068146 34.052737 2.7234 49.922173 1.842902 44.516326 3.337701 66.958779 4.689162 69.886946l1.228602 2.702923 7.883526 3.235317c4.320582 1.781472 14.128917 4.586779 21.746246 6.224914 7.617329 1.658612 15.234658 3.358177 22.83151 5.07822 4.914406 1.126218 16.401829 3.337701 25.513957 4.934882 9.112127 1.597182 24.039635 4.341058 33.192716 6.122531 9.153081 1.760995 19.903344 3.358177 23.855345 3.542467l7.207795 0.327627 0.573347-7.760666 0.552871-7.781142 18.838556 0.348104c10.381682 0.18429 23.138661 0.798591 28.298787 1.371938 5.20108 0.593824 16.934223 1.351462 26.087304 1.658612 9.153081 0.348104 19.760007 0.880498 23.568671 1.208125l6.941599 0.6143-0.020477 7.944956c-0.102383 36.284696-12.204108 71.606988-30.94028 90.322684l-6.962075 6.962075-2.948644 0.593824c-8.10877 1.638135-11.589807 3.112457-16.483736 6.921122-10.975506 8.559257-21.029562 14.087963-71.074594 39.11048-49.594546 24.776796-70.11219 36.366603-71.709372 40.502894l-0.757638 1.945286 2.53911 2.7234c1.392415 1.474322 7.269225 5.835857 13.064129 9.685475 71.176978 47.157819 149.541274 73.20417 235.215749 78.220959 18.592835 1.085265 50.8641 0.450487 60.242425-1.187648 3.542468-0.614301 11.036936-1.290032 16.64755-1.474322 18.961416-0.634777 64.399193-9.808335 89.278372-17.999011 55.983273-18.429022 110.287458-46.789239 145.875947-76.152814l5.262509-4.341058v-2.047669c0-1.146695-4.033908-8.088293-8.96879-15.439425l-8.989268-13.37128-7.924479-7.310178c-13.309849-12.204108-22.114826-15.418948-53.300827-19.329996-28.319264-3.562944-41.506253-5.487753-52.829862-7.74019a1883.568895 1883.568895 0 0 0-21.090992-4.013431l-10.545496-1.924809-8.866407-4.156768a113.236101 113.236101 0 0 0-15.439425-5.835857l-6.552541-1.720042-4.812022-4.709639-4.812023-4.730116-4.504872-8.702593-4.545825-8.682117-2.682447-10.77074c-4.033908-16.176586-6.409204-47.137343-3.788188-49.758359l1.126218-1.105741 6.921122 0.860021c3.808665 0.470964 20.149064 1.863379 36.305173 3.112457l44.475373 3.481037 15.050368 1.187648 29.895968-1.228601c39.54049-1.638135 36.57137-0.450487 34.851328-13.657953-0.573347-4.422965-1.064788-19.86239-1.085264-34.339411l-0.020477-26.312548 2.825784-18.080918a383.323655 383.323655 0 0 1 5.856333-29.711678l3.010074-11.671714 15.500855-1.924809 15.521332-1.945286 11.098366-3.419607c12.429351-3.849618 17.712338-6.552541 28.544507-14.681788l7.473992-5.590136 4.402489-6.286344c8.129246-11.589807 12.224585-24.961086 12.245061-39.950024l0.020477-9.480708-1.699565-6.532065a74.678492 74.678492 0 0 0-5.26251-13.248419l-3.562944-6.757308-7.678759-8.088293-7.658283-8.088293-8.436396-5.487753c-12.797932-8.35449-13.412233-8.825454-13.412233-10.627402 0-0.921451 2.006716-4.975836 4.443442-9.009745 6.143007-10.197392 11.098367-23.548195 12.900315-34.707991l1.515275-9.419278 0.716685-25.534433 0.696207-25.513957-1.310508-12.183631a446.187096 446.187096 0 0 0-3.583421-24.981563c-2.027192-11.32361-3.726758-18.429022-11.999341-49.533116a217.155308 217.155308 0 0 1-3.890571-23.855345l-1.801949-15.910389-4.300105-16.094679c-5.75395-21.582432-9.664998-31.329337-19.18666-48.07927l-8.026863-14.087963-7.207795-8.579734C748.218288 139.651032 728.437804 124.027317 698.255162 108.731229l-9.419278-4.791546-10.279299-9.767381-10.279299-9.767382-6.12253-2.7234-6.143007-2.702923H633.753585l-8.252106 2.78483c-10.033579 3.358177-10.647879 3.378654-13.309849 0.409534a196.924337 196.924337 0 0 0-13.227943-11.221227l-11.077889-8.866407-12.756979-6.409204-12.756978-6.388728-13.309849-3.562944-13.30985-3.583421-29.977875-0.573347L475.796391 40.953382z m-5.078219 431.853412h1.105741c1.720042 0 4.504872 10.791216 4.607256 17.691861 0.040953 3.399131 0.450487 7.105412 0.900974 8.252107l0.819068 2.068146-2.41625 4.975836c-1.310508 2.743877-3.09198 5.426323-3.931524 5.958717-4.586779 2.90769-4.934883 1.658612-2.04767-6.962075l2.313867-6.839215 0.18429-8.395443a75.354223 75.354223 0 0 0-0.696208-12.572689l-0.839544-4.156768z m-69.845993 5.876811c1.740519-0.450487 3.685804 0.30715 4.545825 2.621016l0.880498 2.35482-1.638135 2.354819c-2.743877 3.890571-7.084935 2.211483-7.084935-2.743876 0-2.498156 1.535752-4.156768 3.27627-4.586779z m321.238328 14.866077l1.433368 1.720042c3.03055 3.685804 4.156768 12.941269 2.313866 19.18666-0.819068 2.743877-2.66197 6.347774-4.095338 8.026863l-2.580063 3.051027 0.798591-3.890572c0.450487-2.129576 1.105741-9.337371 1.474322-15.971819l0.655254-12.122201z m-63.743939 2.580063h2.66197c5.057743 0 7.822096 5.26251 4.771069 9.050698-2.989597 3.726758-8.907361 2.989597-10.258822-1.269555l-0.737161-2.354819 1.781472-2.702924 1.781472-2.7234zM560.037498 521.746086c2.559586-1.208125 4.300105 8.334013 2.96912 19.043322-0.24572 1.904332-3.562944 0.634777-4.361535-1.679088-1.044311-3.03055-0.880498-14.333684 0.24572-16.156109a3.03055 3.03055 0 0 1 1.146695-1.208125z m-10.525019 471.434856c0.491441 0-1.351462 2.252436-4.095338 4.975836-6.470634 6.491111-7.248749 6.552541-4.095339 0.470964 1.474322-2.887213 5.32394-5.4468 8.190677-5.4468z" fill="#EEC5B9" p-id="6016"></path><path d="M480.178403 1022.40118c-86.206869-6.859691-162.99446-33.274623-231.079457-79.449561-11.405517-7.740189-13.719383-10.054055-12.736502-12.838885 1.290032-3.603898 23.773438-16.176586 72.077952-40.380035 49.860743-24.961086 60.201471-30.63313 70.009806-38.393795 5.610613-4.443442 11.26218-6.839215 16.15611-6.839215h3.788187l5.610614-5.016789c19.002369-17.098037 30.428363-47.567353 32.987949-87.967865l0.778114-12.081248-1.392415-0.880497c-0.778114-0.470964-11.221227-1.249078-23.241044-1.740519a713.448867 713.448867 0 0 1-33.41796-2.088622 423.150819 423.150819 0 0 0-29.343098-1.453845l-17.753291-0.266197-0.552871 7.781142-0.55287 7.760666-7.228272-0.327627c-3.952001-0.18429-14.681787-1.842902-23.834868-3.685804a1312.514938 1312.514938 0 0 0-28.872135-5.426324 1272.83111 1272.83111 0 0 1-40.072884-8.231629l-27.889253-6.122531-6.040624-2.66197-6.040624-2.66197-1.842902-6.552541c-2.53911-9.071174-2.84626-12.429351-4.136291-46.441135a2533.78574 2533.78574 0 0 0-5.487754-100.950086l-2.313866-32.189358-0.020476-25.513957c-0.040953-36.305173 3.767711-84.015863 7.904002-99.414335 0.593824-2.211483 1.597182-10.443112 2.252436-18.285685 0.614301-7.863049 1.842902-17.282327 2.702924-20.968132 0.860021-3.685804 3.112457-13.67843 5.037265-22.217209 8.72307-38.864759 20.312877-73.08131 37.779495-111.495583 44.065839-97.018562 126.975961-170.427499 214.595722-190.023692l9.992625-2.231959 36.714707-0.491441 36.714707-0.511917 14.620357 3.542468 14.620357 3.52199 11.896958 5.876811c12.818409 6.327298 20.988608 11.917434 34.237027 23.486764l8.436397 7.371609 9.583091-3.21484 9.583092-3.214841 11.098366 0.102383 11.07789 0.081907 6.654924 3.419608 6.654925 3.419607 7.801619 8.129246 7.822096 8.149723 14.947985 7.86305c65.832561 34.605608 102.465362 87.31261 107.543581 154.680923l1.023834 13.86272 4.443442 13.86272c5.794904 18.162825 10.340729 36.69423 13.576046 55.491832l2.559587 14.947985v61.041016l-1.474322 10.443112c-1.842902 13.105082-8.60021 31.329337-15.152752 40.953382-1.494798 2.231959-2.7234 5.119173-2.723399 6.450157v2.41625l9.419277 6.347774c8.66164 5.81538 22.729127 19.186659 22.729127 21.582432 0 0.552871-3.235317-0.511917-7.207795-2.375296l-7.248748-3.39913-2.580064 0.655254-2.600539 0.655254-1.904333 5.282986a179.498673 179.498673 0 0 1-2.866736 7.514946c-0.532394 1.228601-1.269555 3.767711-1.638136 5.69252a13.207466 13.207466 0 0 1-3.39913 6.020147c-1.494798 1.392415-2.702923 3.542468-2.702923 4.750592 0 1.228601-0.655254 3.010074-1.453846 3.972478-2.231959 2.682447-9.153081 19.657623-11.835527 28.933565a79.920525 79.920525 0 0 1-4.054385 11.364563c-0.900974 1.679089-1.371938 3.521991-1.023834 4.095338 0.348104 0.573347-0.18429 3.09198-1.187648 5.63109l-1.842903 4.566302 1.167172 2.436727c0.634777 1.330985 1.474322 3.358177 1.842902 4.504872l0.675731 2.109099 6.900645-0.675731c19.391426-1.883856 36.366603-10.033579 45.17158-21.705292l3.767711-4.996313 0.409534 1.290032c0.266197 0.716684-0.941928 3.890571-2.66197 7.023505l-3.09198 5.69252-6.306821 5.69252c-15.337042 13.842243-32.824136 20.804318-60.611005 24.101065-6.265867 0.757638-11.815051 1.904332-12.347445 2.580063-1.720042 2.170529-7.740189 28.605937-10.054055 44.168222l-2.272913 15.214182 0.040953 26.394455c0 14.497497 0.491441 29.998352 1.064788 34.421317 1.720042 13.207466 4.709639 12.040294-34.871804 13.657953l-29.875492 1.228601-15.050368-1.187648c-14.825124-1.187648-29.650249-2.334343-44.454896-3.481037-16.176586-1.228601-32.537462-2.66197-36.32565-3.112457-3.808665-0.470964-7.514946-0.511917-8.211153-0.081907l-1.290032 0.819068 0.614301 16.995653 0.614301 17.057084 2.416249 11.651237 2.436726 11.651237 4.136292 8.886884 4.136292 8.886884 6.12253 6.552541 6.102054 6.573018 3.583421 0.24572c5.56966 0.409534 8.825454 1.433368 18.388069 5.897287l8.90736 4.177245 10.545496 1.924809c5.794904 1.064788 15.296088 2.866737 21.090992 4.033908 11.32361 2.231959 24.531076 4.156768 52.829862 7.719713 31.186 3.911048 39.990977 7.125888 53.300827 19.329996l7.944956 7.310178 8.968791 13.37128c4.934883 7.351132 8.968791 14.04701 8.96879 14.866077 0 5.160126-41.854356 33.684157-75.477083 51.416971-49.021198 25.882537-126.853101 48.980245-165.267372 49.041675-4.586779 0-12.245061 0.757638-17.016131 1.658612l-8.702593 1.679089-26.251118-0.204767a951.633736 951.633736 0 0 1-30.715037-0.532394h0.020477z m81.026266-9.275941l2.027193-2.252436-1.310508-1.310508-1.310509-1.290032-0.982881 1.044311a11.118843 11.118843 0 0 0-1.740519 3.542468l-0.757637 2.518633h1.023834c0.552871 0 1.924809-1.023835 3.051027-2.252436z m-10.893599-17.179944c5.56966-2.641493 5.99967-3.890571 1.371938-3.890571-7.043982 0-13.248419 5.87681-13.248419 12.531735 0 4.668686 1.433368 4.300105 4.361535-1.126218l2.84626-5.282986 4.668686-2.23196z m10.606926-30.510269c22.196733-2.150053 38.741899-7.924479 52.399852-18.265209l6.634448-5.037266 4.709639-6.941598 4.730115-6.921121 2.78483-8.907361c2.928167-9.480708 4.668686-23.855345 3.481038-28.708321l-0.757638-2.90769-11.344087-5.590136a1281.226554 1281.226554 0 0 1-19.104752-9.603569 317.20442 317.20442 0 0 0-11.671714-5.774426 39.827164 39.827164 0 0 1-7.003029-4.238675c-1.720042-1.371938-4.054385-2.498156-5.180602-2.498157a14.968461 14.968461 0 0 1-5.180603-1.556228 97.612386 97.612386 0 0 0-5.917764-2.682447l-4.443442-1.781472a68.924542 68.924542 0 0 1-6.102054-3.358177 124.088747 124.088747 0 0 0-7.760666-4.300105 53.40321 53.40321 0 0 1-7.166841-4.504872c-2.088622-1.597182-4.422965-2.90769-5.20108-2.90769-0.757638 0-2.743877-1.228601-4.382012-2.764354-1.638135-1.535752-4.013431-2.78483-5.262509-2.78483a8.272583 8.272583 0 0 1-4.607256-2.211482l-2.354819-2.211483-3.276271-0.143337a33.377006 33.377006 0 0 1-5.323939-0.675731l-2.1091-0.532394 1.535752-1.064787 1.535752-1.064788-4.443442 0.532394-16.360876 1.965762-11.917434 1.433368-0.614301 1.904333-0.614301 1.924809-3.27627 0.716684c-1.801949 0.409534-3.276271 1.187648-3.276271 1.740518 0 0.552871-0.36858 0.941928-0.819067 0.819068-1.535752-0.348104-7.453516 2.866737-12.060771 6.552541a31.554581 31.554581 0 0 1-5.119173 3.644851 28.4626 28.4626 0 0 0-4.852976 3.890571c-2.354819 2.170529-6.143007 4.504872-8.41592 5.180603a17.609954 17.609954 0 0 0-6.613971 3.849618c-1.330985 1.433368-2.989597 2.60054-3.665328 2.60054-0.655254 0-3.870095 1.740519-7.105411 3.890571-3.255794 2.129576-6.491111 3.890571-7.187319 3.890571-1.474322 0-10.647879 8.559257-15.992296 14.907032l-3.603897 4.300105v2.661969c0 10.709309 29.404528 43.512968 48.816431 54.427045 3.378654 1.883856 12.326968 5.75395 19.944297 8.60021l13.80129 5.160126 12.797932 2.580063c7.043982 1.433368 14.04701 2.805307 15.582761 3.071504 5.32394 0.962404 40.584801 0.737161 51.335065-0.30715z m1.351461-231.939479l7.760666-1.105741 17.07756-8.35449c9.419278-4.586779 19.002369-9.951672 21.336712-11.937911 2.313866-2.006716 5.56966-4.341058 7.228272-5.221556 1.638135-0.880498 5.897287-4.361535 9.460232-7.719713 8.395443-7.883526 11.712667-10.340729 16.483736-12.142677 2.129576-0.819068 5.733473-2.90769 7.985909-4.648209 2.252436-1.740519 4.648209-3.173887 5.32394-3.173887s3.337701-2.354819 5.897287-5.221557c2.559586-2.866737 5.794904-6.306821 7.166842-7.637805a11.180273 11.180273 0 0 0 2.96912-4.648209c0.614301-3.235317 3.15341-6.900645 4.750592-6.900645 0.778114 0 1.412892-0.757638 1.412892-1.679089 0-1.965762 5.037266-7.412562 8.60021-9.275941a7.371609 7.371609 0 0 0 3.194364-4.197721c0.389057-1.576705 2.006716-5.098696 3.603897-7.80162 1.597182-2.7234 3.501514-6.020147 4.238676-7.351132a13.248419 13.248419 0 0 1 2.866736-3.52199c1.842902-1.351462 3.112457-7.023505 1.740519-7.86305-0.511917-0.327627-0.962404-1.556229-0.962404-2.7234v-2.109099l-3.337701-2.498156-3.378654-2.47768 0.552871-1.433368 0.55287-1.433368h-2.211482c-1.228601 0-2.498156-0.737161-2.866737-1.638136-0.327627-0.880498-2.252436-2.211483-4.300105-2.948643l-3.685805-1.351462-1.167171-2.580063c-0.655254-1.412892-1.965762-2.580063-2.928167-2.580063h-1.740519l-1.597181-3.603898c-2.088622-4.771069-3.788188-6.695878-7.269226-8.231629-1.556229-0.696207-2.90769-1.924809-2.989597-2.743877a91.285088 91.285088 0 0 0-1.740518-7.822096l-1.597182-6.327297 1.515275-2.006716c2.457203-3.21484 1.863379-4.586779-2.96912-7.043982-6.859691-3.501514-13.965103-10.627403-18.265209-18.326638l-3.890571-6.921122-1.597182-7.576375a90.322684 90.322684 0 0 1-1.638135-15.152752v-7.576375l-1.023835 0.634777c-1.515275 0.941928-4.709639 11.159797-5.50823 17.609954l-0.696207 5.590137-3.276271 0.880498-3.317224 0.880497-1.085264-1.085264c-0.614301-0.593824-1.290032-4.443442-1.535752-8.559257-0.24572-4.115815-0.880498-7.965433-1.433368-8.53878a4.996313 4.996313 0 0 1-0.982882-2.96912 14.272254 14.272254 0 0 0-1.924808-5.242033l-1.924809-3.337701 1.371938-3.767711c0.737161-2.068146 1.351462-4.627732 1.351461-5.712997 0-1.064788 0.757638-2.682447 1.679089-3.603898l1.638135-1.658611v-7.535423l2.334343-1.228601c1.249078-0.675731 3.010074-0.962404 3.890571-0.614301l1.556229 0.593824v-4.341058l4.156768-3.829142 4.156769-3.829141 3.58342-0.655254 3.542468-0.675731 2.272913-3.194364 2.293389-3.21484 8.026863-2.313866c4.422965-1.290032 9.419278-2.805307 11.159797-3.358177a9.091651 9.091651 0 0 1 4.709638-0.409534c0.900974 0.327627 2.7234-0.102383 4.095339-0.982881l2.477679-1.597182 6.962075 0.204767c3.829141 0.12286 7.207795-0.163814 7.494469-0.614301 0.286674-0.491441 1.535752-0.614301 2.743877-0.286674l2.231959 0.573348v-3.583421h2.068146a5.119173 5.119173 0 0 0 3.481037-1.679089l1.371939-1.638135h8.518303l3.890571-3.440084c3.849618-3.358177 6.675401-3.583421 5.467277-0.409534l-0.634778 1.617658h1.167172c0.634777 0 1.474322-0.511917 1.863379-1.146694 0.389057-0.614301 2.047669-1.003358 3.685804-0.819068l2.948643 0.30715 0.368581-2.498156 0.348104-2.498156h2.129575c2.825783 0 2.764353-1.883856-0.06143-2.78483-1.228601-0.389057-2.231959-1.146695-2.231959-1.699565 0-1.638135-8.026863-3.276271-17.589477-3.562945-4.955359-0.163814-9.009744-0.696207-9.009744-1.228601l-0.020477-0.941928-6.941598 0.900974a90.179347 90.179347 0 0 1-12.204108 0.675731 34.216551 34.216551 0 0 0-10.279299 1.494799l-4.975836 1.679088-9.337371 0.245721-9.337371 0.204767-3.153411-2.29339a29.773109 29.773109 0 0 1-5.63109-5.99967l-2.498156-3.665328v-8.641164l2.150053-4.218198c4.422965-8.641164 12.552212-13.719383 26.148734-16.381353l7.781143-1.494798h28.196403l15.848959 3.399131c8.72307 1.842902 19.289043 3.808665 23.486764 4.300105l7.658283 0.941927 3.173887-1.105741 3.173887-1.105741v-12.593165l-2.231959-1.904332-2.211483-1.904333v-7.535422l-3.481037-7.617329a54.386091 54.386091 0 0 0-6.532065-10.934553c-1.658612-1.842902-5.733473-6.921122-9.071174-11.303133-9.664998-12.777455-30.346456-34.196074-44.168222-45.765405-17.343757-14.538451-18.674742-15.500855-42.693901-31.636487-11.610284-7.781143-22.933894-15.930866-25.206807-18.101395l-4.115814-3.952001-5.876811-0.470964-5.856333-0.470964-14.436067 2.96912c-31.12457 6.429681-60.815772 19.698577-82.951076 37.124241-3.521991 2.764353-8.559257 6.552541-11.159796 8.374966-9.009744 6.306821-24.223925 22.544837-28.360217 30.26455a59.587171 59.587171 0 0 1-5.528707 7.310178c-2.375296 2.7234-5.93824 8.313537-7.944956 12.429352l-3.644851 7.473992-1.105741 9.664998c-1.576705 13.616999-1.023835 14.333684 12.552211 16.749933 25.862061 4.586779 43.287725 16.688503 43.267248 30.039306v4.771069l-2.293389 3.767711-2.293389 3.747235-7.433039-0.614301c-4.095338-0.348104-10.647879-1.740519-14.538451-3.071504-3.931525-1.371938-12.081248-3.583421-18.121871-4.955359l-11.01646-2.47768-4.054385 0.470964c-5.487753 0.634777-8.559257 2.313866-9.992625 5.487753l-1.228601 2.66197 0.696207 4.955359c0.36858 2.743877 1.371938 5.549183 2.211483 6.245391 0.819068 0.696207 1.494798 2.047669 1.494798 2.989597 0 1.986239 5.364893 7.985909 7.166842 7.98591 2.41625 0.06143 14.272254 8.743547 21.746246 15.951342 6.409204 6.143007 12.716025 10.647879 15.029891 10.647879h2.334343l2.047669 4.586779c1.126218 2.498156 3.399131 5.99967 5.037266 7.740189 4.914406 5.242033 7.596852 17.323281 7.637806 34.093691l0.040953 9.21451-1.228602 2.252436-1.208124 2.272913-4.545826-4.709639-4.545825-4.730115-1.371938-5.32394c-1.801949-6.962075-9.132604-19.391426-14.333684-24.305832l-4.115815-3.890571 0.675731 3.3377 1.924809 9.439755 1.228601 6.102054-0.716684 6.654924-0.696207 6.654925-3.358178 8.456873-3.358177 8.436397-5.405846 6.0611a96.690935 96.690935 0 0 1-15.009415 12.531735l-9.624045 6.470635 0.491441 3.992954a19.002369 19.002369 0 0 1-0.552871 7.023505l-1.044311 3.071504h-2.252436c-1.269555 0-5.590137 2.068146-9.624045 4.627732l-7.330655 4.648209-3.051027-0.225244-3.051027-0.204767v1.699566c0 0.941928-0.880498 2.068146-1.965762 2.518633-2.354819 0.962404-12.449828 11.671714-12.449829 13.207465 0 1.781472-3.235317 7.760666-4.975835 9.214511l-1.576706 1.310509 1.310509 2.109099 1.330985 2.129576-1.371939 2.211482c-2.068146 3.317224-1.699565 5.119173 1.945286 9.275941 1.842902 2.068146 3.337701 4.259152 3.3377 4.832499 0 0.614301 1.699565 3.276271 3.767712 5.958717 2.068146 2.702923 6.573018 10.484066 10.013102 17.323281l6.224914 12.408875 2.211482 0.696207 2.191006 0.696208v5.979193l7.781143 8.29306c4.259152 4.566302 7.760666 8.764024 7.760666 9.337371 0 0.552871 0.286674 0.737161 0.634777 0.368581 0.819068-0.819068 4.914406 2.621016 4.914406 4.156768 0 2.088622 9.992625 12.654595 16.995653 17.978535 3.767711 2.84626 8.29306 6.900645 10.074532 9.009744l3.255794 3.788188 6.880168 3.09198c3.808665 1.720042 7.207795 3.603898 7.617329 4.238675 1.679089 2.743877 14.2313 8.641164 24.469646 11.528377l16.688503 4.668685c10.156439 2.866737 25.042993 3.501514 37.697588 1.679089z m-24.264879-51.539831l-8.743547-1.535752-6.0611-3.071504a48.324991 48.324991 0 0 1-10.299776-7.310178l-4.238675-4.238675-1.638135-4.832499-1.658612-4.852976 1.228602-1.228602c0.655254-0.655254 3.603898-1.228601 6.552541-1.228601h5.323939v-1.044311c0-0.593824-3.624374-2.150053-8.047339-3.460561-14.436067-4.279628-25.24776-10.033579-25.24776-13.432709v-1.146695l4.709639 0.716684c2.60054 0.389057 10.443112 0.982881 17.487094 1.330985l12.756978 0.614301 12.695549-2.313866a145.179739 145.179739 0 0 1 20.2924-2.334343h7.576376l3.972478-1.638135A26.824465 26.824465 0 0 1 573.347347 629.248713h4.709639l3.767711 2.764354c2.047669 1.535752 7.494469 4.648209 12.081248 6.921121l8.313536 4.136292 9.890242 0.020477 9.890242 0.020476 0.450487 1.330985 0.450487 1.330985-4.689162 3.378654c-2.559586 1.863379-5.221556 3.399131-5.87681 3.419607-0.675731 0.020477-2.66197 1.290032-4.382012 2.805307l-3.153411 2.78483-0.49144 3.562944-0.491441 3.583421-5.426323 5.119173a76.029954 76.029954 0 0 1-11.876481 8.804977l-6.470634 3.726758-16.64755 0.24572-16.647549 0.24572-8.743548-1.535751z m18.715696-81.538183l-8.886884-0.778115-4.975836-2.191006c-2.743877-1.228601-5.651567-3.051027-6.491111-4.054384l-1.515275-1.822426 0.675731-1.720042c1.412892-3.726758 19.73953-8.29306 33.213193-8.29306h6.470634l1.597182-1.638135c2.66197-2.641493 10.606926 4.668686 12.265538 11.303133l0.696207 2.743877-2.764353 2.743876c-4.586779 4.607255-11.07789 5.405846-30.285026 3.726758z m-105.454958 117.822879c-8.497827-7.166842-28.769751-21.521002-45.294441-32.086974a176.017636 176.017636 0 0 1-11.098366-7.760666c-9.378324-7.330655-25.391097-18.060441-26.926849-18.060442h-1.617659l2.006716 3.440084c3.112457 5.32394 22.237686 23.159137 31.431721 29.302145 9.624045 6.429681 47.219249 25.780154 50.413613 25.943968l2.150052 0.12286-1.064787-0.900975z m307.150364-162.584926l4.300105-7.596852 0.06143-3.501514a17.978535 17.978535 0 0 1 1.576705-6.491111 15.091321 15.091321 0 0 0 1.535752-5.549184c0-1.412892 0.757638-4.033908 1.699566-5.835857a11.835527 11.835527 0 0 0 1.433368-5.528706 6.593494 6.593494 0 0 1 0.552871-3.665328c0.470964-0.757638 1.003358-7.924479 1.167171-15.910389l0.30715-14.53845-4.279628 0.67573a80.125292 80.125292 0 0 0-10.074532 2.60054l-5.794904 1.924809-2.518633 8.886884c-3.276271 11.589807-11.241703 27.684486-16.872793 34.073214-4.996313 5.69252-5.364893 6.962075-2.457203 8.518303 1.085265 0.593824 4.709639 3.931525 8.026863 7.453516l9.091651 9.583091 3.051027 3.214841 2.457203-0.368581 2.457203-0.348104 4.279628-7.596852z m-36.980904-23.589148a36.243743 36.243743 0 0 0 6.347774-7.883526l2.928167-4.996313 0.511917-7.985909 0.511918-7.985909-3.010074-6.040624c-2.60054-5.20108-6.491111-9.828812-8.334013-9.890242-0.30715-0.020477-0.389057 6.204437-0.163814 13.842243l0.389058 13.883197-2.887214 8.702593c-4.136292 12.449828-3.337701 14.272254 3.685804 8.35449z m-56.454237-24.879179l2.150053-1.146695v-6.962075l-1.842902-2.047669c-2.272913-2.518633-5.672043-2.580063-8.334014-0.18429l-2.047669 1.842902v7.310178l1.965763 1.146695a8.088293 8.088293 0 0 0 8.108769 0.040954zM405.643248 486.034737l1.105741-1.781472-0.716684-2.805307c-1.330985-5.32394-7.760666-4.709639-9.153081 0.860021l-0.696207 2.743877 1.433368 1.720042 1.392415 1.699565 2.764353-0.348104c1.515275-0.163814 3.255794-1.126218 3.870095-2.088622z m335.305815-58.010466a16.381353 16.381353 0 0 1 4.422965-2.088622l2.211483-0.552871-4.033909-0.12286-4.054384-0.143337-0.614301-1.658612a2.7234 2.7234 0 0 0-2.35482-1.658612 1.699565 1.699565 0 0 0-1.699565 1.638136c0 0.941928 0.491441 1.679089 1.105741 1.679088s1.105741 1.003358 1.105742 2.231959c0 2.60054 0.941928 2.764353 3.911048 0.675731z m112.478463 127.467402a977.761994 977.761994 0 0 0-0.470964-15.500856l-0.327627-7.719712 1.208125 2.150053c0.655254 1.167171 1.433368 7.207795 1.699565 13.391755l0.511918 11.26218-1.228602 2.088623-1.228601 2.088622-0.163814-7.781142z" fill="#DDAFA2" p-id="6017"></path><path d="M494.12303 1022.46261c-92.022249-4.934883-172.577551-31.186-243.693099-79.408608-12.470305-8.456873-14.026533-9.890242-13.146036-12.183631 1.433368-3.706281 21.131945-14.702264 71.566035-39.929547 29.588818-14.804648 56.044703-28.544507 58.78858-30.530746 2.743877-1.986239 7.412562-5.426323 10.381682-7.637806a55.491833 55.491833 0 0 1 9.296418-5.672043l3.911048-1.638136 3.194363 1.310509 3.173888 1.330984 7.985909-7.535422c21.009085-19.80096 30.018829-42.960098 33.131286-85.060174l1.228601-16.668027-1.044311-1.023834-1.023834-1.064788-24.305833-0.982881a834.425157 834.425157 0 0 1-35.383722-2.088623c-6.102054-0.614301-19.084276-1.249078-28.851657-1.433368l-17.753291-0.348104-0.12286 6.654925c-0.06143 3.665328-0.204767 7.330655-0.266197 8.190676l-0.163814 1.494799-7.473992-0.757638c-4.115815-0.430011-13.494139-2.027192-20.804318-3.542467a1481.283825 1481.283825 0 0 0-31.06314-5.999671 1338.868439 1338.868439 0 0 1-40.339081-8.190676l-22.585791-5.01679-5.794903-2.661969-5.794904-2.641494-2.96912-10.443112-2.96912-10.463589v-20.005727c0-11.01646-0.716684-31.206477-1.638135-44.905383-0.962404-15.132275-1.904332-30.264549-2.78483-45.396824a2128.552026 2128.552026 0 0 0-2.35482-35.383722c-2.334343-29.650249-1.126218-86.084009 2.313866-108.301219 5.016789-32.353172 13.576046-67.32736 25.677771-104.840658 10.647879-32.987949 34.421318-88.705025 55.696599-130.354614 4.136292-8.129246 16.934223-29.138331 19.596193-32.189358 8.641164-9.869765 6.081577-10.361206-4.955359-0.941928l-8.66164 7.371609-1.781472-1.146695-1.781472-1.146695 0.18429-2.66197c0.348104-5.38537 16.58612-27.356859 35.281338-47.792596 14.087963-15.418948 28.319264-27.8483 47.444493-41.485776l13.617-9.685475 20.190017-10.381682 20.169541-10.381683 18.101395-5.93824 18.101394-5.979194 12.204108-2.047669 12.204108-2.027192 32.168882 0.102383 32.189358 0.102383 13.86272 3.562945 13.862719 3.562944 13.30985 6.716355c14.702264 7.433039 15.685145 8.10877 31.226953 21.090991l10.83217 9.050698 8.927837-3.235317 8.927837-3.214841h23.302475l6.654924 4.074862c6.798261 4.156768 11.999341 9.071174 15.357518 14.456543l1.842903 3.010074 15.808005 7.719712c8.702594 4.259152 21.295759 11.38504 27.97116 15.848959l12.183631 8.129247 11.118843 10.484065c25.104423 23.609625 41.321962 49.062152 50.106463 78.630494l2.866737 9.624044 0.860021 16.64755 0.860021 16.64755 2.805306 8.313536c2.559586 7.596852 5.160126 15.173228 7.781143 22.749604 5.119173 14.784171 11.651237 42.120553 14.272254 59.914798l1.474321 9.972148-0.040953 29.404529-0.020477 29.404528-1.412891 8.886884a99.311951 99.311951 0 0 1-2.395773 11.651237c-3.808665 10.750263-9.808335 24.633459-12.429352 28.769751-1.720042 2.7234-3.112457 6.245391-3.112457 7.863049v2.90769l2.805307 2.66197 2.805307 2.621016-3.214841 2.518633-3.21484 2.518633-0.716685 3.624375c-0.409534 2.006716-2.047669 7.003028-3.624374 11.098366l-2.928167 7.433039-3.583421 3.931525c-1.986239 2.150053-4.402489 3.931525-5.385369 3.931524h-1.801949v-3.972478c0-2.191006 1.105741-10.791216 2.457203-19.145706l2.477679-15.152751V467.278088l-0.040953-20.517644-3.521991-14.04701c-16.58612-66.078282-67.921184-130.784625-143.152546-180.399648-10.565973-6.962075-22.196733-15.152751-25.862061-18.224255l-6.654925-5.528706-5.794903-0.593824-5.774427-0.593825-14.149393 1.842903c-44.700616 5.733473-98.595267 33.315576-123.802074 63.313928-2.047669 2.457203-6.552541 7.514946-9.972149 11.26218-8.702594 9.480708-10.033579 11.425994-19.596193 28.21688l-8.41592 14.845601-0.204767 5.50823-0.24572 5.528707 4.443442 0.778114c2.457203 0.409534 10.934553 1.638135 18.859032 2.702923l14.436067 1.904332 10.381683 3.276271 10.381682 3.276271 5.938241 3.808664 5.93824 3.788188 2.805307 4.812022 2.825783 4.791546v7.842573l-2.293389 2.90769-2.313867 2.928167h-2.457202c-1.330985 0-7.576376-1.740519-13.883197-3.890572-15.767052-5.364893-32.353172-9.439755-42.530087-10.484066l-8.559257-0.860021-8.60021 0.819068-8.579734 0.860021-2.641493 3.173887a43.062481 43.062481 0 0 0-4.730115 7.617329l-2.1091 4.422965-0.020476 6.757309-0.020477 6.777784 3.337701 4.607256c1.842902 2.53911 3.542468 4.607255 3.788188 4.607255 12.183631 0 38.680469 8.948314 51.335064 17.343757l9.091651 6.020148 7.207795 7.904002 7.248748 7.92448 4.525349 8.96879 4.545825 8.989268 1.187649 7.985909 1.187648 8.026863-0.757638 3.992955-0.757637 3.992954-1.638136-1.371938c-2.41625-1.986239-3.726758-4.791546-5.56966-11.896957-2.7234-10.443112-18.429022-30.162166-24.039635-30.162166h-1.638135l2.805306 7.494469 2.805307 7.494469 0.12286 9.419278 0.102384 9.419277-3.071504 8.395444-3.071504 8.35449-4.812022 5.835857c-5.221556 6.347774-12.941269 12.019818-20.435738 14.968461l-4.791545 1.883855-12.142678-0.737161-12.142678-0.737161-4.525348 2.04767-4.525349 2.047669-1.842902-1.167172-1.842902-1.167171-0.348104-4.013432-0.348104-4.033908-2.375296-1.658612-2.375296-1.679088-2.641493 2.457203c-1.433368 1.371938-4.013431 5.487753-5.733474 9.15308-1.699565 3.685804-4.218198 7.658282-5.56966 8.866408-7.883526 7.064458-15.500855 41.240056-11.036936 49.594545 0.675731 1.228601 2.129576 5.32394 3.235317 9.071174 3.03055 10.238345 7.863049 24.367262 8.968791 26.210165 3.808665 6.450158 6.552541 12.490781 6.552541 14.436067 0 1.269555 1.249078 4.750592 2.764353 7.760666l2.764353 5.4468-0.655254 1.720042c-1.371938 3.562944-11.937911-1.023835-26.967802-11.753621-3.276271-2.354819-6.654925-4.279628-7.473992-4.279628h-1.494799v6.286344l3.276271 4.914405c12.019818 17.896628 39.66335 39.929547 66.467339 52.993677 7.535422 3.685804 14.661311 7.555899 15.848959 8.620687 3.276271 2.948643 25.391097 11.917434 51.990318 21.050038l23.855345 8.190676 11.651237 1.658612c18.408545 2.60054 43.226295 1.023835 52.686526-3.3377 1.842902-0.860021 8.23163-3.276271 14.210824-5.4468 13.412233-4.812022 38.741899-16.995654 53.505593-25.759677 6.081577-3.624374 11.815051-6.900645 12.736502-7.269226 4.074862-1.658612 35.527059-23.630101 44.966813-31.390767 11.07789-9.112127 26.988279-26.292071 38.598563-41.690543 3.890571-5.160126 8.29306-9.951672 9.787858-10.627402a17.405187 17.405187 0 0 0 5.426323-5.221557c3.276271-4.771069 4.607255-5.426323 8.35449-3.992954 1.576705 0.573347 4.443442 1.085265 6.388728 1.105741 3.829141 0.040953 9.419278 2.60054 7.842572 3.583421-0.552871 0.327627-4.504872 0.941928-8.764023 1.351462-4.259152 0.409534-8.641164 1.003358-9.705952 1.290031l-1.945286 0.552871v3.685804c0 2.027192-1.290032 8.60021-2.866736 14.620357-7.064458 26.783512-10.484066 77.340462-7.043982 104.635891l1.146695 9.296418-1.433369 1.433368-1.433368 1.433369-29.425005 1.249078-29.384052 1.249078-12.756978-0.737161c-10.647879-0.614301-56.904724-4.197722-88.459305-6.859691l-8.026863-0.675731-0.757637 1.965762c-1.228601 3.194364 1.494798 36.858044 3.890571 48.284038l2.211482 10.545495 3.849618 8.313537c4.771069 10.361206 9.419278 16.790887 15.193705 20.968131l4.443442 3.235318 4.238675-0.573348 4.238675-0.573347 12.204108 5.672043c6.716355 3.112457 13.350803 5.672043 14.743217 5.672044 1.392415 0 8.84593 1.269555 16.545167 2.84626 16.176586 3.276271 42.980574 7.351132 64.501576 9.808335 28.053067 3.21484 35.629442 5.99967 49.430732 18.224255l9.583092 8.497826 4.382011 7.207796c2.621016 4.300105 5.364893 8.497827 8.211154 12.613641 5.99967 8.456873 5.774427 8.804977-17.036607 24.776796-57.498548 40.257174-122.942053 67.26593-190.248936 78.52811-26.107781 4.361535-32.271265 4.177245-27.766393-0.819067a14.681787 14.681787 0 0 0 2.96912-5.405847l0.696208-2.948643-2.150053-2.60054-2.150052-2.621017-1.965763 1.208125c-1.085265 0.655254-3.112457 3.378654-4.525349 6.040624-1.412892 2.66197-3.276271 5.651567-4.197721 6.654925-0.900974 0.982881-1.638135 2.354819-1.638135 3.010073 0 2.825783-34.09369 5.282986-56.597574 4.054385z m48.816431-11.651237c0-1.208125 1.023835-4.197722 2.293389-6.654925l2.272913-4.504872 4.648209-2.088622c2.559586-1.167171 5.528707-2.129576 6.593494-2.150053 2.252436-0.020477 2.498156-1.228601 0.614301-3.132933l-1.330985-1.330985h-10.095008l-3.542468 2.191006a17.302804 17.302804 0 0 0-5.405846 5.712996l-1.842903 3.562945 0.593824 4.300105c0.880498 6.675401 5.20108 10.074532 5.20108 4.095338z m19.411903-44.270606c48.427374-5.32394 71.176978-26.066828 75.538513-68.863112l0.737161-7.289702-1.371938-8.190676-1.392415-8.149723-2.907691-2.66197c-3.747234-3.440084-15.480378-11.999341-22.729127-16.58612a117.208579 117.208579 0 0 1-10.606925-7.781142 90.03601 90.03601 0 0 0-7.965433-6.020147c-1.638135-1.023835-5.733473-5.282986-9.071174-9.439755a72.548916 72.548916 0 0 0-10.668356-10.893599 102.281071 102.281071 0 0 1-7.904003-6.388728c-1.801949-1.679089-3.911048-3.071504-4.689162-3.071504-1.269555-0.020477-9.521661-5.016789-12.716025-7.740189a5.20108 5.20108 0 0 0-2.805307-1.126218 9.624045 9.624045 0 0 1-4.013431-1.781472c-3.685804-2.559586-14.927508-8.1702-16.442783-8.190676a15.337042 15.337042 0 0 1-4.443442-1.597182c-4.791546-2.41625-21.787199-8.60021-23.650578-8.60021-0.921451 0-5.016789-0.757638-9.091651-1.679089l-7.433039-1.720042-4.218198 2.60054c-6.286344 3.870095-16.77041 14.620357-18.633789 19.125229-0.921451 2.170529-2.334343 4.341058-3.15341 4.832499a8.41592 8.41592 0 0 0-2.518633 2.743877 41.977216 41.977216 0 0 1-4.422966 5.590136c-1.904332 2.068146-4.832499 6.143007-6.552541 9.091651-3.440084 5.87681-23.916775 26.701605-32.312218 32.844612-8.641164 6.347774-14.640834 12.511258-16.504213 16.975177l-1.740519 4.197722 1.228602 4.668685c3.685804 13.903673 25.780154 42.100077 44.884906 57.273305 9.419278 7.494469 18.961416 12.470305 34.933235 18.183302l13.86272 4.955359 12.204108 2.272912c6.716355 1.269555 13.207466 2.518633 14.436067 2.78483 4.402489 0.962404 42.38675 0.696207 52.133655-0.36858z m-156.790023-478.908848c2.66197-2.41625 2.580063-6.491111-0.204767-9.255465-2.866737-2.866737-3.952001-2.805307-7.248748 0.491441-6.061101 6.081577 1.105741 14.497497 7.453515 8.764024z m135.228067 191.375153l-7.166841-1.023834-6.695878-3.194364c-3.685804-1.760995-8.190676-4.750592-9.992626-6.634448l-3.27627-3.39913 1.290031-1.290032a19.452856 19.452856 0 0 1 5.487754-2.764353l4.197721-1.494799 12.900316 1.228602 12.900315 1.208125 8.190676-1.105742c4.504872-0.614301 9.910718-1.023835 12.019818-0.921451l3.870094 0.163814 0.389058-1.945286 0.36858-1.945286h-4.013431c-2.211483 0-7.371609-0.491441-11.466947-1.085264-4.074862-0.614301-13.92415-1.904332-21.84863-2.866737-26.455885-3.276271-51.314588-10.852646-48.836908-14.845601l0.573348-0.962404 6.388727 1.781472 6.388728 1.781472H534.625924l6.102054-1.597182 6.102054-1.597182 12.347445 0.163814 12.326968 0.163813 3.501514 1.822426c1.945286 0.982881 7.617329 2.866737 12.634118 4.156768l9.112128 2.354819 10.873123-0.06143 10.873123-0.06143-0.409534 1.187648c-0.614301 1.904332-7.576376 5.098696-16.46326 7.555899-10.811693 2.989597-16.176586 8.026863-9.603568 8.968791l2.498157 0.348104 0.348103 1.842902 0.348104 1.842902-3.317224 3.747234c-1.822425 2.088622-5.979194 5.119173-9.214511 6.757308l-5.93824 3.010074-14.395114-0.12286c-7.924479-0.081907-17.630431-0.614301-21.561956-1.167172z m158.223392-124.088747l-5.242033-3.317224-4.996313 1.126218-5.016789 1.126218-7.433039-1.146694c-4.095338-0.614301-10.709309-2.109099-14.661311-3.276271l-7.207795-2.170529-4.627732-4.771069a68.105474 68.105474 0 0 1-8.149723-10.811693l-3.542468-6.061101-1.638135-7.801619-1.679089-7.822096 0.696208-9.705951 0.716684-9.705952h-1.146695c-2.047669 0-6.900645 8.641164-9.378324 16.790887-1.351462 4.422965-3.112457 8.252106-3.890571 8.518303l-1.474322 0.470964 0.450487-8.1702 0.409534-8.190676 3.399131-7.207795c8.518303-18.080918 29.486435-35.424675 50.92553-42.100077l7.781143-2.436726 12.245061-0.614301 12.245061-0.634777 7.699236 1.330985c4.238675 0.737161 8.190676 1.760995 8.825454 2.252436 0.614301 0.511917 3.010074 1.699565 5.282986 2.66197l4.156768 1.699565 3.214841-2.702923c1.781472-1.494798 3.808665-2.7234 4.525348-2.7234h1.310509l-0.737161 5.93824-0.737161 5.917764 8.272583 5.160126c10.443112 6.511588 17.159467 9.562615 21.050038 9.583091l3.071504 0.040954v2.129576c0 3.194364-4.341058 5.99967-13.92415 9.009744l-8.579734 2.7234-1.371938 2.211482c-0.778114 1.228601-2.252436 5.835857-3.317224 10.279299-1.044311 4.422965-2.764353 9.153081-3.829141 10.525019a81.292463 81.292463 0 0 0-5.037266 8.334013c-1.720042 3.194364-3.603898 5.81538-4.197722 5.815381h-1.044311l0.696208-1.801949c0.389057-1.003358 1.249078-4.033908 1.924809-6.757308l1.249078-4.914406-0.614301-7.412562a63.539172 63.539172 0 0 0-3.112457-14.067487l-2.498156-6.654924-3.235317-3.030551c-3.235317-3.010074-11.344087-6.245391-12.572689-4.996312-0.36858 0.348104 0.696207 4.545825 2.334343 9.296417l2.989597 8.641164-0.511917 11.671714-0.470964 11.712667-2.518633 6.224914c-1.371938 3.440084-5.180603 9.828812-8.456874 14.190347l-5.979193 7.944956 1.904332 0.696208c1.064788 0.36858 2.805307 1.433368 3.870095 2.334342l1.945285 1.679089v6.306821h-2.559586c-1.412892 0-4.914406-1.494798-7.801619-3.317224z m-33.17224-47.198772l2.47768-1.740519v-7.555899l-2.436726-2.252436c-3.071504-2.866737-6.921122-2.887213-9.767382-0.040954l-2.211483 2.211483v7.637806l2.457203 1.740519c1.351462 0.941928 3.481037 1.720042 4.750593 1.720042a10.054055 10.054055 0 0 0 4.750592-1.720042z m55.573739 44.495849c-2.191006-1.494798-4.300105-3.481037-4.648208-4.443442l-0.655255-1.699565 2.375297-2.23196a10.156439 10.156439 0 0 1 3.010073-2.211482c2.068146 0.06143 9.542138 5.364893 9.869765 6.962075l0.368581 1.965762-2.580063 2.150053c-3.276271 2.7234-2.989597 2.7234-7.74019-0.491441z m42.878191-130.026988c-11.466947-6.941598-20.804318-10.320252-39.929547-14.47702l-7.781143-1.679089-18.306161-0.163813-18.306162-0.163814-14.006057 3.051027c-7.699236 1.679089-15.562285 3.051027-17.466617 3.051027h-3.481038l-2.211482-2.211483-2.231959-2.231959v-9.644521l2.518633-3.726758c3.562944-5.303463 11.057413-10.668356 17.794244-12.777455l5.774427-1.801949 13.903673-0.593824 13.92415-0.573347 11.589807 1.945285c6.388728 1.064788 16.688503 3.358177 22.913417 5.119173l11.303134 3.15341 8.66164 5.119173c9.050697 5.32394 20.538121 14.149393 26.701605 20.476691l3.603897 3.706281v2.90769c0 6.695878-5.487753 7.269225-14.968461 1.515275z" fill="#C68878" p-id="6018"></path><path d="M473.564432 1020.844951c-51.785551-3.992955-105.905446-18.080918-156.360012-40.707661-31.923161-14.333684-79.326701-43.349155-79.326701-48.591188v-1.638135l8.395443-5.50823c4.627732-3.010074 32.557939-17.507571 62.085327-32.189358 29.547865-14.681787 55.082299-27.8483 56.781864-29.240715 1.699565-1.371938 4.873452-3.603898 7.043982-4.914406 2.191006-1.310508 4.914406-3.460561 6.102054-4.750592 4.115815-4.545825 14.907031-8.579734 14.907031-5.549183 0 0.552871-1.228601 2.47768-2.743877 4.279628-3.849618 4.586779-5.016789 8.252106-5.016789 15.808006v6.552541l2.231959 5.93824c7.310179 19.534763 34.237027 51.642215 54.099418 64.501577 12.019818 7.781143 36.243743 16.83184 53.505593 20.026203 5.180603 0.962404 12.286015 2.293389 15.746576 2.969121l6.306821 1.228601 21.971489-0.737161c68.678822-2.252436 95.318996-21.398142 99.721485-71.668418l0.716684-8.334013-1.310508-7.207796c-2.252436-12.408875-8.743547-23.609625-19.452856-33.520343l-4.422966-4.095338 3.460561-0.06143 3.440084-0.040953 10.299776 5.119172 10.299775 5.119173 7.330656 0.941928c4.033908 0.511917 12.286015 1.986239 18.347115 3.27627 12.613642 2.66197 24.510599 4.463919 50.55695 7.699236 25.288713 3.15341 36.14136 5.282986 43.205818 8.47735l6.040624 2.7234 6.204437 5.794904c3.419607 3.173887 7.514946 6.859691 9.091651 8.190676 1.597182 1.290032 4.996313 5.794904 7.514945 9.972149 2.682447 4.402489 5.487753 8.72307 8.41592 12.961745l3.808665 5.364893-1.146695 2.170529c-2.457203 4.627732-35.916116 27.623056-59.832891 41.158149-49.717406 28.15545-111.352245 48.836908-165.021652 55.389449-12.490781 1.515275-13.657953 1.208125-10.995983-2.866737l1.822425-2.764353v-5.098696a17.07756 17.07756 0 0 0-6.695878-14.272254l-3.460561-2.90769h-4.095338a17.13899 17.13899 0 0 0-13.92415 7.699236l-2.088622 3.562944v8.886884l2.170529 2.887214a11.466947 11.466947 0 0 0 3.481037 3.3377l1.310509 0.450487v-3.542467c0-5.119173 3.03055-10.709309 7.187318-13.268896 6.450158-3.992955 8.804977-2.47768 5.938241 3.808665l-1.269555 2.825783h-1.801949a9.562615 9.562615 0 0 0-4.259152 1.740519l-2.477679 1.720042 0.286673 4.504872 0.286674 4.504872-4.996313 1.515275-4.996312 1.515275-26.619698-0.143337a740.129995 740.129995 0 0 1-37.799972-1.023834v0.020476z m55.553263-259.480627l-7.781143-0.614301-4.259152-3.890571a53.853697 53.853697 0 0 0-5.81538-4.771069c-5.242033-2.96912 0.573347-3.829141 8.866407-1.330985 5.303463 1.617659 9.767382 2.191006 25.49348 3.27627 4.177245 0.30715 8.23163 1.064788 8.968791 1.679089 0.737161 0.614301 1.760995 0.757638 2.252436 0.30715l0.921451-0.819067-0.757637 1.310508-0.757638 1.310508 2.252436-0.163814 2.29339-0.163813-0.532394-1.371938-0.532394-1.371939 1.535751 0.593824 1.556229 0.593824-0.900974 2.395773-0.900975 2.395773-2.088622 0.040953a8.088293 8.088293 0 0 0-3.481038 0.900975l-1.371938 0.860021v-1.003358c0-0.532394-1.371938-0.819068-3.051027-0.614301-7.269225 0.880498-14.620357 1.023835-21.910059 0.450488z m145.896423-4.627733c-11.835527-0.941928-23.671055-1.842902-35.506582-2.661969-31.697918-2.252436-55.737553-4.852976-57.089015-6.183961l-1.064788-1.023835 1.617659-1.474321c0.880498-0.798591 6.102054-3.09198 11.610284-5.119173 29.957399-11.01646 83.688236-42.489134 111.208908-65.115877 10.995983-9.009744 28.380694-27.8483 39.315247-42.468658l6.716355-9.009744 2.641493-0.634777a8.743547 8.743547 0 0 1 4.300105-0.040953l1.679088 0.634777-0.020476 3.09198c0 1.699565-1.023835 6.839215-2.252436 11.405517-1.208125 4.586779-3.235317 14.558927-4.504872 22.196733l-2.29339 13.86272-0.941927 27.193046-0.921452 27.172569 0.982882 7.781142c0.552871 4.259152 1.023835 10.135962 1.023834 13.023176l0.040954 5.282986-1.371939 0.143337c-4.955359 0.532394-61.982944 3.235317-63.518695 3.010073-0.614301-0.102383-5.856334-0.573347-11.671714-1.064788z m-357.256828-10.443112a331.456197 331.456197 0 0 1-19.411903-3.829141c-5.487753-1.290032-15.603239-3.276271-22.46293-4.463919-14.517974-2.47768-23.138661-4.218198-47.444493-9.624045l-17.753291-3.911048-4.422965-2.395772-4.443442-2.375297-3.27627-9.419277-3.276271-9.460232-0.225244-22.176256c-0.24572-25.083946-2.170529-66.610676-3.870094-83.217272-2.252436-21.910059-3.501514-51.601261-3.644851-84.875884l-0.12286-33.827494 1.986239-17.753291c3.337701-29.793585 5.119173-40.461941 9.234987-55.491832 2.191006-7.924479 5.38537-19.92382 7.125889-26.640175 1.740519-6.736831 5.467276-19.452856 8.29306-28.298787 2.129576-6.634448 4.218198-13.289372 6.286344-19.944297 0.655254-2.129576 2.84626-7.883526 4.873452-12.756979 2.66197-6.429681 5.221556-12.900315 7.740189-19.411903 2.53911-6.552541 5.32394-13.043652 8.313537-19.411903 2.334343-4.893929 5.99967-13.616999 8.129246-19.411903 16.012772-43.553922 33.110809-73.101787 58.092373-100.335785 9.439755-10.279299 9.439755-10.115485-0.184291-7.576376l-7.473992 1.945286-1.576705-2.150053c-3.481037-4.771069-0.040953-9.972149 19.104753-28.974518 21.766722-21.623386 44.086316-37.533775 73.14274-52.174608l18.429022-9.275941 17.364234-5.69252 17.364233-5.69252 13.883197-2.191006 13.883196-2.191006 32.189359 0.49144 32.148404 0.491441 12.224585 3.419607 12.204108 3.440084 14.41559 7.228272 14.436067 7.207795 9.419278 7.904003c4.402489 3.685804 8.804977 7.371609 13.146036 11.118843 4.504872 3.931525 4.156768 3.931525 12.081247 0.307151l6.388728-2.948644 11.364564-0.511917c14.456544-0.655254 15.152751-0.450487 25.104423 7.453515l8.313536 6.613972 0.348104 2.539109 0.36858 2.559587 21.090992 10.525019 21.070515 10.545496 7.781143 5.794903 11.63076 8.661641c25.67777 19.125229 52.686526 59.054777 59.341451 87.68119l1.679088 7.289702 0.450487 15.193705 0.450488 15.173228 2.211482 6.654925c1.228601 3.665328 4.812022 13.412233 7.944956 21.643862 6.368251 16.688503 13.371279 43.042004 16.381353 61.57341l1.965762 12.204107-0.020476 33.274623-0.040954 33.2951-1.351461 6.552541c-1.842902 8.866407-9.112127 28.4626-13.98558 37.656635l-3.992955 7.514945 0.081907 4.095338c0.204767 8.53878-7.863049 31.00171-12.818409 35.649919l-2.600539 2.457203-0.737161-1.228601c-0.409534-0.655254 0.593824-11.057413 2.211482-23.097708l2.96912-21.910059-0.55287-18.285685-0.532394-18.306162-3.481038-11.978864c-19.944297-68.740252-68.105474-128.040749-144.974972-178.618175a422.823192 422.823192 0 0 1-24.264878-16.995654l-6.429681-5.221556-5.119173-0.982881-5.160126-0.982881-16.627073 1.228601-16.64755 1.228602-12.818409 3.173887-12.797931 3.15341-15.480379 6.654925c-18.920462 8.10877-32.516985 15.541808-49.471685 26.988278l-12.900316 8.702594-11.425993 11.917434c-9.828812 10.279299-15.930866 17.609954-25.923491 31.226954-1.638135 2.129576-3.337701 4.218198-5.119173 6.224914-4.709639 5.221556-11.159797 17.159467-12.900315 23.834868l-1.597182 6.081577 1.822426 1.310509c1.003358 0.737161 5.63109 1.617659 10.320252 1.945285 4.668686 0.348104 15.726099 1.433368 24.572029 2.457203l16.094679 1.801949 8.886884 2.743877c19.24809 5.958717 29.302145 15.050368 28.09402 25.30919l-0.36858 3.071503-2.84626 2.129576-2.866737 2.109099-7.637806-2.866736c-4.238675-1.597182-14.927508-4.934883-23.793915-7.433039l-16.115156-4.545826-19.411903-0.532394-19.411903-0.511917-4.668685 1.249078c-2.559586 0.696207-6.143007 2.518633-7.965433 4.033908l-3.296747 2.78483-1.720042 5.242033c-0.962404 2.866737-2.252436 7.924479-2.866737 11.20075l-1.126218 5.979194 1.330985 4.402489 1.310508 4.382011 2.29339 1.433369 2.293389 1.433368 9.419278 0.737161c23.241044 1.781472 36.898997 5.016789 50.188369 11.876481l9.173558 4.750592 11.118843 11.13932 11.098367 11.13932 4.300105 8.764024 4.259151 8.764023 1.146695 8.04734c0.614301 4.443442 0.778114 8.948314 0.368581 10.033578l-0.757638 1.945286-1.617659-1.638135c-0.880498-0.880498-2.375296-4.463919-3.27627-7.98591-3.071504-11.835527-11.098367-22.442453-23.056754-30.448839-5.303463-3.562944-6.265867-2.580063-3.358178 3.419607 1.269555 2.60054 2.90769 7.719712 3.685805 11.344087l1.351461 6.613971-0.67573 8.026863-0.675731 8.04734-3.255794 7.166842c-5.794904 12.777455-15.091321 21.582432-27.152092 25.698247l-5.180603 1.760995-11.01646-1.269555-11.01646-1.290031-4.463918 1.330985-4.443442 1.330985-1.699565-1.392415a5.119173 5.119173 0 0 1-1.699566-3.419608v-1.986239l-5.93824-5.69252-5.979194-5.69252-3.685804-7.985909-3.706281-7.98591 0.040953-11.671714c0-6.388728 0.573347-13.514616 1.228601-15.787529 1.371938-4.689162 0.286674-5.467276-2.231959-1.638135-2.887213 4.443442-4.914406 16.64755-5.119173 31.022187l-0.12286 8.60021h-1.187648c-0.634777 0-3.788188-2.621016-6.962075-5.81538l-5.81538-5.81538-4.382012-10.83217c-4.627732-11.38504-5.38537-12.367921-6.470634-8.313536-1.228601 4.545825-0.737161 9.398801 2.006716 19.86239 1.494798 5.712997 3.276271 15.296088 3.972478 21.316235l1.269554 10.95503-1.351461 16.074202-1.351462 16.074203 0.614301 12.347444 0.614301 12.367922 2.354819 7.781142c5.794904 19.227613 8.35449 30.776467 7.92448 35.752303-0.06143 0.737161-1.371938 2.191006-2.928167 3.194363l-2.805307 1.842903-4.300105-1.945286-4.300105-1.945286-1.351462 0.819068-1.330985 0.819068 0.573348 4.218198 0.55287 4.197722 3.665328 5.364893c14.333684 21.029562 41.670066 43.512968 70.521724 57.887605l13.473662 6.736831 2.252436 2.866737 2.252436 2.866737-0.6143 6.347774c-0.348104 3.481037-1.187648 7.023505-1.842903 7.863049l-1.228601 1.535752-22.196733-0.798591a573.347347 573.347347 0 0 1-30.69456-1.740518 581.046583 581.046583 0 0 0-30.776466-1.740519l-22.319593-0.798591-0.143337 1.556228c-0.081907 0.860021-0.204767 4.545825-0.286674 8.190677l-0.12286 6.634448-1.658612 0.204767a86.206869 86.206869 0 0 1-11.098367-1.290032z m88.213585-257.944876l2.027193-2.252436v-6.921122l-2.04767-1.515275a9.091651 9.091651 0 0 0-4.566302-1.515275h-2.498156l-1.740519 2.457203c-5.119173 7.330655 2.96912 16.217539 8.825454 9.746905z m164.755456 164.100201c-31.186-1.515275-71.729848-7.596852-68.678822-10.320252 0.860021-0.757638 67.224976 2.621016 76.439488 3.890571 5.180603 0.716684 14.804648 1.351462 21.418618 1.392415l11.978864 0.102384-1.781472 1.290031c-1.801949 1.330985-11.876481 3.337701-19.964773 4.013432-2.457203 0.204767-11.180273 0.040953-19.411903-0.368581z m129.76079-99.230044l-1.433368-1.720042 1.187648-1.167172 1.167171-1.167171 2.334343 0.737161 2.334343 0.737161v4.300105h-2.088623a5.221556 5.221556 0 0 1-3.481037-1.720042z m-30.94028-2.825784a100.540553 100.540553 0 0 1-10.156438-2.723399l-5.26251-1.740519-4.996313-5.32394a48.468328 48.468328 0 0 1-11.856004-22.217209l-1.412891-6.020148 0.73716-12.777455 0.716685-12.797932-3.378654 3.235318c-3.317224 3.194364-9.972149 15.091321-9.972149 17.855674a2.90769 2.90769 0 0 1-1.269555 2.211483l-1.290031 0.819067 0.675731-5.75395 0.67573-5.733473 3.337701-7.003029 3.337701-6.982551 6.716354-7.330656c11.589807-12.634118 26.967802-22.64722 41.629113-27.090662l6.654925-2.006715 16.094679-0.020477 16.094679-0.020477 8.047339 3.767711 8.067817 3.788188 3.03055-1.535752c1.679089-0.819068 3.481037-1.720042 4.033908-1.965762l1.023834-0.470964-0.655254 3.992955-0.655254 3.992955 3.091981 2.539109c7.166842 5.856334 22.606267 14.149393 26.373978 14.16987 7.125888 0.040953 1.597182 5.467276-9.091651 8.927838-4.279628 1.392415-8.641164 3.317224-9.685475 4.300105l-1.924809 1.781472-2.252436 8.743547c-2.313866 9.091651-3.706281 11.753621-6.183961 11.75362h-1.453845l-0.696207-5.262509c-1.208125-9.071174-4.791546-19.657623-8.334013-24.531076l-3.399131-4.689162-8.395443-3.829141a163.567807 163.567807 0 0 0-8.804978-3.849618c-0.204767 0 1.679089 4.238675 4.156769 9.419278l4.504872 9.419277 1.187648 8.190677 1.187648 8.211153-1.392415 7.781143c-1.842902 10.361206-6.286344 19.411903-13.268896 27.029232l-5.733473 6.265867-4.95536 2.334343-4.996312 2.354819-7.494469-0.12286a87.619761 87.619761 0 0 1-12.408875-1.085265z m-4.607255-41.465299c5.119173-2.641493 5.958717-7.351132 2.231959-12.101724l-2.313866-2.928167h-7.514946l-2.252436 2.436726-2.252436 2.436727v2.887213c0 6.532064 6.265867 10.299776 12.101725 7.269225zM720.779522 549.184852c-3.419607-3.440084-0.593824-6.245391 4.300105-4.218199l3.317224 1.371939-0.348104 1.781472-0.327627 1.781472-2.78483 0.327627c-1.515275 0.18429-3.399131-0.286674-4.156768-1.044311z m-347.96041-20.435738c-1.904332-4.955359 1.310508-9.624045 6.613972-9.624045h2.90769l2.293389 2.29339 2.29339 2.293389-1.474322 1.801949c-3.685804 4.422965-11.425994 6.388728-12.634119 3.235317z m394.852032-107.11357c-15.296088-10.095009-38.045692-16.790887-65.586841-19.30952l-7.904003-0.737161-8.743547 1.290032c-6.634448 1.023835-13.248419 2.252436-19.841913 3.583421-6.102054 1.269555-13.227942 2.53911-15.828482 2.825783l-4.750593 0.491441-1.760995-1.433369-1.740519-1.474321 0.511918-5.38537 0.511917-5.38537 4.320582-4.463919c5.32394-5.487753 10.463589-8.211153 19.534763-10.361205l6.962075-1.638135h11.26218l11.26218-0.040954 12.593165 2.191006c26.803988 4.627732 39.253817 10.156439 58.092372 25.841584l10.545496 8.764024 0.655254 2.621016c1.330985 5.344416-3.890571 6.695878-10.095009 2.621017z" fill="#A66A5D" p-id="6019"></path><path d="M677.635134 755.528467c-54.672765-3.378654-91.121275-6.675401-92.861793-8.436397l-0.941928-0.941928 9.439754-3.583421c30.960757-11.753621 86.69831-44.352513 111.94607-65.484457 12.040294-10.054055 27.070185-25.943967 38.291412-40.420988l9.153081-11.835528h6.511588v2.518633c0 1.371938-0.982881 6.081577-2.191006 10.422636-1.187648 4.341058-3.399131 15.562285-4.893929 24.940609l-2.702924 17.036607-0.327627 25.513957a551.846822 551.846822 0 0 0 0.614301 36.898997l0.921451 11.364564-1.535752 0.18429c-5.344416 0.614301-9.480708 0.798591-30.919803 1.433368-13.125559 0.409534-24.612983 0.839544-25.534434 0.982882-0.900974 0.12286-7.637806-0.143337-14.968461-0.593824z m-362.519337-10.934553c-6.552541-1.146695-15.767052-3.071504-20.517644-4.218199-5.610613-1.351462-11.26218-2.498156-16.934223-3.46056a898.926733 898.926733 0 0 1-50.31123-10.443113l-10.934553-2.641493-2.948644-2.191006-2.928166-2.170529-0.307151-2.66197a64.41967 64.41967 0 0 0-2.66197-9.316894l-2.354819-6.675402 0.757637-26.312548 0.757638-26.333024-1.146695-6.962075c-1.679089-10.176915-3.419607-29.957399-4.504872-50.782194-0.511917-10.054055-1.494798-21.050038-2.170529-24.408215-0.696207-3.337701-1.474322-12.838885-1.740519-21.090992l-1.003358-29.384052c-0.839544-23.548195 2.78483-67.532127 7.760666-93.742291 4.812022-25.534434 5.897287-30.469316 9.153081-41.608636 2.006716-7.003028 3.911048-14.026533 5.712997-21.090992 1.351462-5.487753 5.38537-17.466617 8.948314-26.619698 3.562944-9.153081 7.985909-21.193375 9.828812-26.763035 1.863379-5.56966 4.648209-12.818409 6.18396-16.094679 3.112457-6.573018 10.484066-26.046351 14.456544-38.148075 3.542468-10.791216 11.651237-29.793585 19.145706-44.92586l6.347774-12.756979 10.197392-14.436067 10.197393-14.41559 14.251776-13.965104c7.822096-7.678759 15.480378-14.620357 16.995654-15.418948 5.487753-2.887213 19.98525-15.152751 19.98525-16.872793 0-1.945286-3.767711-0.655254-11.958387 4.095338l-8.559257 4.975836-5.26251 0.716684-5.262509 0.716684-1.679089-1.392415a6.061101 6.061101 0 0 1-1.679088-4.156768v-2.743877l7.494468-7.781142c15.193705-15.828482 33.950354-28.954041 60.815773-42.530087l20.005727-10.135962 17.753291-5.75395 17.773767-5.753951 14.231301-2.191006 14.2313-2.191005 24.531076 0.040953c28.564984 0.040953 35.834209 0.819068 52.317945 5.56966l12.163155 3.481037 12.756978 6.552541 12.756979 6.491111 10.545495 8.41592c5.794904 4.627732 13.371279 11.38504 16.83184 15.009415 3.481037 3.624374 7.023505 6.593494 7.904003 6.593494 0.900974 0 2.252436 0.737161 2.989597 1.658612 1.842902 2.191006 4.914406 2.109099 6.798261-0.143336l1.494799-1.801949-4.791546-4.136292-4.812022-4.136291 2.989597-2.35482c3.931525-3.071504 8.7845-3.890571 19.555239-3.27627l8.845931 0.511917 6.102054 5.99967 6.081577 6.020147-0.614301 2.498157-0.6143 2.498156 5.835857 2.702923c3.21484 1.474322 12.838885 5.835857 21.377665 9.664998l15.521332 6.962075 8.334013 5.815381 14.395114 10.033578c25.943967 17.917105 51.806028 55.123252 58.850009 84.630164l1.433369 6.102054-0.368581 7.207795c-0.24572 5.180603-0.389057 10.361206-0.409533 15.541808l-0.06143 8.313537 5.344416 11.098367c19.207136 39.868117 27.541149 75.026596 28.994994 122.593948l0.696208 22.749604-1.638136 12.286015-1.679088 12.286014-4.504872 13.780813c-2.457203 7.576376-6.224914 17.302804-8.395443 21.561956-2.129576 4.279628-3.890571 8.764024-3.890572 9.992625-0.040953 7.494469-9.624045 34.933235-12.224584 34.933235h-1.228602l0.614301-4.709639c2.088622-15.214181 3.890571-34.359887 4.525349-47.424016l0.716684-14.988938-1.781472-8.497827c-15.132275-72.139382-64.952064-137.050493-147.636942-192.276128-11.589807-7.781143-23.322951-15.971819-26.066828-18.265209a62.085327 62.085327 0 0 0-7.658282-5.569659l-2.66197-1.433369-21.746246 0.675731c-34.400841 1.064788-41.547206 2.60054-74.432771 15.971819-13.698906 5.528707-30.63313 15.009414-40.850999 22.811034-3.481037 2.66197-11.057413 7.985909-16.852317 11.856004-18.265208 12.142678-47.46497 42.878191-55.758029 58.624766l-5.057743 9.603568c-0.962404 1.842902-1.965762 6.143007-2.211482 9.624045l-0.470964 6.306821 3.747234 0.573347c2.047669 0.327627 12.286015 0.860021 22.729127 1.228601l18.981893 0.634778 12.347444 2.068146 12.326968 2.088622 7.064459 3.296747c6.962075 3.276271 19.98525 10.647879 24.858703 14.128917l2.498156 1.760996v8.682117l-2.170529 1.167171-2.17053 1.146695-7.330655-2.764354c-8.60021-3.21484-32.783182-10.033579-41.588159-11.69219-3.358177-0.634777-14.599881-1.187648-24.981563-1.228602l-18.838556-0.102383-10.545496 1.945285c-5.794904 1.044311-11.835527 2.559586-13.412232 3.378655-5.979194 3.010074-13.309849 15.357518-16.422307 27.643532-1.228601 4.893929-3.521991 11.999341-5.078219 15.787529a70.48077 70.48077 0 0 0-2.805307 7.637806c0 2.129576 23.138661-3.849618 23.384381-6.020147 0.880498-8.804977 1.392415-9.275941 5.4468-4.832499l3.276271 3.58342 2.518633-0.532393c1.392415-0.286674 5.794904-0.819068 9.787858-1.208125l7.248749-0.655254 9.951671 1.167171c28.483077 3.378654 42.550564 9.890242 60.262902 27.930207l6.941598 7.084935 4.955359 9.972148 4.934883 9.992625 0.532394 7.207795 0.532394 7.207796-2.027193-6.102054c-4.504872-13.514616-11.344087-22.032919-25.042993-31.186001l-6.757308-4.504872-0.327627 1.658612c-0.204767 0.921451 0.860021 4.095338 2.35482 7.043982 9.030221 17.958058 6.081577 39.315247-7.555899 54.467998l-5.160126 5.733474-6.859692 3.378654-6.859691 3.378654-17.712338-0.450488-17.691861-0.43001-0.49144-1.515275c-0.24572-0.819068-3.317224-4.504872-6.818739-8.190677-7.146365-7.514946-10.156439-12.797932-12.183631-21.439095l-1.392415-5.93824 0.593824-8.497827c0.757638-10.811693 1.945286-14.640834 7.433039-23.732485 5.4468-9.030221 5.467276-8.60021-0.286674-8.60021h-4.730115l-4.136292 2.805306-4.115815 2.805307-4.402488 9.112128a114.157552 114.157552 0 0 0-6.306821 16.340399c-1.044311 3.972478-2.313866 7.678759-2.805307 8.23163l-0.900974 1.023834-2.96912-6.552541-2.989597-6.593494-1.208125-9.419278-1.187648-9.419278-4.668685-0.348104-4.648209-0.348104-1.597182 2.559587c-7.658282 12.204108-8.702594 85.633522-1.740519 123.474446l2.231959 12.224585-0.348103 7.207795-0.327627 7.207795-2.498157 0.368581a5.712997 5.712997 0 0 0-3.747234 2.66197l-1.228602 2.293389 0.593824 4.300105 0.573348 4.341059 4.709639 7.985909c6.634448 11.241703 16.749933 23.097707 32.455555 38.004738l13.514616 12.818409 10.770739 7.166842c5.93824 3.931525 17.282327 10.443112 25.24776 14.47702l14.477021 7.330656 0.696207 2.805306c0.409534 1.556229 0.266197 5.610613-0.286673 9.050698l-0.982882 6.224914-19.411903-0.348104a406.462316 406.462316 0 0 1-28.851657-1.433368c-5.180603-0.593824-19.964774-1.371938-32.844612-1.760996l-23.404858-0.67573-1.003358 1.556228c-0.532394 0.860021-1.003358 4.504872-1.003358 8.10877v6.552541l-1.105741 0.286673c-0.614301 0.163814-6.470634-0.655254-13.023176-1.801948z m92.39083-256.511508l2.252436-3.603898-0.675731-2.764353c-0.962404-4.013431-3.747234-6.675401-6.962075-6.675401H399.295474l-2.559587 2.416249-2.580063 2.41625v8.35449l2.457203 1.740518a11.44647 11.44647 0 0 0 5.56966 1.720042h3.112457l2.211483-3.603897z m266.811283 61.675793a846.711171 846.711171 0 0 1-9.951672-2.252436l-7.740189-1.801949-5.385369-5.057742c-11.548854-10.791216-17.917105-33.008426-13.146036-45.826835 0.532394-1.433368 1.290032-4.443442 1.720042-6.736831l0.757638-4.156768H638.872758c-0.921451 0-3.521991 1.617659-5.75395 3.583421l-4.095338 3.58342 1.986239-3.829141c9.583091-18.551882 38.025215-35.158478 63.498219-37.083287l9.132604-0.696208 7.514945 1.187648c4.136292 0.655254 10.750263 2.66197 14.722741 4.422966 3.972478 1.801949 8.211153 3.15341 9.419278 3.010073l2.231959-0.24572 0.327627 2.211483 0.327627 2.211482 10.77074 6.982552c5.917764 3.849618 12.900315 7.576376 15.480378 8.272583 7.371609 2.027192 6.081577 3.665328-5.835857 7.535422-9.951672 3.21484-11.057413 4.361535-13.780813 14.272254-3.112457 11.32361-4.750592 12.040294-6.143007 2.66197a67.716417 67.716417 0 0 0-3.010074-11.180274l-2.231959-5.93824-6.818738-7.658282-6.839215-7.678759-6.654924-2.191006c-6.450158-2.109099-9.480708-2.702923-12.593165-2.436727l-1.494799 0.143337 5.364893 5.897287c6.716355 7.330655 10.975506 15.910389 12.634119 25.391097l1.269554 7.310179-1.310508 8.702593-1.310508 8.723071-3.890571 7.412562c-4.607255 8.84593-11.01646 15.480378-18.551882 19.248089l-5.528707 2.743877-5.590137-0.12286a60.324332 60.324332 0 0 1-7.842572-0.614301z m-6.388727-42.0796l2.498156-2.805307v-3.112457a10.647879 10.647879 0 0 0-7.719713-9.501184l-3.255793-0.716684-2.559587 1.371938c-7.248749 3.849618-7.514946 14.067487-0.450487 17.20042l3.440084 1.494799 2.78483-0.573348a11.876481 11.876481 0 0 0 5.26251-3.358177z" fill="#47332F" p-id="6020"></path><path d="M621.877105 845.625907c0.962404 0 5.979194 2.252436 11.180273 4.975836l9.460231 4.996312 3.685805 0.020477c2.006716 0 8.395443 1.023835 14.210823 2.252436 15.705622 3.317224 55.368972 9.603568 69.907423 11.057413 26.251118 2.60054 31.943638 4.771069 45.601591 17.261851l1.392415 1.290031c4.300105 1.371938 8.252106 3.235317 11.098366 5.81538 2.66197 2.41625 6.102054 5.282986 10.299776 8.641164 3.03055 2.436726 5.160126 4.525349 6.347774 6.306821 2.191006 3.194364 4.484395 7.043982 6.552541 9.828811 8.47735 11.26218 16.381353 22.319593 23.712008 33.11081 3.09198 4.566302 5.897287 9.112127 8.436397 13.678429 3.051027 5.467276 7.924479 12.081248 11.44647 18.142349 1.597182 2.78483 5.56966 9.501185 11.937911 20.128587 3.21484 5.38537 7.781143 10.8936 9.562615 17.32328 0.327627 1.146695 1.597182 2.272913 3.788188 3.378654H326.418931l-30.715037-10.238345c-6.818738-13.637476-16.381353-22.52436 0-30.715037 3.624374-1.822425 7.637806-4.709639 11.835528-8.190676l-1.617659-0.757638c-24.981563-12.286015-59.791938-33.315576-65.423028-39.520013l-1.904332-2.129576 0.778114-1.269555c2.60054-4.197722 29.506912-18.429022 44.106793-23.343428 3.603898-1.228601 8.60021-3.521991 11.13932-5.119172 2.518633-1.597182 13.330326-7.207795 24.039635-12.449828 10.688833-5.26251 21.070515-10.709309 23.056754-12.101725a95.830914 95.830914 0 0 1 11.733144-6.347774c4.484395-2.047669 8.866407-4.607255 9.726428-5.651567a41.977216 41.977216 0 0 1 7.105412-5.467276 123.88398 123.88398 0 0 0 10.381682-7.576376c2.641493-2.211483 5.794904-4.013431 7.023505-4.013431h2.211483l-2.866737 3.419607c-3.747234 4.443442-4.402489 7.330655-3.726758 16.627073l0.552871 7.617329 4.422965 9.214511c19.98525 41.485776 59.587171 71.463651 105.864492 80.145769 5.119173 0.941928 11.671714 2.211483 14.640834 2.825783 2.948643 0.593824 14.681787 1.064788 26.066828 1.044311l20.722411-0.040953 10.525019-1.515275c48.714048-7.043982 71.504605-29.629772 74.023238-73.286077l0.552871-9.992625-1.228601-6.613972a68.699298 68.699298 0 0 0-4.504873-13.616999l-3.27627-6.962075-5.733474-6.102054-5.774426-6.081577h1.720042z" fill="#1C1D1F" p-id="6021"></path><path d="M402.448884 900.974403c4.545825 6.962075 9.624045 13.514616 15.275612 19.637146 7.985909 8.764024 16.094679 16.319923 24.305832 22.626744 3.521991 2.702923 8.252106 5.32394 12.613642 7.187318l12.265537 5.32394c6.388728 2.805307 11.425994 4.115815 17.609955 6.204437 1.760995 0.593824 4.197722 1.146695 7.269225 1.679089 8.804977 1.474322 15.930866 2.805307 21.377665 3.952001 2.621016 0.573347 4.996313 0.655254 7.80162 0.737161 9.296418 0.286674 20.620028 0.102383 33.97083-0.573347 3.235317-0.163814 6.409204-0.614301 9.501184-1.310508 3.481037 0.880498 7.842573 1.003358 13.064129 0.36858 5.528707-0.655254 9.644521-1.597182 12.367922-2.825783 5.528707-2.518633 9.050697-3.747234 13.309849-6.368251 3.890571-2.41625 7.351132-4.341058 10.340729-5.75395a10.770739 10.770739 0 0 1 3.685804-1.105742 0.839544 0.839544 0 0 1 0.900975 0.737161 0.819068 0.819068 0 0 1-0.061431 0.409534 14.456544 14.456544 0 0 1-2.702923 4.300105c-5.69252 6.347774-11.794574 10.320252-20.10811 15.377995a18.715696 18.715696 0 0 0-9.542138 15.500855c-0.30715 4.525349-0.511917 10.647879-0.614301 18.326638-0.06143 2.764353-0.65525" fill="#1C1D1F" p-id="6022"></path></svg>