<?xml version="1.0" standalone="no"?><!DOCTYPE svg PUBLIC "-//W3C//DTD SVG 1.1//EN" "http://www.w3.org/Graphics/SVG/1.1/DTD/svg11.dtd"><svg t="1772522645640" class="icon" viewBox="0 0 1024 1024" version="1.1" xmlns="http://www.w3.org/2000/svg" p-id="4769" xmlns:xlink="http://www.w3.org/1999/xlink" width="32" height="32"><path d="M0 0m146.285714 0l731.428572 0q146.285714 0 146.285714 146.285714l0 731.428572q0 146.285714-146.285714 146.285714l-731.428572 0q-146.285714 0-146.285714-146.285714l0-731.428572q0-146.285714 146.285714-146.285714Z" fill="#FFFFFF" p-id="4770"></path><path d="M595.675429 798.902857V463.36a106.642286 106.642286 0 0 1 106.605714 106.569143v228.937143l-106.605714 0.036571zM217.234286 791.04V250.368h108.178285V791.04H217.234286z m108.763428-221.074286V463.36h269.714286v31.378286a75.300571 75.300571 0 0 1-75.337143 75.190857H325.997714z m133.266286-106.569143l92.525714-216.356571h119.113143l-71.350857 166.838857a81.517714 81.517714 0 0 1-74.971429 49.517714h-65.316571z" fill="#000000" p-id="4771"></path><path d="M843.300571 287.817143c0 34.633143-28.086857 62.72-62.72 62.72q-9.142857 0-58.038857 6.253714 9.435429-10.971429 17.261715-21.284571a62.72 62.72 0 1 1 103.424-47.652572l0.073142-0.036571z" fill="#007AFF" p-id="4772"></path></svg>