<svg width="26" height="26" viewBox="0 0 26 26" fill="none" xmlns="http://www.w3.org/2000/svg">
<path d="M23.9527 15.347L21.1983 10.5338L22.3781 8.27502C22.4886 8.18019 22.5628 8.04994 22.588 7.9065C22.6132 7.76306 22.5878 7.61533 22.5162 7.48852L21.0017 4.75852C20.944 4.66963 20.8654 4.59621 20.7727 4.54466C20.6801 4.49312 20.5763 4.465 20.4703 4.46277H14.8462L13.5852 2.26089C13.5412 2.17606 13.4772 2.1032 13.3988 2.04856C13.3204 1.99393 13.2299 1.95917 13.1351 1.94727H10.1662C10.0582 1.94947 9.95249 1.97949 9.85941 2.03443C9.76634 2.08936 9.68899 2.16736 9.63483 2.26089V2.38114L6.82358 7.19439H4.12933C4.01976 7.1909 3.91117 7.21605 3.81428 7.26734C3.71739 7.31864 3.63555 7.39431 3.57683 7.48689L2.02496 10.238C1.97643 10.3357 1.95117 10.4434 1.95117 10.5525C1.95117 10.6616 1.97643 10.7692 2.02496 10.8669L4.81671 15.7191L3.55896 17.921C3.51069 18.0185 3.48557 18.1258 3.48557 18.2346C3.48557 18.3434 3.51069 18.4508 3.55896 18.5483L4.99383 21.0638C5.11083 21.2571 5.31883 21.3758 5.54633 21.3758H11.1688L12.5257 23.732C12.5772 23.8198 12.6486 23.8942 12.7341 23.9492C12.8196 24.0042 12.9169 24.0384 13.0181 24.0489H16.2031C16.3113 24.0465 16.4171 24.0162 16.5102 23.961C16.6032 23.9058 16.6805 23.8275 16.7345 23.7336L19.5067 18.8814H21.9832C22.0921 18.8721 22.1972 18.8371 22.2899 18.7791C22.3826 18.7212 22.4602 18.6421 22.5162 18.5483L23.9511 16.0133C24.0162 15.9143 24.0508 15.7985 24.0508 15.6801C24.0508 15.5617 24.0162 15.4459 23.9511 15.347H23.9527ZM20.4703 15.6623L19.0355 13.0086L13.1367 23.4005L11.5231 20.7485H5.62271L7.03971 18.1745H10.0476L4.14721 7.82327H7.23471L10.1662 2.59889L11.6417 5.17289L10.1272 7.82489H21.9247L20.4313 10.4574L23.4018 15.6623H20.4703Z" fill="#605BEC"/>
<path d="M12.7404 17.0413L16.5039 11.1133H8.95898L12.742 17.0413H12.7404Z" fill="#605BEC"/>
</svg>
