<svg width="16" height="16" viewBox="0 0 16 16" fill="none" xmlns="http://www.w3.org/2000/svg">
<path d="M9.216 2.10572L12.716 4.05472C13.1052 4.27137 13.4294 4.58806 13.6551 4.97203C13.8809 5.356 13.9999 5.79331 14 6.23872V7.50072C14 7.77686 13.7761 8.00072 13.5 8.00072C13.2239 8.00072 13 7.77686 13 7.50072V6.23872C12.9999 5.97158 12.9285 5.70931 12.7932 5.479C12.6578 5.2487 12.4634 5.05873 12.23 4.92872L8.73 2.97872C8.50679 2.85437 8.25551 2.7891 8 2.7891C7.74449 2.7891 7.49321 2.85437 7.27 2.97872L3.77 4.92872C3.53678 5.05865 3.34246 5.24846 3.2071 5.47857C3.07174 5.70868 3.00025 5.97075 3 6.23772V11.5007C3 11.8985 3.15804 12.2801 3.43934 12.5614C3.72064 12.8427 4.10218 13.0007 4.5 13.0007H14C14.2761 13.0007 14.5 13.2246 14.5 13.5007C14.5 13.7769 14.2761 14.0007 14 14.0007H4.5C3.83696 14.0007 3.20107 13.7373 2.73223 13.2685C2.26339 12.7996 2 12.1638 2 11.5007V6.23872C2.00006 5.79331 2.11912 5.356 2.34486 4.97203C2.5706 4.58806 2.89483 4.27137 3.284 4.05472L6.784 2.10472C7.15586 1.89771 7.57441 1.78906 8 1.78906C8.42559 1.78906 8.84414 1.89871 9.216 2.10572ZM14 11.0007C14.2761 11.0007 14.5 11.2246 14.5 11.5007C14.5 11.7769 14.2761 12.0007 14 12.0007H12.5C12.2239 12.0007 12 11.7769 12 11.5007C12 11.2246 12.2239 11.0007 12.5 11.0007H14ZM10 8.00072C10.2761 8.00072 10.5037 8.22572 10.4644 8.49905C10.3573 9.24307 10.0126 9.93782 9.47487 10.4756C8.9371 11.0134 8.24235 11.3581 7.49833 11.4651C7.225 11.5044 7 11.2769 7 11.0007C7 10.7246 7.22605 10.5058 7.49669 10.4509C7.97468 10.354 8.41777 10.1185 8.76777 9.76849C9.11777 9.41849 9.35327 8.9754 9.45017 8.49741C9.50504 8.22677 9.72386 8.00072 10 8.00072ZM13.5 9.00072C13.7761 9.00072 14 9.22458 14 9.50072C14 9.77686 13.7761 10.0007 13.5 10.0007H12.5C12.2239 10.0007 12 9.77686 12 9.50072C12 9.22458 12.2239 9.00072 12.5 9.00072H13.5ZM5.125 6.00072C5.47018 6.00072 5.75 6.28054 5.75 6.62572V7.87572C5.75 8.2209 5.47018 8.50072 5.125 8.50072C4.77982 8.50072 4.5 8.2209 4.5 7.87572V6.62572C4.5 6.28054 4.77982 6.00072 5.125 6.00072ZM8.125 6.00072C8.47018 6.00072 8.75 6.28054 8.75 6.62572V7.87572C8.75 8.2209 8.47018 8.50072 8.125 8.50072C7.77982 8.50072 7.5 8.2209 7.5 7.87572V6.62572C7.5 6.28054 7.77982 6.00072 8.125 6.00072Z" fill="currentColor"/>
</svg>
