<svg width="16" height="16" viewBox="0 0 16 16" fill="none" xmlns="http://www.w3.org/2000/svg">
<g clip-path="url(#clip0_339_1453)">
<path d="M14.1673 8.00016C14.1673 4.59441 11.4064 1.8335 8.00065 1.8335C4.59489 1.8335 1.83398 4.59441 1.83398 8.00016C1.83398 11.4059 4.59489 14.1668 8.00065 14.1668C11.4064 14.1668 14.1673 11.4059 14.1673 8.00016ZM15.1673 8.00016C15.1673 11.9582 11.9587 15.1668 8.00065 15.1668C4.04261 15.1668 0.833984 11.9582 0.833984 8.00016C0.833984 4.04212 4.04261 0.833496 8.00065 0.833496C11.9587 0.833496 15.1673 4.04212 15.1673 8.00016Z" fill="currentColor"/>
<path d="M7.50065 8.00016V5.3335C7.50065 5.05735 7.72451 4.8335 8.00065 4.8335C8.27679 4.8335 8.50065 5.05735 8.50065 5.3335V8.00016C8.50065 8.2763 8.27679 8.50016 8.00065 8.50016C7.72451 8.50016 7.50065 8.2763 7.50065 8.00016Z" fill="currentColor"/>
<path d="M8.00716 10.1668C8.2833 10.1668 8.50716 10.3907 8.50716 10.6668C8.50716 10.943 8.2833 11.1668 8.00716 11.1668H8.00065C7.72451 11.1668 7.50065 10.943 7.50065 10.6668C7.50065 10.3907 7.72451 10.1668 8.00065 10.1668H8.00716Z" fill="currentColor"/>
</g>
<defs>
<clipPath id="clip0_339_1453">
<rect width="16" height="16" fill="white"/>
</clipPath>
</defs>
</svg>

