<svg width="16" height="16" viewBox="0 0 16 16" fill="none" xmlns="http://www.w3.org/2000/svg">
<path d="M8.46682 2.55556C8.81046 2.55556 9.08904 2.83413 9.08904 3.17778C9.08904 3.52142 8.81046 3.8 8.46682 3.8H4.73349C3.90837 3.8 3.11704 4.12778 2.5336 4.71122C1.95015 5.29467 1.62237 6.08599 1.62237 6.91111V10.6444C1.62237 11.053 1.70285 11.4576 1.85919 11.835C2.01554 12.2125 2.2447 12.5554 2.5336 12.8443C3.11704 13.4278 3.90837 13.7556 4.73349 13.7556H10.9557C11.3643 13.7556 11.7688 13.6751 12.1463 13.5187C12.5237 13.3624 12.8667 13.1332 13.1556 12.8443C13.4445 12.5554 13.6737 12.2125 13.83 11.835C13.9863 11.4576 14.0668 11.053 14.0668 10.6444V7.53333C14.0668 7.18969 14.3454 6.91111 14.689 6.91111C15.0327 6.91111 15.3113 7.18969 15.3113 7.53333V10.6444C15.3113 11.7996 14.8524 12.9075 14.0356 13.7243C13.2187 14.5411 12.1109 15 10.9557 15H4.73349C3.57832 15 2.47047 14.5411 1.65364 13.7243C0.836817 12.9075 0.37793 11.7996 0.37793 10.6444V6.91111C0.37793 5.75595 0.836817 4.64809 1.65364 3.83127C2.47047 3.01444 3.57832 2.55556 4.73349 2.55556H8.46682ZM10.1717 7.12764C10.3612 6.93678 10.6697 6.93622 10.8599 7.1264L10.9563 7.22285C11.1992 7.46575 11.1991 7.85961 10.956 8.10233L10.5662 8.49156L10.321 8.73671L10.28 8.77778L10.9553 9.45239C11.1988 9.69558 11.1989 10.0901 10.9556 10.3335C10.7124 10.5767 10.318 10.5767 10.0748 10.3335L8.95962 9.21831C8.90167 9.16051 8.8557 9.09185 8.82433 9.01625C8.79296 8.94066 8.77682 8.85962 8.77682 8.77778C8.77682 8.69593 8.79296 8.61489 8.82433 8.5393C8.8557 8.46371 8.90167 8.39504 8.95962 8.33724L9.29562 8.00124L9.68637 7.61173L10.097 7.19982L10.1717 7.12764ZM5.51126 6.91111C5.94082 6.91111 6.28904 7.25933 6.28904 7.68889V9.86666C6.28904 10.2962 5.94082 10.6444 5.51126 10.6444C5.08171 10.6444 4.73349 10.2962 4.73349 9.86667V7.68889C4.73349 7.25933 5.08171 6.91111 5.51126 6.91111ZM13.1235 1.23271C13.2816 1.83876 13.5479 2.32533 13.9225 2.70116C14.2958 3.07449 14.7836 3.3408 15.3909 3.49884C15.6995 3.57973 15.6995 4.02027 15.3909 4.10116C14.7836 4.2592 14.2958 4.52551 13.9225 4.90009C13.5491 5.27342 13.2816 5.76124 13.1235 6.36853C13.0426 6.67716 12.6021 6.67716 12.5212 6.36853C12.3632 5.76124 12.0969 5.27342 11.7223 4.90009C11.349 4.52676 10.8611 4.2592 10.2538 4.10116C9.94522 4.02027 9.94522 3.57973 10.2538 3.49884C10.8611 3.3408 11.349 3.07449 11.7223 2.69991C12.0956 2.32658 12.3632 1.83876 12.5212 1.23147C12.6021 0.922844 13.0426 0.922844 13.1235 1.23147V1.23271Z" fill="currentColor"/>
</svg>
