<svg width="16" height="16" viewBox="0 0 16 16" fill="none" xmlns="http://www.w3.org/2000/svg">
<path d="M11.8354 2.58621C12.4881 2.58621 13.114 2.84548 13.5755 3.30697C14.037 3.76846 14.2962 4.39438 14.2962 5.04703V8.24609C14.2962 8.5179 14.0759 8.73825 13.8041 8.73825C13.5323 8.73825 13.3119 8.5179 13.3119 8.24609V5.04703C13.3119 4.65544 13.1564 4.27989 12.8795 4.00299C12.6026 3.7261 12.227 3.57054 11.8354 3.57054H3.96082C3.56923 3.57054 3.19368 3.7261 2.91678 4.00299C2.63988 4.27989 2.48433 4.65544 2.48433 5.04703V10.953C2.48433 11.3446 2.63988 11.7201 2.91678 11.997C3.19368 12.2739 3.56923 12.4295 3.96082 12.4295H10.605C10.8768 12.4295 11.0972 12.6498 11.0972 12.9216C11.0972 13.1935 10.8768 13.4138 10.605 13.4138H3.96082C3.30817 13.4138 2.68225 13.1545 2.22076 12.693C1.75926 12.2316 1.5 11.6056 1.5 10.953V5.04703C1.5 4.39438 1.75926 3.76846 2.22076 3.30697C2.68225 2.84548 3.30817 2.58621 3.96082 2.58621H11.8354ZM12.3277 9.96858C12.5201 9.77618 12.832 9.77618 13.0244 9.96858L14.1525 11.0967C14.3445 11.2892 14.3443 11.6009 14.1521 11.7932L13.0244 12.9216C12.832 13.114 12.52 13.1141 12.3276 12.9217C12.1352 12.7292 12.1353 12.4172 12.3278 12.2249L13.1082 11.4452L12.3278 10.6655C12.1353 10.4731 12.1352 10.161 12.3277 9.96858ZM5.92947 5.04703C6.35223 5.04714 6.76373 5.18335 7.10307 5.43549C7.44241 5.68764 7.69157 6.04232 7.81368 6.44707C7.93579 6.85181 7.92436 7.28512 7.78108 7.68286C7.63781 8.08061 7.3703 8.42167 7.01813 8.65557C7.44352 8.78759 7.84049 9.00048 8.20742 9.29263C8.41982 9.46174 8.4181 9.77592 8.22639 9.96817C8.0343 10.1608 7.72499 10.1565 7.50618 9.99483C7.03476 9.64656 6.5135 9.4765 5.92947 9.4765C5.34661 9.4765 4.82627 9.64648 4.3556 9.99313C4.13499 10.1556 3.82358 10.16 3.62998 9.9661C3.4384 9.77424 3.43451 9.4611 3.64693 9.29261C4.00204 9.01093 4.40588 8.7944 4.83982 8.65458C4.48803 8.42047 4.22091 8.07938 4.07794 7.68173C3.93498 7.28407 3.92376 6.85098 4.04594 6.44646C4.16812 6.04194 4.41723 5.68747 4.75642 5.43545C5.09562 5.18344 5.5069 5.04725 5.92947 5.04703ZM10.3589 8.00001C10.6308 8.00001 10.8511 8.22036 10.8511 8.49217C10.8511 8.76399 10.6308 8.98433 10.3589 8.98433H9.37461C9.1028 8.98433 8.88245 8.76399 8.88245 8.49217C8.88245 8.22036 9.1028 8.00001 9.37461 8.00001H10.3589ZM5.92947 6.03135C5.66841 6.03135 5.41804 6.13506 5.23345 6.31966C5.04885 6.50425 4.94514 6.75462 4.94514 7.01568C4.94514 7.27674 5.04885 7.52711 5.23345 7.71171C5.41804 7.8963 5.66841 8.00001 5.92947 8.00001C6.19053 8.00001 6.4409 7.8963 6.62549 7.71171C6.81009 7.52711 6.9138 7.27674 6.9138 7.01568C6.9138 6.75462 6.81009 6.50425 6.62549 6.31966C6.4409 6.13506 6.19053 6.03135 5.92947 6.03135ZM11.3433 6.03135C11.6151 6.03135 11.8354 6.2517 11.8354 6.52352C11.8354 6.79533 11.6151 7.01568 11.3433 7.01568H9.37461C9.1028 7.01568 8.88245 6.79533 8.88245 6.52352C8.88245 6.2517 9.1028 6.03135 9.37461 6.03135H11.3433Z" fill="currentColor"/>
</svg>
