<svg width="16" height="16" viewBox="0 0 16 16" fill="none" xmlns="http://www.w3.org/2000/svg">
<path d="M7.7015 2.12434C7.8937 2.01876 8.125 2.05284 8.2787 2.19257C8.3117 2.20468 8.3437 2.21948 8.3744 2.23684L8.3842 2.24249L12.5552 4.30445C12.8036 4.11355 13.1145 4.00009 13.4519 4.00009C14.2653 4.00009 14.9247 4.65946 14.9247 5.47285C14.9247 6.12193 14.5048 6.67293 13.9218 6.86903V10.0247C13.9218 10.0757 13.9141 10.1251 13.8999 10.1715C13.8599 10.3251 13.7611 10.4658 13.6035 10.5549L13.5933 10.5605L9.38296 12.4825C9.3777 13.2915 8.7204 13.9456 7.9103 13.9456C7.0969 13.9456 6.4375 13.2862 6.4375 12.4728C6.4375 12.4644 6.4376 12.456 6.4377 12.4475L2.8936 10.5597C2.5975 10.402 2.5001 10.0661 2.6006 9.79093V6.83553C2.0648 6.61525 1.6875 6.08812 1.6875 5.47285C1.6875 4.65946 2.3469 4.00009 3.1603 4.00009C3.4347 4.00009 3.6917 4.07521 3.9117 4.20598L7.7015 2.12434ZM3.996 10.0139L6.7986 11.5068C7.0686 11.1963 7.4665 11.0001 7.9103 11.0001C8.365 11.0001 8.7715 11.2062 9.0417 11.53L11.8316 10.0169L7.9474 8.64813L3.996 10.0139ZM8.4422 7.11173L12.2551 9.10983V7.18063C11.7037 6.96777 11.3125 6.43267 11.3125 5.47285C11.3125 5.36089 11.325 5.25184 11.3487 5.14703L8.4422 3.43690V7.11173ZM4.5535 4.99435C4.6050 5.14439 4.6330 5.30535 4.6330 5.47285C4.633 6.13282 4.1989 6.69140 3.6006 6.87860V9.09280L7.4422 7.11673V3.40768L4.5535 4.99435Z" fill="currentColor"/>
</svg>
