<svg width="24" height="24" viewBox="0 0 24 24" fill="none" xmlns="http://www.w3.org/2000/svg">
<path d="M11.5522 3.18651C11.8406 3.02814 12.1875 3.07926 12.418 3.28886C12.4676 3.30702 12.5156 3.32922 12.5616 3.35526L12.5763 3.36374L17.8328 6.45667C18.2054 6.17033 18.6717 6.00013 19.1779 6.00013C20.398 6.00013 21.387 6.98919 21.387 8.20928C21.387 9.1829 20.7572 10.0094 19.8827 10.3035V15.037C19.8827 15.1136 19.8711 15.1876 19.8498 15.2572C19.7898 15.4877 19.6417 15.6987 19.4052 15.8323L19.3899 15.8408L14.0744 18.7238C14.0666 19.9372 13.0806 20.9184 11.8654 20.9184C10.6453 20.9184 9.65625 19.9293 9.65625 18.7093C9.65625 18.6966 9.65639 18.6839 9.6566 18.6713L4.34044 15.8396C3.89618 15.603 3.75056 15.0991 3.90096 14.6864V10.2533C3.0972 9.92287 2.53125 9.13218 2.53125 8.20928C2.53125 6.98919 3.52031 6.00013 4.7404 6.00013C5.15212 6.00013 5.53753 6.11282 5.86753 6.30897L11.5522 3.18651ZM5.99405 15.0209L10.1979 17.2602C10.6029 16.7945 11.1998 16.5001 11.8654 16.5001C12.5475 16.5001 13.1573 16.8093 13.5625 17.295L17.7474 15.0253L11.9211 11.9722L5.99405 15.0209ZM12.6633 10.6676L18.3827 13.6647V10.2709C17.5555 9.95165 16.9687 9.14901 16.9687 8.20928C16.9687 8.04133 16.9875 7.87776 17.023 7.72054L12.6633 5.15535V10.6676ZM6.83027 7.49153C6.90755 7.71658 6.94952 7.95803 6.94952 8.20928C6.9495 9.19923 6.29834 10.0371 5.40096 10.3179V13.6392L11.1633 10.6751V5.11152L6.83027 7.49153Z" fill="#262626"/>
</svg>
