<svg width="16" height="16" viewBox="0 0 24 24" fill="none" xmlns="http://www.w3.org/2000/svg">
<path d="M12.0674 2.25C14.3714 2.25024 16.601 3.06617 18.3609 4.5532C19.9287 5.87783 21.0336 7.65878 21.5282 9.63772C21.6289 10.0406 21.3499 10.4296 20.9403 10.4982C20.5327 10.5664 20.15 10.2911 20.0433 9.89188C19.5781 8.15172 18.5538 6.60404 17.1179 5.49404C15.4841 4.23109 13.4362 3.6265 11.3785 3.79961C9.32076 3.97272 7.40269 4.91095 6.00289 6.4291C4.60309 7.94725 3.82328 9.93501 3.81738 12C3.81738 14.188 4.68658 16.2865 6.23375 17.8336C7.60338 19.2033 9.405 20.0416 11.3184 20.216C11.7309 20.2535 12.0674 20.5858 12.0674 21C12.0674 21.4142 11.7311 21.753 11.3181 21.7212C9.00635 21.5431 6.82414 20.5453 5.17309 18.8943C3.34461 17.0658 2.31738 14.5859 2.31738 12C2.31738 9.41414 3.34461 6.93419 5.17309 5.10571C7.00157 3.27723 9.48152 2.25 12.0674 2.25ZM12.0674 6C12.4816 6 12.8174 6.33579 12.8174 6.75V12.4245L12.4529 12.6435L12.2759 12.75L12.1664 12.8145L9.34653 14.5084C8.99118 14.7218 8.53005 14.6065 8.31702 14.2509C8.10427 13.8958 8.21953 13.4354 8.57451 13.2224L10.9619 11.79L11.1044 11.7045L11.2844 11.5965L11.3174 11.5755V6.75C11.3174 6.33579 11.6532 6 12.0674 6Z" fill="currentColor"/>
<path d="M18.9506 15.4833C18.3486 14.8792 17.9206 14.0972 17.6666 13.123C17.5366 12.627 16.8286 12.625 16.6986 13.121C16.4446 14.0972 16.0146 14.8812 15.4146 15.4813C14.8146 16.0834 14.0306 16.5114 13.0546 16.7654C12.5586 16.8955 12.5586 17.6035 13.0546 17.7336C14.0306 17.9876 14.8146 18.4176 15.4146 19.0177C16.0166 19.6178 16.4446 20.4019 16.6986 21.378C16.8286 21.874 17.5366 21.874 17.6666 21.378C17.9206 20.4019 18.3506 19.6178 18.9506 19.0177C19.5506 18.4156 20.3346 17.9876 21.3106 17.7336C21.8066 17.6035 21.8066 16.8955 21.3106 16.7654C20.3346 16.5114 19.5506 16.0834 18.9506 15.4833Z" fill="currentColor"/>
</svg>
