<svg width="29" height="29" viewBox="0 0 29 29" fill="none" xmlns="http://www.w3.org/2000/svg">
<g clip-path="url(#clip0_363_2407)">
<path d="M0.926758 3.67743C1.18491 1.53955 3.23381 0.0050234 5.42285 0.556337L5.64258 0.61786L6.07227 0.759462C6.72381 0.984514 7.53285 1.31563 8.29688 1.7829C10.1487 0.951387 12.2199 0.486024 14.3994 0.486024C16.578 0.486092 18.6481 0.951081 20.499 1.78192C21.4432 1.20491 22.4569 0.83764 23.1543 0.61786L23.374 0.556337C25.5631 0.00502355 27.612 1.53955 27.8701 3.67743L27.8906 3.89325L27.9229 4.53778C27.9485 5.21718 27.9492 5.9903 27.8896 6.75849C27.8405 7.39195 27.7398 8.13577 27.5254 8.862C27.4413 8.65981 27.3531 8.45946 27.2588 8.26239L27.0986 7.93915L27.1572 8.06122C27.4276 8.67803 27.3973 9.3814 27.0859 9.96942C27.272 9.61804 27.4132 9.24199 27.5254 8.862C28.1356 10.3296 28.4736 11.9278 28.4736 13.5993C28.4734 21.0213 21.9847 26.7114 14.3994 26.7116C13.3735 26.7116 12.3716 26.6081 11.4053 26.4128L12.2158 25.8415C11.6735 26.2242 10.9911 26.3387 10.3594 26.1628C10.7028 26.2584 11.0518 26.3413 11.4053 26.4128L9.47559 27.7751C7.42757 29.2196 4.59961 27.7567 4.59961 25.2477V23.0134C4.8758 23.263 5.16258 23.502 5.45898 23.7292C4.92215 23.3174 4.59965 22.6756 4.59961 21.986V23.0134C1.99226 20.6566 0.32432 17.3299 0.324219 13.5993C0.324256 11.9285 0.661601 10.3305 1.27148 8.86298C1.36334 9.17399 1.47308 9.48294 1.61328 9.77704L1.71094 9.97138L1.65234 9.85224C1.37827 9.24959 1.3876 8.54482 1.69824 7.94013C1.54359 8.24117 1.40179 8.54943 1.27148 8.86298C1.05693 8.13644 0.956332 7.39203 0.907227 6.75849C0.82787 5.73415 0.855503 4.70154 0.90625 3.89325L0.926758 3.67743ZM25.6016 4.03681C25.5448 3.13665 24.7041 2.53433 23.8438 2.80536C22.8121 3.13045 21.5336 3.66095 20.8086 4.43134L20.7812 4.45184C20.752 4.46703 20.7163 4.46717 20.6865 4.44989C18.867 3.39304 16.7115 2.77906 14.3994 2.77899C12.0863 2.77899 9.92949 3.39324 8.10938 4.45087L8.07812 4.46259C8.04567 4.46861 8.01097 4.45748 7.9873 4.43231C7.26239 3.66185 5.98476 3.13046 4.95312 2.80536C4.0928 2.53433 3.25209 3.13665 3.19531 4.03681C3.10105 5.53807 3.10362 7.70155 3.7373 8.89716C3.7523 8.92553 3.75282 8.95939 3.73828 8.98798L3.60742 9.25263C2.97119 10.5829 2.61723 12.0533 2.61719 13.5993C2.61728 16.9387 4.26536 19.9242 6.85449 21.9089C6.87828 21.9271 6.8925 21.9561 6.89258 21.986V23.9831L6.83691 24.0231C6.85529 24.0103 6.87396 23.9979 6.89258 23.986V25.2477C6.89258 25.8963 7.62338 26.2748 8.15332 25.9011L9.18262 25.1735C9.18376 25.198 9.18553 25.2228 9.18555 25.2477V25.1725L10.8936 23.9675C10.9171 23.951 10.9469 23.9461 10.9746 23.9538C12.0583 24.2557 13.2083 24.4186 14.3994 24.4186C20.906 24.4184 26.1805 19.5748 26.1807 13.5993C26.1806 11.9496 25.7776 10.3861 25.0586 8.987C25.0513 8.97263 25.0477 8.95669 25.0479 8.9411L25.0596 8.89618C25.6929 7.70043 25.6958 5.53776 25.6016 4.03681ZM20.499 1.78192C20.0093 2.08118 19.5374 2.43578 19.1396 2.85809C19.8205 2.13641 20.9344 1.94116 21.8389 2.46649C21.4074 2.21587 20.9594 1.98859 20.499 1.78192ZM8.29688 1.7829C7.83768 1.98909 7.39135 2.21655 6.96094 2.46649C7.85743 1.94786 8.95723 2.13594 9.63867 2.84247C9.24449 2.42779 8.77968 2.07819 8.29688 1.7829Z" fill="currentColor"/>
<path fill-rule="evenodd" clip-rule="evenodd" d="M16.4588 15.1045C16.8333 15.1045 17.1369 15.4081 17.1369 15.7826C17.1369 16.7109 16.4667 17.2516 15.9201 17.513C15.3612 17.7802 14.7027 17.8854 14.169 17.8854C13.6354 17.8854 12.9769 17.7802 12.4179 17.513C11.8714 17.2516 11.2012 16.7109 11.2012 15.7826C11.2012 15.4081 11.5048 15.1045 11.8793 15.1045L12.2998 15.1045C12.6662 15.1045 12.9625 15.4027 12.9601 15.7691C13.0226 15.8468 13.0493 15.8604 13.1786 15.9222C13.4443 16.0493 13.829 16.1222 14.169 16.1222C14.5091 16.1222 14.8937 16.0493 15.1594 15.9222C15.2888 15.8604 15.3563 15.7954 15.3779 15.7691C15.3755 15.4027 15.6719 15.1045 16.0382 15.1045L16.4588 15.1045Z" fill="currentColor"/>
<circle cx="9.06408" cy="12.5582" r="1.56017" fill="currentColor"/>
<circle cx="19.275" cy="12.5582" r="1.56017" fill="currentColor"/>
</g>
<defs>
<clipPath id="clip0_363_2407">
<rect width="28.8" height="28.8" fill="white"/>
</clipPath>
</defs>
</svg>
