<svg width="14" height="14" viewBox="0 0 14 14" fill="none" xmlns="http://www.w3.org/2000/svg">
  <path
    d="M2.33333 1.16667C2.33333 0.522334 2.85567 0 3.5 0H8.16667L11.6667 3.5V12.8333C11.6667 13.4777 11.1443 14 10.5 14H3.5C2.85567 14 2.33333 13.4777 2.33333 12.8333V1.16667Z"
    fill="currentColor"
    opacity="0.35"
  />
  <path
    d="M8.16667 0L11.6667 3.5H9.33333C8.689 3.5 8.16667 2.97767 8.16667 2.33333V0Z"
    fill="currentColor"
    opacity="0.2"
  />
  <path
    d="M4.08333 7.58333H4.95833C5.28067 7.58333 5.54167 7.84433 5.54167 8.16667C5.54167 8.489 5.28067 8.75 4.95833 8.75H4.66667V9.33333C4.66667 9.65567 4.40567 9.91667 4.08333 9.91667C3.761 9.91667 3.5 9.65567 3.5 9.33333V8.16667C3.5 7.84433 3.761 7.58333 4.08333 7.58333Z"
    fill="currentColor"
  />
  <path
    d="M6.41667 7.58333C6.09433 7.58333 5.83333 7.84433 5.83333 8.16667V9.33333C5.83333 9.65567 6.09433 9.91667 6.41667 9.91667H7C7.64433 9.91667 8.16667 9.39433 8.16667 8.75C8.16667 8.10567 7.64433 7.58333 7 7.58333H6.41667ZM7 8.75H7V8.75067L7 8.75Z"
    fill="currentColor"
  />
  <path
    d="M8.75 7.58333C8.42767 7.58333 8.16667 7.84433 8.16667 8.16667V9.33333C8.16667 9.65567 8.42767 9.91667 8.75 9.91667C9.07233 9.91667 9.33333 9.65567 9.33333 9.33333V9.04167H9.625C9.94733 9.04167 10.2083 8.78067 10.2083 8.45833C10.2083 8.136 9.94733 7.875 9.625 7.875H9.33333V8.16667C9.33333 7.84433 9.07233 7.58333 8.75 7.58333Z"
    fill="currentColor"
  />
</svg>
