<svg width="14" height="14" viewBox="0 0 14 14" fill="none" xmlns="http://www.w3.org/2000/svg">
  <path d="M2.33333 1.16667C2.33333 0.522334 2.85567 0 3.5 0H8.16667L11.6667 3.5V12.8333C11.6667 13.4777 11.1443 14 10.5 14H3.5C2.85567 14 2.33333 13.4777 2.33333 12.8333V1.16667Z" fill="currentColor" fill-opacity="0.15"/>
  <path d="M8.16667 0L11.6667 3.5H9.33333C8.689 3.5 8.16667 2.97767 8.16667 2.33333V0Z" fill="currentColor" fill-opacity="0.3"/>
  <path d="M2.33333 1.16667C2.33333 0.522334 2.85567 0 3.5 0H8.16667L11.6667 3.5V12.8333C11.6667 13.4777 11.1443 14 10.5 14H3.5C2.85567 14 2.33333 13.4777 2.33333 12.8333V1.16667Z" stroke="currentColor" stroke-opacity="0.5" stroke-width="0.8"/>
  <text x="7" y="10.5" text-anchor="middle" font-size="4" font-weight="600" fill="currentColor" fill-opacity="0.7">XLS</text>
</svg>
