<svg width="150" height="86" viewBox="0 0 150 86" fill="none" xmlns="http://www.w3.org/2000/svg">
<path d="M95.8313 65.3236H59.5313C54.9938 65.3236 51.2812 61.5682 51.2812 56.9783V22.3453C51.2812 17.7554 54.9938 14 59.5313 14H91.7063C98.5125 14 104.081 19.6331 104.081 26.5179V56.7697C104.081 61.5682 100.369 65.3236 95.8313 65.3236Z" fill="#CDD5E3"/>
<path d="M91.4992 69.7048H55.1992C50.6617 69.7048 46.9492 65.9494 46.9492 61.3595V26.9351C46.9492 22.3452 50.6617 18.5898 55.1992 18.5898H91.4992C96.0367 18.5898 99.7492 22.3452 99.7492 26.9351V61.3595C99.7492 65.9494 96.0367 69.7048 91.4992 69.7048Z" fill="#E7ECF5"/>
<path d="M99.75 72.0003H50.25C45.7125 72.0003 42 68.2449 42 63.655V31.317C42 26.7271 45.7125 22.9717 50.25 22.9717H70.875C73.35 22.9717 75.6188 24.4321 76.8563 26.7271L78.5063 29.2307C79.7438 30.8997 81.8063 31.9429 83.8688 31.9429H99.75C104.288 31.9429 108 35.6983 108 40.2882V63.655C108 68.2449 104.288 72.0003 99.75 72.0003Z" fill="#A6B1C4"/>
</svg>
