<svg width="16" height="16" viewBox="0 0 16 16" fill="none" xmlns="http://www.w3.org/2000/svg">
<path d="M12.461 7.237C12.8646 7.57532 13.1721 8.01398 13.3524 8.50884C13.5326 9.0037 13.5794 9.53732 13.488 10.056L14.508 10.912C14.8127 11.1678 15.0034 11.5342 15.038 11.9305C15.0726 12.3269 14.9483 12.7208 14.6925 13.0255C14.4367 13.3302 14.0703 13.5209 13.674 13.5555C13.2776 13.5901 12.8837 13.4658 12.579 13.21L11.559 12.354C10.9687 12.5692 10.3257 12.5936 9.72071 12.4238C9.11576 12.254 8.57939 11.8985 8.18729 11.4075C7.79519 10.9166 7.56715 10.3149 7.53534 9.68732C7.50353 9.05979 7.66956 8.43811 8.01 7.91L9.296 8.988L9.778 8.413L8.494 7.335C9.03002 6.83855 9.72879 6.55478 10.4592 6.53692C11.1896 6.51906 11.9014 6.76735 12.461 7.237ZM12 2.5C12.663 2.5 13.2989 2.76339 13.7678 3.23223C14.2366 3.70107 14.5 4.33696 14.5 5V6.5C14.5 6.77614 14.2761 7 14 7C13.7239 7 13.5 6.77614 13.5 6.5V5C13.5 4.60218 13.342 4.22064 13.0607 3.93934C12.7794 3.65804 12.3978 3.5 12 3.5H4C3.60218 3.5 3.22064 3.65804 2.93934 3.93934C2.65804 4.22064 2.5 4.60218 2.5 5V11C2.5 11.3978 2.65804 11.7794 2.93934 12.0607C3.22064 12.342 3.60218 12.5 4 12.5H7.5C7.77614 12.5 8 12.7239 8 13C8 13.2761 7.77614 13.5 7.5 13.5H4C3.33696 13.5 2.70107 13.2366 2.23223 12.7678C1.76339 12.2989 1.5 11.663 1.5 11V5C1.5 4.33696 1.76339 3.70107 2.23223 3.23223C2.70107 2.76339 3.33696 2.5 4 2.5H12ZM10.406 7.539L10.304 7.549L11.187 8.289L9.42 10.395L8.537 9.655L8.545 9.757C8.595 10.202 8.794 10.63 9.13 10.961L9.247 11.067C9.801 11.532 10.551 11.657 11.218 11.414L11.761 11.217L13.222 12.444C13.2723 12.4862 13.3304 12.5181 13.393 12.5379C13.4557 12.5576 13.5216 12.5649 13.587 12.5592C13.6524 12.5534 13.7161 12.5349 13.7743 12.5046C13.8326 12.4743 13.8843 12.4328 13.9265 12.3825C13.9687 12.3322 14.0006 12.2741 14.0204 12.2115C14.0401 12.1488 14.0474 12.0829 14.0417 12.0175C14.0359 11.9521 14.0174 11.8884 13.9871 11.8302C13.9568 11.7719 13.9153 11.7202 13.865 11.678L12.845 10.821L12.404 10.451L12.503 9.883C12.5559 9.58471 12.5403 9.2783 12.4575 8.98692C12.3746 8.69553 12.2265 8.4268 12.0245 8.20102C11.8226 7.97524 11.5719 7.79833 11.2915 7.68364C11.0111 7.56895 10.7083 7.51949 10.406 7.539ZM4.25 4.5C4.44891 4.5 4.63968 4.57902 4.78033 4.71967C4.92098 4.86032 5 5.05109 5 5.25C5 5.44891 4.92098 5.63968 4.78033 5.78033C4.63968 5.92098 4.44891 6 4.25 6C4.05109 6 3.86032 5.92098 3.71967 5.78033C3.57902 5.63968 3.5 5.44891 3.5 5.25C3.5 5.05109 3.57902 4.86032 3.71967 4.71967C3.86032 4.57902 4.05109 4.5 4.25 4.5ZM6.25 4.5C6.44891 4.5 6.63968 4.57902 6.78033 4.71967C6.92098 4.86032 7 5.05109 7 5.25C7 5.44891 6.92098 5.63968 6.78033 5.78033C6.63968 5.92098 6.44891 6 6.25 6C6.05109 6 5.86032 5.92098 5.71967 5.78033C5.57902 5.63968 5.5 5.44891 5.5 5.25C5.5 5.05109 5.57902 4.86032 5.71967 4.71967C5.86032 4.57902 6.05109 4.5 6.25 4.5ZM8.25 4.5C8.44891 4.5 8.63968 4.57902 8.78033 4.71967C8.92098 4.86032 9 5.05109 9 5.25C9 5.44891 8.92098 5.63968 8.78033 5.78033C8.63968 5.92098 8.44891 6 8.25 6C8.05109 6 7.86032 5.92098 7.71967 5.78033C7.57902 5.63968 7.5 5.44891 7.5 5.25C7.5 5.05109 7.57902 4.86032 7.71967 4.71967C7.86032 4.57902 8.05109 4.5 8.25 4.5Z" fill="currentColor"/>
</svg>
