<svg width="16" height="16" viewBox="0 0 16 16" fill="none" xmlns="http://www.w3.org/2000/svg">
<path d="M15 1.7C15 2.0866 14.6866 2.4 14.3 2.4H4.11111C3.90683 2.4 3.70455 2.43621 3.51583 2.50657C3.3271 2.57693 3.15561 2.68005 3.01117 2.81005C2.86672 2.94005 2.75214 3.09439 2.67397 3.26424C2.59579 3.4341 2.55556 3.61615 2.55556 3.8C2.55556 3.98385 2.59579 4.1659 2.67397 4.33576C2.75214 4.50561 2.86672 4.65995 3.01117 4.78995C3.15561 4.91995 3.3271 5.02307 3.51583 5.09343C3.70455 5.16379 3.90683 5.2 4.11111 5.2H13.1333C14.1643 5.2 15 6.03573 15 7.06667V14.3C15 14.4857 14.9181 14.6637 14.7722 14.795C14.6263 14.9262 14.4285 15 14.2222 15H4.11111C3.28599 15 2.49467 14.705 1.91122 14.1799C1.32778 13.6548 1 12.9426 1 12.2V3.8C1 3.05739 1.32778 2.3452 1.91122 1.8201C2.49467 1.295 3.28599 1 4.11111 1H14.2222C14.4285 1 14.6263 1.07375 14.7722 1.20503C14.9181 1.3363 15 1.51435 15 1.7ZM2.55556 12.2C2.55556 12.3839 2.59579 12.5659 2.67397 12.7358C2.75214 12.9056 2.86672 13.0599 3.01117 13.1899C3.15561 13.32 3.3271 13.4231 3.51583 13.4934C3.70455 13.5638 3.90683 13.6 4.11111 13.6H13.4444V6.6H4.11111C3.56497 6.60079 3.02832 6.47159 2.55556 6.2255V12.2ZM14.2222 3.8C14.2222 4.1866 13.9088 4.5 13.5222 4.5H4.11111C3.90483 4.5 3.707 4.42625 3.56114 4.29497C3.41528 4.1637 3.33333 3.98565 3.33333 3.8C3.33333 3.61435 3.41528 3.4363 3.56114 3.30502C3.707 3.17375 3.90483 3.1 4.11111 3.1H13.5222C13.9088 3.1 14.2222 3.4134 14.2222 3.8Z" fill="currentColor"/>
</svg>
