<svg width="16" height="16" viewBox="0 0 16 16" fill="none" xmlns="http://www.w3.org/2000/svg">
<path d="M6.09525 14.4081C4.97822 14.0755 3.98392 13.4581 3.19661 12.64C3.49032 12.2919 3.66732 11.8421 3.66732 11.351C3.66732 10.2465 2.77189 9.35103 1.66732 9.35103C1.6005 9.35103 1.53445 9.35433 1.46931 9.36073C1.38058 8.92689 1.33398 8.47776 1.33398 8.01769C1.33398 7.32083 1.44091 6.64893 1.63925 6.01749C1.64859 6.01763 1.65794 6.01769 1.66732 6.01769C2.77189 6.01769 3.66732 5.12226 3.66732 4.01769C3.66732 3.70059 3.59352 3.40076 3.46218 3.13436C4.23315 2.41749 5.17415 1.881 6.21802 1.59204C6.54878 2.24039 7.22288 2.68437 8.00065 2.68437C8.77842 2.68437 9.45252 2.24039 9.78328 1.59204C10.8272 1.881 11.7682 2.41749 12.5391 3.13436C12.4078 3.40076 12.334 3.70059 12.334 4.01769C12.334 5.12226 13.2294 6.01769 14.334 6.01769C14.3434 6.01769 14.3527 6.01763 14.3621 6.01749C14.5604 6.64893 14.6673 7.32083 14.6673 8.01769C14.6673 8.47776 14.6207 8.92689 14.532 9.36073C14.4669 9.35433 14.4008 9.35103 14.334 9.35103C13.2294 9.35103 12.334 10.2465 12.334 11.351C12.334 11.8421 12.511 12.2919 12.8047 12.64C12.0174 13.4581 11.0231 14.0755 9.90605 14.4081C9.64825 13.6017 8.89265 13.0177 8.00065 13.0177C7.10865 13.0177 6.35305 13.6017 6.09525 14.4081Z" stroke="currentColor" stroke-width="1.3" stroke-linejoin="round"/>
<path d="M8.0013 10.351C9.28997 10.351 10.3346 9.30633 10.3346 8.01766C10.3346 6.72899 9.28997 5.68433 8.0013 5.68433C6.71264 5.68433 5.66797 6.72899 5.66797 8.01766C5.66797 9.30633 6.71264 10.351 8.0013 10.351Z" stroke="currentColor" stroke-width="1.3" stroke-linejoin="round"/>
</svg>

