<svg width="16" height="16" viewBox="0 0 16 16" fill="none" xmlns="http://www.w3.org/2000/svg">
<path d="M11.1825 4.81746C10.792 5.20795 10.1617 5.20406 9.73943 4.8482C7.32836 2.81632 4.5953 2.21269 3.40452 3.40346C2.69852 4.10846 2.60452 5.39446 3.14752 6.88746C3.45552 6.40346 3.81252 5.92646 4.21552 5.46346C4.15089 5.25281 4.15757 5.02672 4.23452 4.82025C4.31147 4.61378 4.4544 4.43847 4.64114 4.32151C4.82788 4.20454 5.04799 4.15246 5.26735 4.17334C5.4867 4.19422 5.69303 4.2869 5.85435 4.43699C6.01567 4.58708 6.12295 4.78621 6.15957 5.00349C6.19619 5.22077 6.16009 5.44406 6.05687 5.63874C5.95366 5.83341 5.78909 5.98859 5.5887 6.08021C5.38831 6.17183 5.16328 6.19476 4.94852 6.14546C2.83752 8.58246 2.19452 11.3855 3.40452 12.5955C3.8591 13.0509 4.55267 13.2566 5.41145 13.1894C5.68659 13.1678 5.94724 13.3434 5.99749 13.6148C6.04776 13.8863 5.86831 14.1499 5.59348 14.1767C4.4163 14.2914 3.39893 14.0047 2.69752 13.3025C1.50752 12.1135 1.54352 10.0795 2.53052 7.99946L2.61052 8.16646C1.52452 5.98546 1.49852 3.89546 2.69652 2.69646C4.50631 0.886671 8.27765 1.91522 11.1805 4.81746C11.1811 4.81801 11.182 4.81801 11.1825 4.81746ZM13.3035 2.69646C14.4935 3.88546 14.4575 5.92046 13.4695 8.00046C14.4755 10.1205 14.4715 12.1355 13.3035 13.3025C11.5676 15.0384 8.02697 14.1639 5.17911 11.5284C4.97647 11.3409 4.97679 11.0232 5.17202 10.828C5.36726 10.6327 5.68348 10.634 5.88676 10.8209C8.38219 13.1147 11.3436 13.8484 12.5965 12.5955C13.3025 11.8895 13.3965 10.6025 12.8525 9.11046C12.5455 9.59446 12.1885 10.0725 11.7855 10.5355C11.85 10.7461 11.8431 10.9721 11.766 11.1785C11.689 11.3848 11.546 11.56 11.3593 11.6768C11.1725 11.7937 10.9525 11.8457 10.7332 11.8247C10.5139 11.8038 10.3077 11.7111 10.1464 11.5611C9.98515 11.411 9.87788 11.212 9.84125 10.9948C9.80461 10.7775 9.84064 10.5543 9.94375 10.3597C10.0469 10.165 10.2113 10.0098 10.4116 9.91812C10.6119 9.82642 10.8368 9.80334 11.0515 9.85246C13.1635 7.41646 13.8065 4.61246 12.5965 3.40246C12.1441 2.95088 11.4553 2.74489 10.6025 2.80842C10.3274 2.82891 10.0675 2.65261 10.0181 2.38124C9.96862 2.10965 10.1487 1.84666 10.4236 1.82069C11.5944 1.71008 12.6052 1.99726 13.3035 2.69646ZM8.24252 5.93646C8.36952 6.42346 8.58352 6.81446 8.88452 7.11646C9.18452 7.41646 9.57652 7.63046 10.0645 7.75746C10.3125 7.82246 10.3125 8.17646 10.0645 8.24146C9.57652 8.36846 9.18452 8.58246 8.88452 8.88346C8.58452 9.18346 8.36952 9.57546 8.24252 10.0635C8.17752 10.3115 7.82352 10.3115 7.75852 10.0635C7.63152 9.57546 7.41752 9.18346 7.11652 8.88346C6.81652 8.58346 6.42452 8.36846 5.93652 8.24146C5.68852 8.17646 5.68852 7.82246 5.93652 7.75746C6.42452 7.63046 6.81652 7.41646 7.11652 7.11546C7.41652 6.81546 7.63152 6.42346 7.75852 5.93546C7.82352 5.68746 8.17752 5.68846 8.24252 5.93646Z" fill="currentColor"/>
</svg>
