<svg width="48" height="48" viewBox="0 0 48 48" fill="none" xmlns="http://www.w3.org/2000/svg">
<path d="M17.2077 5.8116L17.6097 6.23406L17.9629 6.56673C18.6373 6.54347 19.2229 6.43818 19.8755 6.28127C21.2382 5.96902 22.5629 5.93544 23.9569 5.94144L24.6649 5.94163C26.1092 5.95619 27.4152 6.05343 28.8059 6.4612C29.3673 6.58351 29.6897 6.55766 30.2342 6.37795C30.6418 6.10022 30.6418 6.10022 31.0248 5.75249C32.1504 4.84723 33.2839 4.19665 34.7651 4.32487C35.3372 4.40868 35.4761 4.44588 35.8979 4.8676C35.8271 5.36318 35.8271 5.36318 35.7091 5.8116L35.3493 5.78513C33.6232 5.71226 32.6798 6.24634 31.3669 7.3219L31.9068 7.62057C36.1171 10.0097 39.1035 13.6023 40.5121 18.2664L40.6176 18.6493L41.0667 18.6294C42.5974 18.5898 43.5361 18.6509 44.7357 19.664C45.538 20.6268 45.6211 21.5313 45.5969 22.7516C45.4389 24.13 44.9424 25.4045 43.8859 26.3305C43.2121 26.837 42.7872 26.982 41.9392 26.9795L41.4317 26.9811C40.9952 26.956 40.9952 26.956 40.6176 26.7671L40.5534 27.1366C39.6329 31.5345 36.7286 35.9433 32.979 38.4364C30.5725 39.9824 30.5725 39.9824 29.6678 39.9824V43.7582H25.892V40.1712L25.3257 40.3601C24.9209 40.378 24.5156 40.3846 24.1103 40.3836L23.4622 40.3851C22.8714 40.36 22.8714 40.36 22.1162 40.1712V43.7583H18.3405V39.9824L17.3966 39.7937C12.9887 37.8368 9.90108 33.765 8.09867 29.4063C7.77359 28.5482 7.55743 27.6681 7.3907 26.7672L7.01316 26.956C6.07768 27.0587 5.33841 27.0625 4.48808 26.6373C3.30002 25.5909 2.61209 24.3781 2.40839 22.796C2.3657 21.5867 2.47332 20.5659 3.23738 19.5932C4.26062 18.7618 5.01579 18.6234 6.30519 18.6374L6.92177 18.6427L7.3907 18.6493L7.58538 18.0814C8.50742 15.4673 9.69148 13.1888 11.5441 11.0977L11.8752 10.7126C13.1571 9.32308 14.9242 8.11107 16.6414 7.32195C15.5136 6.43669 14.6976 5.83615 13.2431 5.81164L12.6768 5.79974L12.2992 5.81164C12.1813 5.36323 12.1813 5.36323 12.1104 4.8677C13.5839 3.39418 15.864 4.87235 17.2077 5.8116Z" fill="#737373"/>
<path d="M30.2325 13.1742C31.0046 13.5153 31.4901 13.9652 31.9315 14.6845C32.0501 15.6334 31.9378 16.1865 31.3652 16.95C30.8454 17.5564 30.4156 17.6806 29.6189 17.7878C28.6874 17.679 28.1939 17.2743 27.5894 16.5724C27.3563 15.8727 27.3147 15.4211 27.4006 14.6845C28.1714 13.4844 28.7867 13.076 30.2325 13.1742Z" fill="white"/>
<path d="M19.8217 13.624C20.3685 14.2019 20.5872 14.5712 20.711 15.3688C20.5595 16.2795 20.1819 16.9248 19.4721 17.5162C18.7725 17.7494 18.3209 17.791 17.5842 17.7051C16.9148 17.3465 16.3896 16.9204 16.1248 16.194C15.9984 15.4116 16.0539 14.7996 16.4515 14.118C16.7883 13.7139 17.0586 13.4316 17.537 13.2094C18.3951 13.1381 19.1172 13.0978 19.8217 13.624Z" fill="white"/>
<path d="M34.6945 4.36167L35.1385 4.40659C35.5204 4.49138 35.5204 4.49138 35.898 4.86896C35.8272 5.36449 35.8272 5.36449 35.7092 5.81291L35.3494 5.78645C33.2774 5.69902 32.2456 6.56125 30.7278 7.90353C30.2237 8.27488 29.9054 8.39064 29.2904 8.45593C29.1369 8.04286 29.1369 8.04286 29.1016 7.51199C29.4792 7.05171 29.4792 7.05171 30.0455 6.56804L30.3434 6.28993C31.5636 5.17535 32.9842 4.16988 34.6945 4.36148V4.36167Z" fill="#737373"/>
<path d="M17.2047 5.81154C17.8612 6.28386 18.5199 6.78757 18.9039 7.51061C18.8448 8.02977 18.8448 8.02977 18.715 8.45456C17.8421 8.36168 17.4177 8.026 16.7681 7.45155C15.2587 6.18419 14.2898 5.66444 12.2962 5.81154C12.1783 5.36312 12.1783 5.36312 12.1074 4.86759C13.5956 3.37938 15.8409 4.89642 17.2047 5.81154Z" fill="#737373"/>
<path d="M30.8009 14.3077C31.0506 15.3292 31.0506 15.3292 30.789 15.8063C30.2513 16.1012 29.8692 15.9594 29.2905 15.818C29.0408 14.7965 29.0408 14.7965 29.3024 14.3194C29.8401 14.0245 30.2223 14.1663 30.8009 14.3077ZM19.4735 14.3077C19.7233 15.3292 19.7233 15.3292 19.4616 15.8063C18.9242 16.1012 18.5421 15.9594 17.9632 15.818C17.7134 14.7965 17.7134 14.7965 17.9751 14.3194C18.5126 14.0245 18.8947 14.1665 19.4735 14.3077Z" fill="#0A0A0A"/>
</svg>
