<svg width="16" height="16" viewBox="0 0 16 16" fill="none" xmlns="http://www.w3.org/2000/svg">
<path d="M12.601 15.1558H3.78805C2.1632 15.1558 0.841797 13.8342 0.841797 12.2095V4.08248C0.841797 2.45764 2.16336 1.13623 3.78805 1.13623H12.6009C14.2257 1.13623 15.5473 2.45779 15.5473 4.08248V12.2094C15.5473 13.8342 14.2257 15.1558 12.601 15.1558ZM3.78805 2.30951C2.81023 2.30951 2.01508 3.10467 2.01508 4.08248V12.2094C2.01508 13.1872 2.81023 13.9823 3.78805 13.9823H12.6009C13.5787 13.9823 14.3738 13.1872 14.3738 12.2094V4.08248C14.3738 3.10467 13.5787 2.30951 12.6009 2.30951H3.78805Z" fill="currentColor"/>
<path d="M12.131 12.7397C11.9575 12.7397 11.7861 12.6633 11.67 12.5166L9.82296 10.1767C9.65885 9.96883 9.3611 9.92498 9.14403 10.0767L7.77521 11.0336C7.57023 11.1769 7.2909 11.1467 7.12129 10.9629L5.77623 9.50546C5.46753 9.17095 4.90879 9.38937 4.90879 9.84455V12.0583C4.90879 12.3822 4.64598 12.645 4.32207 12.645C3.99816 12.645 3.73535 12.3822 3.73535 12.0583V6.84273C3.73535 6.38752 4.29414 6.16911 4.60283 6.50367L7.28849 9.41446C7.4581 9.59828 7.73743 9.6285 7.94243 9.48521L9.3792 8.48091C9.59627 8.32918 9.894 8.37303 10.0581 8.58091L12.591 11.7894C12.7914 12.0438 12.7483 12.4127 12.4939 12.6136C12.3906 12.6954 12.2627 12.7398 12.131 12.7397Z" fill="currentColor"/>
<path d="M10.5977 5.31064C10.5977 5.60632 10.7151 5.88988 10.9242 6.09896C11.1333 6.30803 11.4168 6.42549 11.7125 6.42549C12.0082 6.42549 12.2917 6.30803 12.5008 6.09896C12.7099 5.88988 12.8273 5.60632 12.8273 5.31064C12.8273 5.01497 12.7099 4.7314 12.5008 4.52233C12.2917 4.31326 12.0082 4.1958 11.7125 4.1958C11.4168 4.1958 11.1333 4.31326 10.9242 4.52233C10.7151 4.7314 10.5977 5.01497 10.5977 5.31064Z" fill="currentColor"/>
</svg>
