<svg width="16" height="16" viewBox="0 0 16 16" fill="none" xmlns="http://www.w3.org/2000/svg">
<path d="M9 2.5C9.27614 2.5 9.5 2.72386 9.5 3C9.5 3.27614 9.27614 3.5 9 3.5H6.615C5.52363 3.5 4.47697 3.93354 3.70526 4.70526C2.93354 5.47697 2.5 6.52363 2.5 7.615C2.5 10.13 4.44 12.031 8.45 13.312L8.5 13.327V12C8.49996 11.883 8.54097 11.7696 8.61589 11.6797C8.69081 11.5898 8.79489 11.5291 8.91 11.508L9 11.5H9.5C10.5609 11.5 11.5783 11.0786 12.3284 10.3284C12.96 9.69681 13.3586 8.8757 13.4688 7.99872C13.5032 7.72473 13.7239 7.5 14 7.5C14.2761 7.5 14.5026 7.72441 14.475 7.99917C14.4263 8.48454 14.3068 8.96109 14.1194 9.41342C13.8681 10.02 13.4998 10.5712 13.0355 11.0355C12.5712 11.4998 12.02 11.8681 11.4134 12.1194C10.8068 12.3707 10.1566 12.5 9.5 12.5V14C9.50005 14.0706 9.48516 14.1404 9.4563 14.2048C9.42744 14.2692 9.38527 14.3268 9.33256 14.3737C9.27985 14.4207 9.21779 14.456 9.15048 14.4772C9.08316 14.4984 9.01211 14.5052 8.942 14.497L8.862 14.481C4.007 13.093 1.5 10.808 1.5 7.615C1.5 6.25842 2.0389 4.9574 2.99815 3.99815C3.9574 3.0389 5.25842 2.5 6.615 2.5H9ZM10.5 8C10.7761 8 11 8.22386 11 8.5C11 8.77614 10.7761 9 10.5 9H5.5C5.22386 9 5 8.77614 5 8.5C5 8.22386 5.22386 8 5.5 8H10.5ZM12.242 2.937C12.369 3.424 12.583 3.815 12.884 4.117C13.184 4.417 13.576 4.631 14.064 4.758C14.312 4.823 14.312 5.177 14.064 5.242C13.576 5.369 13.184 5.583 12.884 5.884C12.584 6.184 12.369 6.576 12.242 7.064C12.177 7.312 11.823 7.312 11.758 7.064C11.631 6.576 11.417 6.184 11.116 5.884C10.816 5.584 10.424 5.369 9.936 5.242C9.688 5.177 9.688 4.823 9.936 4.758C10.424 4.631 10.816 4.417 11.116 4.116C11.416 3.816 11.631 3.424 11.758 2.936C11.823 2.688 12.177 2.689 12.242 2.937ZM7.5 6C7.77614 6 8 6.22386 8 6.5C8 6.77614 7.77614 7 7.5 7H5.5C5.22386 7 5 6.77614 5 6.5C5 6.22386 5.22386 6 5.5 6H7.5Z" fill="currentColor"/>
</svg>
