<svg width="20" height="20" viewBox="0 0 20 20" fill="none" xmlns="http://www.w3.org/2000/svg">
<path d="M1.91113 2.41113C2.23657 2.0857 2.76343 2.0857 3.08887 2.41113L17.5889 16.9111C17.9143 17.2366 17.9143 17.7634 17.5889 18.0889C17.2634 18.4143 16.7366 18.4143 16.4111 18.0889L1.91113 3.58887C1.5857 3.26343 1.5857 2.73657 1.91113 2.41113Z" fill="currentColor"/>
<path d="M6.18399 9.27559L4.69864 10.7629C3.56019 11.9019 3.55997 13.7481 4.69864 14.8869C5.8376 16.0256 7.68467 16.0256 8.82364 14.8869L10.309 13.4006L11.4877 14.5793L10.0023 16.0656C8.21251 17.8552 5.30976 17.8552 3.51992 16.0656C1.73039 14.2759 1.73061 11.3741 3.51992 9.58419L5.00528 8.09688L6.18399 9.27559ZM7.95157 11.0432L6.46621 12.5305C6.30407 12.6932 6.30387 12.9568 6.46621 13.1193C6.62883 13.2817 6.89337 13.2818 7.05606 13.1193L8.54043 11.632L9.71914 12.8108L8.23379 14.2981C7.42035 15.1109 6.10193 15.111 5.28848 14.2981C4.4749 13.4846 4.47512 12.1654 5.28848 11.3518L6.77285 9.86446L7.95157 11.0432ZM12.1957 13.8723H12.1947L11.016 12.6936H11.017L12.1957 13.8723ZM10.4272 12.1037H10.4262L9.24746 10.925H9.24844L10.4272 12.1037ZM12.6537 3.98556C13.9554 2.68413 16.0659 2.68415 17.3676 3.98556C18.6691 5.28734 18.6692 7.39874 17.3676 8.7004L14.0795 11.9875L12.9008 10.8088L16.1889 7.52169C16.8396 6.87092 16.8395 5.81519 16.1889 5.16427C15.5381 4.51376 14.4833 4.51369 13.8324 5.16427L10.5434 8.45138L9.36465 7.27267L12.6537 3.98556ZM8.65957 10.3361H8.6586L7.47989 9.15743H7.48086L8.65957 10.3361ZM13.2426 6.93184C13.5679 6.60652 14.0958 6.60669 14.4213 6.93184C14.7465 7.25729 14.7466 7.7852 14.4213 8.11056L12.3109 10.219L11.1322 9.04024L13.2426 6.93184ZM6.892 8.56856H6.89102L5.71231 7.38985H5.71328L6.892 8.56856ZM9.70742 3.39669C10.0329 3.07125 10.5607 3.07125 10.8861 3.39669C11.2113 3.72215 11.2115 4.25007 10.8861 4.5754L8.77578 6.6838L7.59707 5.50509L9.70742 3.39669Z" fill="currentColor"/>
</svg>
