<svg width="16" height="16" viewBox="0 0 16 16" fill="none" xmlns="http://www.w3.org/2000/svg">
<path d="M4.20833 1.52116C4.50749 1.52116 4.75 1.76367 4.75 2.06283C4.75 2.36198 4.50749 2.60449 4.20833 2.60449C3.77736 2.60449 3.36403 2.7757 3.05928 3.08044C2.75454 3.38519 2.58333 3.79852 2.58333 4.22949V11.8128C2.58333 12.2438 2.75454 12.6571 3.05928 12.9619C3.36403 13.2666 3.77736 13.4378 4.20833 13.4378H11.7917C12.2226 13.4378 12.636 13.2666 12.9407 12.9619C13.2455 12.6571 13.4167 12.2438 13.4167 11.8128V4.22949C13.4167 3.79852 13.2455 3.38519 12.9407 3.08044C12.636 2.7757 12.2226 2.60449 11.7917 2.60449C11.4925 2.60449 11.25 2.36198 11.25 2.06283C11.25 1.76367 11.4925 1.52116 11.7917 1.52116C12.51 1.52116 13.1988 1.8065 13.7067 2.31441C14.2147 2.82232 14.5 3.5112 14.5 4.22949V11.8128C14.5 12.5311 14.2147 13.22 13.7067 13.7279C13.1988 14.2358 12.51 14.5212 11.7917 14.5212H4.20833C3.49004 14.5212 2.80116 14.2358 2.29325 13.7279C1.78534 13.22 1.5 12.5311 1.5 11.8128V4.22949C1.5 3.5112 1.78534 2.82232 2.29325 2.31441C2.80116 1.8065 3.49004 1.52116 4.20833 1.52116ZM9.625 10.1878C9.92415 10.1878 10.1667 10.4303 10.1667 10.7295C10.1667 11.0286 9.92415 11.2712 9.625 11.2712H6.375C6.07585 11.2712 5.83333 11.0286 5.83333 10.7295C5.83333 10.4303 6.07585 10.1878 6.375 10.1878H9.625ZM8.48425 4.52849L10.5026 8.23038C10.7174 8.6243 10.4322 9.10449 9.98357 9.10449C9.76321 9.10449 9.56114 8.98192 9.45932 8.78649L9.06058 8.02116H6.93833L6.54054 8.78615C6.43882 8.98176 6.23667 9.10449 6.01619 9.10449C5.56764 9.10449 5.28258 8.62441 5.4973 8.23058L7.51575 4.52849C7.56078 4.43864 7.62993 4.36309 7.71545 4.31029C7.80097 4.25749 7.89949 4.22953 8 4.22953C8.10051 4.22953 8.19903 4.25749 8.28455 4.31029C8.37007 4.36309 8.43922 4.43864 8.48425 4.52849ZM8 5.98233L7.50167 6.93783H8.49725L8 5.98233ZM10.1667 0.979492C10.4658 0.979492 10.7083 1.222 10.7083 1.52116V2.60449C10.7083 2.90365 10.4658 3.14616 10.1667 3.14616C9.86751 3.14616 9.625 2.90365 9.625 2.60449V1.52116C9.625 1.222 9.86751 0.979492 10.1667 0.979492ZM5.83333 0.979492C6.13249 0.979492 6.375 1.222 6.375 1.52116V2.60449C6.375 2.90365 6.13249 3.14616 5.83333 3.14616C5.53418 3.14616 5.29167 2.90365 5.29167 2.60449V1.52116C5.29167 1.222 5.53418 0.979492 5.83333 0.979492ZM8.54167 1.52116C8.84082 1.52116 9.08333 1.76367 9.08333 2.06283C9.08333 2.36198 8.84082 2.60449 8.54167 2.60449H7.45833C7.15918 2.60449 6.91667 2.36198 6.91667 2.06283C6.91667 1.76367 7.15918 1.52116 7.45833 1.52116H8.54167Z" fill="currentColor"/>
</svg>
