<svg width="16" height="16" viewBox="0 0 16 16" fill="none" xmlns="http://www.w3.org/2000/svg">
<path d="M5.61568 14.4503C6.40992 14.1972 7.20477 13.8317 8.00023 13.3538C8.79569 13.8317 9.59054 14.1972 10.3848 14.4503C12.2441 15.0436 13.5795 14.8514 14.391 13.8735C15.2018 12.8962 15.203 11.4776 14.3946 9.61759C14.1569 9.07151 13.8692 8.53219 13.5313 7.99963C13.8692 7.46707 14.1566 6.92775 14.3937 6.38168C15.2027 4.52171 15.2018 3.10277 14.391 2.12488C13.5795 1.14821 12.2441 0.956253 10.3848 1.54901C8.68451 2.09079 6.98118 3.14608 5.27477 4.71489C4.48176 5.44402 3.79318 6.18727 3.20902 6.94465C3.00386 6.59145 2.82327 6.23549 2.66725 5.87676C2.06712 4.49837 2.00877 3.51801 2.49219 2.9357C2.97438 2.354 3.90498 2.28336 5.28398 2.72378C5.63718 2.83619 6.00267 2.98177 6.38043 3.16052C6.49433 3.21434 6.62301 3.22834 6.74582 3.20027C6.86863 3.1722 6.97845 3.10369 7.05765 3.00572C7.15943 2.88077 7.20995 2.72183 7.199 2.56104C7.18806 2.40025 7.11646 2.24963 6.99868 2.13962C6.95539 2.09962 6.90631 2.06639 6.8531 2.04103C6.42927 1.84078 6.01679 1.67678 5.61568 1.54901C3.75633 0.955639 2.42093 1.1479 1.6095 2.1258C0.798679 3.10308 0.79745 4.52171 1.60581 6.38168C1.84353 6.92775 2.131 7.46707 2.46823 7.99963C2.13039 8.53219 1.84292 9.07151 1.60581 9.61759C0.796836 11.4776 0.798064 12.8965 1.6095 13.8744C2.42032 14.8517 3.75571 15.0436 5.61568 14.4503ZM6.14087 10.245C5.29811 9.46986 4.58496 8.68238 4.00142 7.88262C4.58496 7.08285 5.29842 6.29538 6.14179 5.52018C7.72105 4.06808 9.28004 3.09663 10.8187 2.60584C12.1971 2.16603 13.1277 2.23698 13.6105 2.81868C14.0934 3.401 14.035 4.38135 13.4355 5.75974C13.2795 6.11847 13.0989 6.47474 12.8937 6.82855C12.3096 6.07056 11.621 5.32731 10.828 4.5988C10.6173 4.40469 10.4035 4.21673 10.1867 4.03491C10.0792 3.94523 9.97138 3.85708 9.86327 3.77047C9.80587 3.72372 9.7398 3.68877 9.66885 3.66763C9.5979 3.64649 9.52347 3.63957 9.44984 3.64728C9.37621 3.65498 9.30483 3.67716 9.2398 3.71253C9.17476 3.7479 9.11736 3.79578 9.07088 3.8534C8.96448 3.98395 8.91423 4.15138 8.93116 4.31895C8.94809 4.48651 9.03082 4.64051 9.16118 4.74714C9.26253 4.82699 9.36327 4.909 9.46339 4.99315C9.66609 5.1633 9.86573 5.33898 10.0623 5.52018C10.9057 6.29538 11.6194 7.08285 12.2036 7.88262C11.62 8.68238 10.9063 9.46986 10.0623 10.245C9.40504 10.8489 8.75177 11.3698 8.1025 11.8077C7.45262 11.3698 6.79905 10.8489 6.14179 10.245H6.14087ZM2.59262 12.9475C2.10981 12.3652 2.16817 11.3848 2.76768 10.0064C2.9237 9.64769 3.10429 9.29142 3.30945 8.9376C3.89361 9.6956 4.5825 10.4388 5.37612 11.1674C5.90868 11.6575 6.44094 12.0973 6.97288 12.4868C6.44094 12.7675 5.91145 12.9917 5.38442 13.1594C4.00541 13.5998 3.07481 13.5292 2.59262 12.9475ZM10.7165 13.2773C10.1894 13.109 9.66026 12.8845 9.12893 12.6038C9.66087 12.2144 10.1928 11.7749 10.7248 11.2853C11.5184 10.5562 12.2073 9.81292 12.7914 9.05554C12.9966 9.40874 13.1772 9.7647 13.3332 10.1234C13.9333 11.5018 13.9917 12.4822 13.5083 13.0645C13.0261 13.6462 12.0955 13.7168 10.7165 13.2764V13.2773Z" fill="currentColor"/>
<path d="M9.12849 8.19353C9.12849 8.23284 9.12665 8.27184 9.12296 8.31054C9.11928 8.34924 9.11405 8.38763 9.1073 8.42571C9.09993 8.4638 9.09071 8.50158 9.07965 8.53905C9.06921 8.5759 9.05693 8.61245 9.0428 8.64869C9.02867 8.68493 9.0127 8.71994 8.99489 8.75373C8.97769 8.78813 8.95895 8.8216 8.93868 8.85416C8.9178 8.88671 8.89569 8.91804 8.87234 8.94814C8.849 8.97824 8.82443 9.0068 8.79863 9.03383C8.77222 9.06147 8.74458 9.08758 8.71571 9.11215C8.68745 9.13672 8.65797 9.16006 8.62726 9.18217C8.59654 9.20367 8.56491 9.22363 8.53235 9.24206C8.49918 9.26049 8.4654 9.27708 8.431 9.29182C8.39722 9.30656 8.36282 9.31946 8.3278 9.33052C8.29218 9.34219 8.25624 9.35171 8.22 9.35908C8.18376 9.36706 8.14721 9.3729 8.11036 9.37659C8.0735 9.38027 8.03665 9.38211 7.99979 9.38211C7.96294 9.38211 7.92608 9.38027 7.88923 9.37659C7.85237 9.3729 7.81582 9.36706 7.77958 9.35908C7.74334 9.35171 7.7074 9.34249 7.67178 9.33144C7.63677 9.31977 7.60206 9.30656 7.56766 9.29182C7.53388 9.27708 7.5004 9.26049 7.46723 9.24206C7.43467 9.22363 7.40304 9.20367 7.37233 9.18217C7.34161 9.16006 7.31213 9.13672 7.28387 9.11215C7.255 9.08758 7.22736 9.06147 7.20095 9.03383C7.17515 9.0068 7.15058 8.97824 7.12724 8.94814C7.1039 8.91743 7.08178 8.8861 7.0609 8.85416C7.04063 8.8216 7.02189 8.78813 7.00469 8.75373C6.98688 8.71994 6.97091 8.68493 6.95678 8.64869C6.94265 8.61245 6.93037 8.57559 6.91993 8.53812C6.90887 8.50127 6.89966 8.4638 6.89229 8.42571C6.88553 8.38763 6.88031 8.34924 6.87662 8.31054C6.87294 8.27184 6.87109 8.23315 6.87109 8.19445C6.87109 8.15513 6.87294 8.11613 6.87662 8.07743C6.88031 8.03873 6.88553 8.00034 6.89229 7.96226C6.89966 7.92417 6.90887 7.8864 6.91993 7.84893C6.93037 7.81207 6.94265 7.77552 6.95678 7.73928C6.97091 7.70366 6.98688 7.66864 7.00469 7.63424C7.02189 7.59985 7.04063 7.56637 7.0609 7.53381C7.08178 7.50126 7.1039 7.46993 7.12724 7.43983C7.15058 7.41035 7.17515 7.38178 7.20095 7.35414C7.22736 7.3265 7.255 7.3004 7.28387 7.27582C7.31213 7.25125 7.34161 7.22791 7.37233 7.2058C7.40304 7.1843 7.43467 7.16434 7.46723 7.14591C7.5004 7.12748 7.53418 7.1109 7.56858 7.09616C7.60237 7.08141 7.63677 7.06851 7.67178 7.05746C7.7074 7.04579 7.74334 7.03626 7.77958 7.02889C7.81582 7.02091 7.85237 7.01507 7.88923 7.01139C7.92608 7.0077 7.96294 7.00586 7.99979 7.00586C8.03665 7.00586 8.0735 7.0077 8.11036 7.01139C8.14721 7.01507 8.18376 7.02091 8.22 7.02889C8.25624 7.03626 8.29218 7.04548 8.3278 7.05654C8.36282 7.06821 8.39752 7.08141 8.43192 7.09616C8.46571 7.1109 8.49918 7.12748 8.53235 7.14591C8.56491 7.16434 8.59654 7.1843 8.62726 7.2058C8.65797 7.22791 8.68745 7.25125 8.71571 7.27582C8.74458 7.3004 8.77222 7.3265 8.79863 7.35414C8.82443 7.38178 8.849 7.41035 8.87234 7.43983C8.89569 7.47054 8.9178 7.50187 8.93868 7.53381C8.95895 7.56637 8.97769 7.59985 8.99489 7.63424C9.0127 7.66864 9.02867 7.70366 9.0428 7.73928C9.05693 7.77552 9.06921 7.81238 9.07965 7.84985C9.09071 7.8867 9.09993 7.92417 9.1073 7.96226C9.11405 8.00034 9.11928 8.03873 9.12296 8.07743C9.12665 8.11613 9.12849 8.15513 9.12849 8.19445V8.19353Z" fill="currentColor"/>
</svg>
