<svg width="16" height="16" viewBox="0 0 16 16" fill="none" xmlns="http://www.w3.org/2000/svg">
<path d="M5.81818 2C6.25217 2 6.66839 2.1724 6.97527 2.47928C7.28214 2.78616 7.45455 3.20237 7.45455 3.63636V5.81818C7.45455 6.25217 7.28214 6.66839 6.97527 6.97527C6.66839 7.28214 6.25217 7.45455 5.81818 7.45455H3.63636C3.20237 7.45455 2.78616 7.28214 2.47928 6.97527C2.1724 6.66839 2 6.25217 2 5.81818V3.63636C2 3.20237 2.1724 2.78616 2.47928 2.47928C2.78616 2.1724 3.20237 2 3.63636 2H5.81818ZM5.81818 3.09091H3.63636C3.4917 3.09091 3.35296 3.14838 3.25067 3.25067C3.14838 3.35296 3.09091 3.4917 3.09091 3.63636V5.81818C3.09091 5.96285 3.14838 6.10158 3.25067 6.20388C3.35296 6.30617 3.4917 6.36364 3.63636 6.36364H5.81818C5.96285 6.36364 6.10158 6.30617 6.20388 6.20388C6.30617 6.10158 6.36364 5.96285 6.36364 5.81818V3.63636C6.36364 3.4917 6.30617 3.35296 6.20388 3.25067C6.10158 3.14838 5.96285 3.09091 5.81818 3.09091ZM5.81818 8.54545C6.25217 8.54545 6.66839 8.71786 6.97527 9.02473C7.28214 9.33161 7.45455 9.74783 7.45455 10.1818V12.3636C7.45455 12.7976 7.28214 13.2138 6.97527 13.5207C6.66839 13.8276 6.25217 14 5.81818 14H3.63636C3.20237 14 2.78616 13.8276 2.47928 13.5207C2.1724 13.2138 2 12.7976 2 12.3636V10.1818C2 9.74783 2.1724 9.33161 2.47928 9.02473C2.78616 8.71786 3.20237 8.54545 3.63636 8.54545H5.81818ZM5.81818 9.63636H3.63636C3.4917 9.63636 3.35296 9.69383 3.25067 9.79612C3.14838 9.89842 3.09091 10.0372 3.09091 10.1818V12.3636C3.09091 12.5083 3.14838 12.647 3.25067 12.7493C3.35296 12.8516 3.4917 12.9091 3.63636 12.9091H5.81818C5.96285 12.9091 6.10158 12.8516 6.20388 12.7493C6.30617 12.647 6.36364 12.5083 6.36364 12.3636V10.1818C6.36364 10.0372 6.30617 9.89842 6.20388 9.79612C6.10158 9.69383 5.96285 9.63636 5.81818 9.63636ZM12.3636 8.54545C12.7976 8.54545 13.2138 8.71786 13.5207 9.02473C13.8276 9.33161 14 9.74783 14 10.1818V11.8182C14 12.1194 13.7558 12.3636 13.4545 12.3636C13.1533 12.3636 12.9091 12.1194 12.9091 11.8182V10.1818C12.9091 10.0372 12.8516 9.89842 12.7493 9.79612C12.647 9.69383 12.5083 9.63636 12.3636 9.63636H10.1818C10.0372 9.63636 9.89842 9.69383 9.79612 9.79612C9.69383 9.89842 9.63636 10.0372 9.63636 10.1818V12.3636C9.63636 12.5083 9.69383 12.647 9.79612 12.7493C9.89842 12.8516 10.0372 12.9091 10.1818 12.9091H11.8182C12.1194 12.9091 12.3636 13.1533 12.3636 13.4545C12.3636 13.7558 12.1194 14 11.8182 14H10.1818C9.74783 14 9.33161 13.8276 9.02473 13.5207C8.71786 13.2138 8.54545 12.7976 8.54545 12.3636V10.1818C8.54545 9.74783 8.71786 9.33161 9.02473 9.02473C9.33161 8.71786 9.74783 8.54545 10.1818 8.54545H12.3636ZM13.5233 4.46327C13.796 4.53418 13.796 4.92036 13.5233 4.99127C12.992 5.12982 12.5655 5.36327 12.236 5.69164C11.9087 6.01891 11.6753 6.44655 11.5367 6.97891C11.4658 7.24945 11.0796 7.24945 11.0087 6.97891C10.8702 6.44655 10.6367 6.01891 10.3084 5.69164C9.98109 5.36436 9.55345 5.12982 9.02109 4.99127C8.75055 4.92036 8.75055 4.53418 9.02109 4.46327C9.55345 4.32473 9.98109 4.09127 10.3084 3.76291C10.6356 3.43564 10.8702 3.008 11.0087 2.47564C11.0796 2.20509 11.4658 2.20509 11.5367 2.47564C11.6753 3.008 11.9087 3.43564 12.2371 3.76291C12.5644 4.09018 12.992 4.32473 13.5244 4.46327H13.5233Z" fill="currentColor"/>
</svg>
