<svg fill="currentColor" fill-rule="evenodd" height="1em" style="flex:none;line-height:1" viewBox="0 0 24 24" width="1em" xmlns="http://www.w3.org/2000/svg"><title>Grok</title><path d="M2.20863 8.19879L7.33587 15.7987H2V17.1987H9.17939L15.3729 24L16.514 23.0013L10.8929 17.1987H22V15.7987H9.05041L3.34968 7.20013L2.20863 8.19879ZM21.7914 8.19879L11.0495 17.5894L9.9084 16.5907L20.6503 7.20013L21.7914 8.19879ZM14.2031 6.80133H22V8.20133H14.2031V6.80133ZM2 6.80133H10.0929L7.02737 10.4829L7.89213 11.2H7.97587L11.6259 6.80133H12.8031V8.20133H11.8341L9.06956 11.6L12.8031 15.7987V17.1987H11.4031V16.2013L7.4876 11.8013L3.12927 8.01466L2 6.80133Z"/></svg>
