<svg width="14" height="14" viewBox="0 0 14 14" fill="none" xmlns="http://www.w3.org/2000/svg">
<path d="M12.0223 5.38437C11.9827 5.52093 11.931 5.65368 11.8677 5.78105V5.79855C11.4186 6.75812 10.249 8.6423 10.249 8.6423L9.90774 9.22562H11.5557L8.39692 13.4169L9.11149 10.5644H7.81358L8.26274 8.6773C7.89817 8.7648 7.46649 8.8873 6.95608 9.05062C6.95608 9.05062 6.26483 9.45605 4.96692 8.27187C4.96692 8.27187 4.09192 7.49896 4.59942 7.30646C5.16147 7.1825 5.73018 7.09096 6.30274 7.0323C7.17774 6.91271 7.73192 6.84855 7.73192 6.84855C7.73192 6.84855 5.00192 6.88937 4.35442 6.7873C3.70692 6.68523 2.89608 5.60312 2.70942 4.6523C2.70942 4.6523 2.43817 4.13021 3.29274 4.37812C4.14732 4.62604 7.66774 5.34062 7.66774 5.34062C7.66774 5.34062 3.07692 3.93187 2.77358 3.59062C2.47024 3.24937 1.88399 1.70646 1.95983 0.767299C1.96169 0.735386 1.97091 0.704337 1.98678 0.676584C2.00264 0.64883 2.02472 0.625127 2.05127 0.607329C2.07783 0.589531 2.10814 0.578123 2.13984 0.573997C2.17154 0.569872 2.20377 0.573141 2.23399 0.58355C2.23399 0.58355 5.62608 2.13521 7.94774 2.98687C10.2694 3.83854 12.2848 4.28187 12.0223 5.38437Z" fill="currentColor"/>
</svg>
