<svg width="14" height="14" viewBox="0 0 14 14" fill="none" xmlns="http://www.w3.org/2000/svg">
<g clip-path="url(#clip0_1663_5714)">
<path d="M10.0037 9.54589H11.7267L8.59311 13.9944L8.51744 13.9675L9.1985 11.0436H7.85152C8.00286 10.3343 8.14815 9.66807 8.30555 8.93959C7.92265 9.0564 7.58817 9.12402 7.28321 9.25926C6.62259 9.55127 6.02855 9.42678 5.49279 8.99492C5.13214 8.71334 4.80051 8.39538 4.50298 8.0459C4.20029 7.67859 4.2964 7.4688 4.75498 7.39042C5.72586 7.22444 6.69977 7.07844 7.6752 6.89401H7.063C6.22379 6.88556 5.38382 6.87173 4.5446 6.86865C4.02927 6.86865 3.66604 6.59586 3.35502 6.21625C2.96211 5.73229 2.68404 5.16307 2.5423 4.55258C2.44695 4.16221 2.55213 4.05463 2.94866 4.14838C3.95133 4.38506 4.95248 4.63019 5.95515 4.86841C6.46774 4.99662 6.98655 5.09768 7.50947 5.17117C6.90409 4.96677 6.2866 4.77927 5.68651 4.55642C4.77087 4.21216 3.87036 3.83716 2.95471 3.48061C2.82546 3.43314 2.70744 3.3587 2.60825 3.26208C2.50906 3.16546 2.43092 3.04881 2.37884 2.91965C2.02242 2.09434 1.75605 1.24522 1.75 0.333849C1.75 0.00188312 1.8567 -0.0795713 2.13745 0.0587476C4.99713 1.45961 7.95368 2.64454 10.9193 3.80028C11.2053 3.91878 11.4778 4.06848 11.732 4.24674C12.2247 4.57947 12.3851 4.99904 12.1301 5.52619C11.6064 6.60815 11.0305 7.66399 10.4713 8.72827C10.3313 8.99031 10.1754 9.24466 10.0037 9.54589Z" fill="#59ADF8"/>
</g>
<defs>
<clipPath id="clip0_1663_5714">
<rect width="14" height="14" fill="white"/>
</clipPath>
</defs>
</svg>
