<svg width="14" height="14" viewBox="0 0 14 14" fill="none" xmlns="http://www.w3.org/2000/svg">
<path d="M12.814 5.79333C11.6677 5.79095 10.5526 5.41925 9.63403 4.73333V9.54667C9.66268 10.6984 9.23289 11.8145 8.43909 12.6495C7.6453 13.4846 6.55245 13.9703 5.40069 14C4.24894 13.9703 3.15609 13.4846 2.3623 12.6495C1.5685 11.8145 1.13871 10.6984 1.16736 9.54667C1.15318 8.97669 1.25145 8.4095 1.45655 7.87751C1.66165 7.34552 1.96957 6.85915 2.3627 6.44621C2.75584 6.03326 3.22648 5.70182 3.74776 5.47084C4.26903 5.23985 4.83071 5.11384 5.40069 5.1C5.62393 5.10134 5.84676 5.11917 6.06736 5.15333V7.70667C5.8547 7.62421 5.62878 7.58129 5.40069 7.58C5.14475 7.58603 4.89254 7.64267 4.65859 7.74663C4.42464 7.8506 4.21358 7.99984 4.03758 8.18576C3.86157 8.37167 3.72411 8.59059 3.63311 8.82988C3.54211 9.06917 3.49937 9.32411 3.50736 9.58C3.49937 9.83589 3.54211 10.0908 3.63311 10.3301C3.72411 10.5694 3.86157 10.7883 4.03758 10.9742C4.21358 11.1602 4.42464 11.3094 4.65859 11.4134C4.89254 11.5173 5.14475 11.574 5.40069 11.58C5.65607 11.5731 5.90756 11.5158 6.14074 11.4115C6.37392 11.3071 6.5842 11.1578 6.7595 10.9719C6.9348 10.7861 7.07167 10.5675 7.16225 10.3286C7.25284 10.0897 7.29536 9.83534 7.28736 9.58V0H9.64736C9.63585 0.428592 9.70933 0.85522 9.86358 1.25526C10.0178 1.65529 10.2498 2.02082 10.5461 2.33073C10.8423 2.64064 11.1971 2.8888 11.5898 3.06088C11.9825 3.23297 12.4054 3.32556 12.834 3.33333V5.8" fill="currentColor"/>
</svg>
