<svg width="14" height="14" viewBox="0 0 14 14" fill="none" xmlns="http://www.w3.org/2000/svg">
<path d="M0.666016 5.9585V6.0885L0.676016 9.48183L0.671016 10.1568L0.676016 10.4462L0.681016 10.5475L0.691016 10.6148V10.6245C0.691016 10.6292 0.691016 10.6342 0.695682 10.6388C0.715682 10.7208 0.765349 10.7885 0.839682 10.8558C0.904016 10.9138 0.983349 10.9618 1.10735 11.0292C1.69735 11.3425 2.26302 11.5742 2.84335 11.7332C3.43868 11.8972 4.05868 11.9838 4.72335 11.9982C5.41268 12.0128 6.05235 11.9452 6.67735 11.7862C7.27735 11.6368 7.87268 11.4102 8.50235 11.0922C8.96902 10.8558 9.47968 10.4848 9.94568 10.0462L10.1093 9.88683L10.2683 9.72316L10.3327 9.65083L10.298 9.67016L10.164 9.7375L10.1143 9.76183C9.58868 9.99783 9.04302 10.0652 8.43302 9.99316L8.24968 9.96883L8.06635 9.9355L8.02135 9.9255L7.97668 9.91583L7.78335 9.8725L7.73368 9.85816L7.67935 9.8435L7.45602 9.78083L7.41602 9.77116C7.39168 9.76183 7.36168 9.75683 7.33701 9.74716L6.93035 9.62183L6.73202 9.55916L6.15168 9.35683L5.86402 9.25083L5.60102 9.16416L5.47202 9.11083L5.33335 9.04816L5.31835 9.0435C5.30335 9.0385 5.29368 9.02883 5.27835 9.0195L5.09002 8.92783L4.59902 8.70116L4.29168 8.55183L4.18268 8.49383C3.63202 8.2145 3.09135 7.87716 2.55068 7.49616C2.01147 7.10965 1.49329 6.69462 0.998349 6.25283L0.740349 6.01616L0.666016 5.95883V5.9585Z" fill="currentColor"/>
<path d="M11.641 5.3335L11.4393 5.33883L11.3617 5.34416C11.0554 5.36159 10.7519 5.41108 10.456 5.49183C10.1867 5.56583 9.92267 5.66583 9.66933 5.79783C9.41033 5.92983 9.16733 6.08283 8.93933 6.26216L8.81 6.3625L8.779 6.38916L8.748 6.41516L8.624 6.52616L8.49433 6.6475L8.34967 6.78483L7.66633 7.46016L7.61967 7.5025C7.28867 7.81916 7.04533 8.03016 6.76067 8.2305L6.647 8.30983L6.352 8.50516L6.31067 8.5315C6.25367 8.56816 6.202 8.60016 6.15 8.6315L6 8.71616L6.21733 8.80583L6.854 9.0485L7.24733 9.19116L7.69233 9.33883L7.94567 9.41783L8.16833 9.48116L8.22033 9.49716C8.272 9.51283 8.32367 9.5235 8.37033 9.53383L8.56167 9.57616L8.60833 9.58683L8.655 9.5975L8.836 9.62916L8.88267 9.63416L8.92933 9.6395C9.52933 9.7135 10.0627 9.6395 10.575 9.38616C11.2323 9.0645 11.5427 8.73183 11.9723 7.9245L12.112 7.6555L12.3347 7.21216L12.433 7.02216L12.464 6.96416C12.764 6.3835 12.9917 6.03016 13.3023 5.70283L13.3333 5.67116L13.261 5.64483L13.173 5.61316L12.9863 5.54983L12.8263 5.5025L12.7537 5.48116C12.4572 5.40554 12.1537 5.3613 11.848 5.34916L11.6413 5.3335H11.641ZM3 2.3335L3.17 2.4695L3.41433 2.66583L3.51433 2.7475C3.79006 2.97636 4.0597 3.21244 4.323 3.4555C4.69393 3.80652 5.04556 4.1774 5.37633 4.5665C5.66406 4.89906 5.93893 5.24253 6.20033 5.59616C6.39561 5.85859 6.58215 6.12741 6.75967 6.40216L6.96933 6.73983L7.309 7.3335L7.52367 7.1155L7.848 6.77783L8.03267 6.58716L8.27733 6.34216L8.33233 6.28783C8.487 6.13516 8.652 5.9935 8.81667 5.8575C8.95133 5.7485 9.11133 5.6395 9.291 5.53616C9.416 5.46516 9.54067 5.39983 9.67033 5.34016L9.885 5.2475L10 5.20416L9.995 5.1875L9.99 5.16016C9.95569 5.01373 9.91068 4.87001 9.85533 4.73016L9.77033 4.50116L9.75033 4.45216C9.61567 4.1145 9.45567 3.76583 9.336 3.54816L9.09133 3.1395L8.95633 2.92716L8.93167 2.8945C8.75167 2.62216 8.607 2.45316 8.487 2.3935C8.407 2.34983 8.33233 2.33883 8.20767 2.3335H3Z" fill="currentColor"/>
</svg>
