<svg width="20" height="20" viewBox="0 0 20 20" fill="none" xmlns="http://www.w3.org/2000/svg">
<path d="M14.4248 7.3179C14.3785 7.3204 14.3673 7.29915 14.3623 7.25541C14.3573 7.20916 14.3598 7.15417 14.3373 7.11793C14.2935 7.04919 14.306 6.96795 14.2685 6.89671C14.2474 6.85898 14.2326 6.81802 14.2248 6.77547C14.2223 6.75048 14.2285 6.71548 14.211 6.70173C14.171 6.67299 14.186 6.62674 14.161 6.58925C14.1336 6.54926 14.1323 6.49051 14.1111 6.44177C14.0898 6.39053 14.0636 6.33553 14.0586 6.27929C14.0561 6.2518 14.0248 6.25055 14.0261 6.22305C14.0286 6.17681 13.9948 6.13931 13.9836 6.09557C13.9686 6.03683 13.9361 5.98058 13.9136 5.92309C13.8961 5.87685 13.8773 5.82935 13.8561 5.78811C13.8248 5.72562 13.7986 5.66188 13.7624 5.60064C13.7274 5.54689 13.7174 5.4769 13.6799 5.41816C13.6489 5.36928 13.6221 5.31785 13.5999 5.26443C13.5636 5.17944 13.5111 5.1057 13.4699 5.02447C13.4302 4.94401 13.3873 4.86521 13.3412 4.78825C13.2974 4.71451 13.2587 4.63702 13.2074 4.56578C13.1874 4.53703 13.1549 4.50829 13.1499 4.47579C13.1424 4.4283 13.1062 4.39455 13.0837 4.36706C13.0524 4.32956 13.0512 4.26332 12.99 4.24957C12.99 4.24957 12.9875 4.24332 12.9887 4.24082C12.9937 4.19083 12.9237 4.17708 12.93 4.12584C12.8762 4.10709 12.8912 4.02835 12.83 4.01335C12.83 4.01335 12.8275 4.00836 12.8287 4.00586C12.8337 3.95586 12.785 3.92837 12.7637 3.89587C12.7361 3.854 12.7047 3.81468 12.67 3.77839C12.6538 3.76089 12.6263 3.74589 12.62 3.72464C12.5988 3.64965 12.5275 3.61216 12.4913 3.54717C12.4575 3.48718 12.3988 3.44718 12.3525 3.39719C12.308 3.34431 12.2526 3.30168 12.1901 3.27221C12.1313 3.24971 12.0851 3.20222 12.0151 3.19847C11.9426 3.19472 11.8739 3.15222 11.7976 3.15472C11.7976 3.13847 11.7926 3.12598 11.7726 3.12598H4.19742C4.17742 3.12598 4.17242 3.13847 4.17242 3.15472C4.12243 3.15097 4.09493 3.19222 4.07868 3.22221C4.04119 3.28845 4.09493 3.40969 4.16742 3.43843C4.19742 3.44968 4.21367 3.47093 4.23491 3.49093C4.24616 3.50217 4.25616 3.51967 4.27241 3.51717C4.3024 3.51467 4.31615 3.53592 4.3249 3.55342C4.33615 3.57716 4.3574 3.58591 4.37489 3.59466C4.42786 3.62225 4.47667 3.65717 4.51987 3.6984C4.58486 3.75839 4.65735 3.80713 4.72735 3.85838C4.78609 3.90087 4.83358 3.95711 4.89732 3.99211C4.94607 4.0171 4.97231 4.07335 5.01856 4.09584C5.08355 4.12834 5.11979 4.19083 5.18228 4.22333C5.22103 4.24332 5.25102 4.27582 5.27852 4.30831C5.30352 4.33706 5.34851 4.33831 5.36851 4.36706C5.42725 4.45454 5.52724 4.49454 5.59598 4.57328C5.66347 4.64952 5.75845 4.69576 5.82844 4.77575C5.91093 4.87199 6.02342 4.94073 6.1134 5.03071C6.1759 5.09321 6.23964 5.15195 6.30338 5.21194C6.35337 5.25818 6.40336 5.30443 6.45086 5.35317C6.48585 5.38816 6.53085 5.41566 6.56334 5.44691C6.64458 5.52565 6.73832 5.59564 6.79456 5.69687L6.80706 5.71187C6.86955 5.77061 6.93204 5.82935 6.99203 5.88935C7.06702 5.96434 7.13951 6.04432 7.22075 6.11557C7.25424 6.14048 7.28231 6.17194 7.30324 6.20805C7.31949 6.24555 7.34823 6.27054 7.37323 6.29429C7.44197 6.36178 7.51696 6.42427 7.56571 6.50926C7.5857 6.54426 7.62695 6.55675 7.64819 6.5905C7.67569 6.63299 7.71693 6.66299 7.74443 6.70798C7.78443 6.77422 7.85317 6.82047 7.89941 6.88921C7.9444 6.9567 8.00439 7.02169 8.06189 7.07918C8.12688 7.14417 8.17187 7.22416 8.24061 7.2829C8.27686 7.3129 8.28061 7.37039 8.32685 7.38914C8.3506 7.39914 8.3581 7.41914 8.36435 7.43538C8.38934 7.48913 8.43559 7.52662 8.46433 7.57661C8.49308 7.62661 8.54182 7.65785 8.57432 7.7066C8.63431 7.79908 8.70305 7.88782 8.77804 7.96906C8.80178 7.99656 8.79928 8.03905 8.83428 8.0528C8.88677 8.07405 8.89552 8.13029 8.92302 8.16778C8.95801 8.21653 9.00551 8.25777 9.03175 8.31151C9.05925 8.36901 9.10674 8.4115 9.13674 8.46399C9.16424 8.51149 9.19923 8.55398 9.22798 8.60147C9.24922 8.63772 9.26922 8.67896 9.30047 8.71021C9.33421 8.74395 9.34421 8.7952 9.38295 8.82644C9.41795 8.85519 9.42545 8.90143 9.45794 8.93393C9.49169 8.97142 9.50544 9.02641 9.54293 9.06266C9.57543 9.0939 9.59168 9.1364 9.61417 9.17264C9.63042 9.19764 9.66417 9.21264 9.66792 9.24638C9.67166 9.28388 9.70041 9.30638 9.71916 9.33387C9.7479 9.37637 9.7854 9.41886 9.80165 9.45886C9.83164 9.53384 9.88289 9.59134 9.91913 9.65883C9.96162 9.73382 10.0141 9.80881 10.0566 9.8863C10.0891 9.94254 10.1216 9.99878 10.1566 10.0513C10.1716 10.0775 10.1691 10.1125 10.1978 10.1325C10.2328 10.1575 10.2403 10.2 10.2603 10.235C10.2778 10.2662 10.2903 10.3037 10.3153 10.325C10.3353 10.3425 10.3353 10.3587 10.3391 10.3787C10.3691 10.3912 10.3841 10.3675 10.4016 10.3512L10.5415 10.2125L10.8303 9.92754C10.9127 9.8463 10.989 9.76006 11.074 9.68132C11.224 9.54384 11.3614 9.39636 11.5114 9.25763C11.6089 9.1664 11.6964 9.06641 11.8039 8.98517C11.8976 8.91268 11.9763 8.82269 12.0613 8.73895L12.2501 8.55148C12.3151 8.48649 12.4 8.44399 12.46 8.374C12.4649 8.36717 12.4713 8.3616 12.4788 8.35776C12.5413 8.33276 12.585 8.28152 12.6375 8.24277C12.6987 8.19903 12.76 8.15528 12.82 8.10904C12.85 8.08529 12.8887 8.07405 12.915 8.0478C12.99 7.97281 13.0899 7.93906 13.1774 7.88657C13.2699 7.83158 13.3649 7.77784 13.4624 7.73159C13.5311 7.6991 13.5924 7.6466 13.6674 7.63161C13.7536 7.61411 13.8173 7.55537 13.8986 7.53037C13.9236 7.52287 13.9548 7.52037 13.9773 7.50287C14.0248 7.46538 14.0886 7.46538 14.1423 7.44038C14.1673 7.42788 14.1948 7.41164 14.2235 7.40789C14.2885 7.39914 14.346 7.36914 14.4085 7.35289C14.426 7.34914 14.4398 7.33915 14.4248 7.3179Z" fill="#00D6B9"/>
<path d="M16.2233 11.897C16.2045 11.8845 16.1933 11.9008 16.182 11.912C16.1483 11.942 16.1245 11.982 16.0958 12.017L15.952 12.1845C15.8533 12.2932 15.7471 12.3969 15.6396 12.4944C15.5558 12.5707 15.4621 12.6357 15.3721 12.7044C15.3384 12.7294 15.3046 12.7569 15.2696 12.7794C15.2321 12.8056 15.1984 12.8406 15.1572 12.8581C15.0784 12.8919 15.0084 12.9406 14.9359 12.9831C14.8085 13.0531 14.6766 13.1145 14.541 13.1668C14.4647 13.1981 14.3898 13.2318 14.311 13.2568C14.2485 13.2768 14.1873 13.3031 14.1235 13.3193C14.1023 13.3243 14.0798 13.3218 14.0598 13.3293C13.9973 13.3531 13.9311 13.3668 13.8661 13.3831C13.8098 13.3981 13.7486 13.3856 13.6999 13.4081C13.6249 13.4431 13.5399 13.4106 13.4699 13.4581C13.3611 13.4568 13.2524 13.4693 13.1437 13.478C12.9512 13.493 12.7587 13.4656 12.5663 13.4606C12.4788 13.4581 12.3963 13.4143 12.3075 13.4268C12.3025 13.4268 12.2975 13.4256 12.2938 13.4218C12.265 13.3993 12.2313 13.4006 12.1988 13.4006C12.1313 13.4006 12.0663 13.3856 12.0026 13.3731C11.9401 13.3606 11.8764 13.3368 11.8151 13.3156C11.7789 13.3031 11.7401 13.3106 11.7076 13.2943C11.6601 13.2715 11.6096 13.2555 11.5576 13.2468C11.4377 13.2218 11.3264 13.1718 11.2052 13.1518C11.1252 13.1381 11.0552 13.0931 10.9752 13.0769C10.919 13.0644 10.864 13.0444 10.8102 13.0269C10.7415 13.0044 10.6728 12.9806 10.6028 12.9631C10.4915 12.9331 10.3891 12.8856 10.2803 12.8506C10.1503 12.8081 10.0241 12.7569 9.89412 12.7132C9.81788 12.6882 9.74914 12.6419 9.66666 12.6294C9.63126 12.6233 9.59734 12.6106 9.56667 12.5919C9.50543 12.5569 9.43669 12.5444 9.3742 12.5144C9.3217 12.4894 9.26296 12.4769 9.21172 12.4519C9.12673 12.4082 9.02799 12.3944 8.9505 12.3332C8.9455 12.3295 8.93801 12.3282 8.93176 12.3282C8.86927 12.322 8.81302 12.2932 8.75928 12.2657C8.64055 12.2082 8.51306 12.1695 8.39683 12.1057C8.30434 12.0545 8.20186 12.0257 8.10937 11.9758C8.08812 11.9708 8.06938 11.9745 8.04688 11.9633C8.00813 11.9445 7.97189 11.9133 7.93189 11.9033C7.85565 11.882 7.79816 11.827 7.72317 11.8045C7.68068 11.792 7.64818 11.7545 7.60819 11.7445C7.5582 11.732 7.51695 11.707 7.47696 11.6845C7.41072 11.6471 7.33948 11.6221 7.27323 11.5808C7.23699 11.5583 7.1895 11.5508 7.15825 11.5246C7.11076 11.4846 7.03702 11.4871 7.00452 11.4271C6.92453 11.4208 6.87079 11.3596 6.80205 11.3308C6.72081 11.2971 6.64707 11.2459 6.56958 11.2021C6.53709 11.1834 6.50709 11.1496 6.47584 11.1434C6.39086 11.1259 6.33336 11.0659 6.26337 11.0284C6.18157 10.9854 6.10229 10.9379 6.02591 10.8859C6.01341 10.8784 5.99466 10.8797 5.98591 10.8697C5.93592 10.8134 5.86468 10.7847 5.80344 10.7472C5.74256 10.7113 5.68215 10.6746 5.62221 10.6372C5.54847 10.5909 5.47223 10.5447 5.40224 10.4947C5.356 10.461 5.29726 10.441 5.25726 10.4022C5.22727 10.3747 5.19102 10.3647 5.16103 10.3397C5.10603 10.2947 5.04229 10.2585 4.9823 10.2172C4.9548 10.1985 4.91856 10.181 4.89981 10.161C4.86357 10.121 4.81482 10.101 4.77608 10.0685C4.71859 10.0198 4.6461 9.98603 4.5886 9.93479C4.55486 9.90479 4.50486 9.89979 4.47987 9.8573C4.47112 9.84105 4.45487 9.8298 4.43237 9.82355C4.39488 9.81355 4.36863 9.78231 4.33739 9.76106C4.29114 9.72982 4.2499 9.68732 4.20241 9.65483C4.14491 9.61608 4.09492 9.56484 4.03618 9.52984C3.97244 9.4911 3.92744 9.43111 3.8637 9.39486C3.82496 9.37112 3.80121 9.32737 3.76372 9.30987C3.69623 9.27988 3.65623 9.22114 3.59499 9.18489C3.5475 9.15489 3.515 9.09865 3.46501 9.07241C3.40627 9.04116 3.37127 8.98617 3.31878 8.94992C3.30378 8.93867 3.28628 8.93742 3.27253 8.91993C3.23879 8.87868 3.19255 8.84869 3.1538 8.81244C3.11256 8.77495 3.06131 8.74995 3.02382 8.70496C2.99382 8.67246 2.96133 8.62872 2.92383 8.61372C2.86634 8.59247 2.84134 8.54123 2.79635 8.50873C2.74011 8.46874 2.69886 8.41125 2.64387 8.3675C2.60888 8.34001 2.56888 8.31751 2.54139 8.28251C2.50014 8.23002 2.44765 8.18628 2.40015 8.14128C2.33766 8.08004 2.27767 8.0163 2.21268 7.95756C2.16269 7.91257 2.11644 7.86257 2.0652 7.81758C2.01771 7.77508 1.97521 7.72759 1.92772 7.6851C1.86523 7.62761 1.80774 7.56261 1.74774 7.50137C1.689 7.43888 1.62526 7.38139 1.56777 7.31765C1.51778 7.26141 1.46778 7.19266 1.3703 7.21391C1.3228 7.22391 1.30031 7.25391 1.28281 7.29265C1.23406 7.29765 1.25406 7.33515 1.25406 7.35639V14.4342C1.25406 14.4629 1.25656 14.4904 1.25531 14.5179C1.25531 14.5392 1.26281 14.5492 1.28281 14.5504C1.27031 14.6154 1.31405 14.6679 1.32405 14.7279C1.3303 14.7704 1.3578 14.8066 1.37405 14.8466C1.39779 14.9016 1.44404 14.9478 1.47653 15.0003C1.50577 15.0448 1.54308 15.0834 1.58652 15.1141C1.63151 15.1466 1.67775 15.1816 1.7265 15.2103C1.78399 15.2428 1.83898 15.2841 1.89272 15.3215C1.90897 15.3315 1.92772 15.334 1.94522 15.3503C1.99521 15.3953 2.05895 15.429 2.12019 15.4603C2.16144 15.4815 2.20018 15.5103 2.24518 15.529C2.34516 15.5703 2.43015 15.6453 2.53264 15.6852C2.59013 15.7065 2.63387 15.7477 2.69261 15.7652C2.70636 15.7702 2.72261 15.7715 2.73386 15.779C2.81635 15.8365 2.91008 15.869 2.99882 15.914C3.01757 15.924 3.04132 15.924 3.05631 15.9365C3.10372 15.9736 3.15951 15.9985 3.21879 16.009C3.22879 16.0115 3.23879 16.0127 3.25004 16.0214C3.27503 16.0402 3.30628 16.0539 3.33503 16.0702C3.36752 16.0889 3.41002 16.0777 3.44001 16.1102C3.45126 16.1227 3.47751 16.1389 3.49875 16.1427C3.58624 16.1589 3.66748 16.2002 3.74872 16.2327C3.77372 16.2427 3.80621 16.2327 3.82371 16.2514C3.8562 16.2852 3.90245 16.2839 3.93994 16.3014C3.99494 16.3252 4.05243 16.3439 4.11367 16.3589C4.13992 16.3652 4.17616 16.3602 4.19241 16.3777C4.22365 16.4126 4.27115 16.4151 4.30489 16.4239C4.39488 16.4451 4.48237 16.4739 4.56986 16.5039C4.63985 16.5289 4.71859 16.5339 4.79233 16.5564C4.85482 16.5739 4.91731 16.5939 4.9798 16.6051C5.00855 16.6101 5.05104 16.5989 5.06729 16.6139C5.11478 16.6614 5.17977 16.6339 5.23351 16.6601C5.28601 16.6851 5.3585 16.6951 5.42599 16.6901C5.43849 16.6889 5.45723 16.6864 5.46348 16.6926C5.51348 16.7426 5.59097 16.6926 5.63846 16.7439C5.75094 16.7538 5.86343 16.7588 5.97341 16.7913C6.04465 16.8126 6.12339 16.8013 6.19838 16.8188C6.28962 16.8401 6.38836 16.8338 6.48334 16.8438C6.54583 16.8488 6.60708 16.8463 6.66832 16.8476C6.66832 16.8676 6.67957 16.8751 6.69956 16.8738H8.04938C8.06937 16.8738 8.08062 16.8676 8.08062 16.8476C8.2306 16.8551 8.37808 16.8201 8.52681 16.8251H8.6093C8.6293 16.8263 8.64055 16.8188 8.6393 16.7976C8.70643 16.7937 8.77324 16.7853 8.83927 16.7726C8.94425 16.7513 9.05424 16.7563 9.15922 16.7226C9.21172 16.7051 9.27171 16.7076 9.32795 16.6939C9.39294 16.6789 9.46168 16.6614 9.53292 16.6664C9.54042 16.6664 9.55292 16.6664 9.55667 16.6626C9.59167 16.6164 9.65041 16.6376 9.69665 16.6164C9.74787 16.5944 9.80348 16.5845 9.85913 16.5876C9.86663 16.5876 9.87663 16.5876 9.88413 16.5839C9.93322 16.5557 9.98775 16.5382 10.0441 16.5326C10.1197 16.5215 10.1939 16.5022 10.2653 16.4751C10.3185 16.4558 10.3733 16.4412 10.429 16.4314C10.4415 16.4289 10.4553 16.4289 10.4615 16.4214C10.4928 16.3889 10.539 16.3876 10.574 16.3777C10.6465 16.3589 10.7153 16.3314 10.7865 16.3102C10.8102 16.3039 10.8377 16.3114 10.8577 16.2977C10.9128 16.2588 10.9761 16.2332 11.0427 16.2227C11.054 16.2214 11.064 16.2202 11.074 16.2127C11.1065 16.1927 11.1365 16.1689 11.1777 16.1639C11.2352 16.1577 11.2902 16.1289 11.3402 16.1039C11.3827 16.0827 11.4302 16.0664 11.4739 16.0439C11.5077 16.0264 11.5439 16.0052 11.5851 15.9977C11.6439 15.9877 11.6826 15.9365 11.7426 15.924C11.7877 15.9128 11.8307 15.8947 11.8701 15.8702C11.9338 15.834 12.0001 15.804 12.0651 15.7727C12.1063 15.7515 12.1538 15.734 12.1876 15.709C12.2386 15.6737 12.293 15.6435 12.35 15.619C12.4225 15.5865 12.4863 15.5403 12.5588 15.509C12.6212 15.4803 12.6775 15.434 12.74 15.399C12.7712 15.3815 12.8 15.354 12.83 15.339C12.8642 15.321 12.8976 15.3014 12.93 15.2803C12.9725 15.2516 13.0224 15.2341 13.0587 15.1978C13.0912 15.1653 13.1349 15.1541 13.1687 15.1241C13.2087 15.0903 13.2624 15.0741 13.2999 15.0366C13.3124 15.0241 13.3199 15.0116 13.3374 15.0116C13.3471 15.0105 13.3563 15.0071 13.3644 15.0017C13.3724 14.9962 13.379 14.9889 13.3836 14.9803C13.3955 14.9613 13.413 14.9465 13.4336 14.9378C13.4924 14.9166 13.5236 14.8604 13.5786 14.8329C13.6124 14.8166 13.6411 14.7854 13.6724 14.7629C13.7261 14.7254 13.7773 14.6854 13.8286 14.6454C13.8573 14.6229 13.8823 14.5841 13.9111 14.5754C13.9736 14.5554 13.9923 14.4879 14.0511 14.4629C14.0712 14.4528 14.0893 14.4393 14.1048 14.4229C14.1498 14.3729 14.2048 14.3329 14.2548 14.2842C14.286 14.2517 14.3285 14.2367 14.3585 14.2017C14.3939 14.1586 14.4332 14.1188 14.476 14.083C14.5135 14.053 14.5485 14.018 14.581 13.983L14.7685 13.7968C14.8309 13.7368 14.8897 13.6755 14.9522 13.6168C14.9893 13.581 15.0228 13.5416 15.0522 13.4993C15.0843 13.455 15.1222 13.4151 15.1646 13.3806C15.1971 13.3543 15.2071 13.3143 15.2371 13.2868C15.2818 13.2504 15.3202 13.2069 15.3509 13.1581C15.3846 13.1006 15.4421 13.0644 15.4734 13.0056C15.4959 12.9631 15.5396 12.9356 15.5658 12.8931C15.5921 12.8481 15.6283 12.8081 15.6621 12.7681C15.6996 12.7232 15.7421 12.6757 15.7671 12.6257C15.7933 12.5719 15.8408 12.5382 15.8671 12.4844C15.8944 12.4351 15.9267 12.3886 15.9633 12.3457C15.9883 12.3145 16.0033 12.2795 16.0245 12.247C16.057 12.197 16.092 12.1482 16.127 12.0995C16.1408 12.0782 16.1433 12.0557 16.162 12.0345C16.1958 11.9995 16.2333 11.957 16.2245 11.8995" fill="#3370FF"/>
<path d="M18.7249 7.6415C18.7174 7.63275 18.7099 7.63275 18.6999 7.63025C18.6724 7.6215 18.6411 7.61526 18.6161 7.60026C18.5887 7.58077 18.5594 7.56403 18.5286 7.55026C18.4824 7.53152 18.4287 7.52527 18.3899 7.49777C18.3362 7.45653 18.2687 7.45778 18.2112 7.42778C18.1705 7.4057 18.1267 7.3901 18.0812 7.38154C18.0462 7.37529 18.01 7.35904 17.9762 7.34904C17.93 7.33404 17.8812 7.3178 17.8337 7.3053C17.7592 7.28708 17.6854 7.26582 17.6125 7.24156C17.5624 7.22204 17.5088 7.2131 17.455 7.21531C17.4425 7.16407 17.4013 7.19406 17.3726 7.18781C17.3351 7.18781 17.3001 7.16907 17.2651 7.16282C17.1513 7.14282 17.0351 7.13907 16.9201 7.11282C16.8289 7.09283 16.7301 7.10408 16.6352 7.09033C16.5789 7.08283 16.5227 7.08783 16.4652 7.08658C16.4652 7.06408 16.4539 7.05908 16.4339 7.05908H15.8853C15.8653 7.05908 15.854 7.06533 15.854 7.08658C15.714 7.07908 15.5766 7.11032 15.4366 7.10908H15.3541C15.3341 7.10783 15.3253 7.11657 15.3241 7.13532C15.2441 7.12782 15.1691 7.16282 15.0891 7.15782C15.0843 7.15771 15.0795 7.15901 15.0754 7.16157C15.0141 7.20406 14.9391 7.18906 14.8729 7.21156C14.8204 7.22906 14.7567 7.22656 14.7067 7.24531C14.6667 7.25905 14.6217 7.2703 14.5817 7.28655C14.5326 7.30838 14.4792 7.31906 14.4255 7.3178C14.4267 7.3278 14.4292 7.34029 14.4155 7.34154C14.3842 7.34404 14.3555 7.36029 14.328 7.36654C14.2455 7.38779 14.168 7.41903 14.088 7.44653C14.018 7.47153 13.953 7.50902 13.8843 7.52527C13.8055 7.54402 13.7506 7.60651 13.6681 7.61651C13.6425 7.61809 13.6178 7.62674 13.5968 7.6415C13.5743 7.66125 13.5485 7.67691 13.5206 7.68775C13.4763 7.70241 13.4343 7.72301 13.3956 7.74899C13.3381 7.78648 13.2756 7.81148 13.2206 7.84897C13.1994 7.86397 13.1644 7.85772 13.1544 7.87397C13.1144 7.94396 13.0319 7.94521 12.9757 7.98895C12.9157 8.0352 12.8444 8.07019 12.7844 8.11519C12.7344 8.15268 12.6819 8.18768 12.6345 8.22767C12.572 8.28141 12.5045 8.33016 12.4382 8.37765C12.4032 8.40265 12.382 8.44889 12.3457 8.46014C12.2883 8.48014 12.2583 8.52763 12.2208 8.56263C12.1833 8.60012 12.1408 8.63886 12.1033 8.67886C12.0458 8.7376 11.9845 8.79259 11.9246 8.85009C11.8796 8.89258 11.8408 8.94632 11.7908 8.97882C11.7158 9.02881 11.6608 9.09505 11.5983 9.15379C11.5359 9.21254 11.4734 9.27378 11.4134 9.33502C11.3434 9.40626 11.2659 9.47 11.1997 9.54374C11.1422 9.60873 11.0759 9.66497 11.0147 9.72496C10.9522 9.78621 10.8934 9.8512 10.8272 9.90994C10.7629 9.96892 10.7012 10.0306 10.6422 10.0949C10.5947 10.1449 10.5447 10.1937 10.4948 10.2411C10.4448 10.2886 10.4023 10.3449 10.3398 10.3786C10.3335 10.4086 10.3085 10.4211 10.286 10.4361C10.221 10.4774 10.1698 10.5336 10.1136 10.5861C10.0761 10.6198 10.0461 10.6648 10.0036 10.6886C9.93358 10.7261 9.88358 10.7886 9.82109 10.8336C9.7461 10.8886 9.66861 10.9448 9.60237 11.011C9.56988 11.0423 9.51988 11.0473 9.49864 11.0885C9.48114 11.1235 9.43615 11.116 9.4149 11.1435C9.37116 11.2023 9.29991 11.226 9.24742 11.2735C9.21618 11.3022 9.17243 11.326 9.13494 11.3485C9.11119 11.361 9.08494 11.3697 9.06495 11.3885C9.01596 11.4324 8.96182 11.4701 8.90372 11.501C8.87872 11.516 8.84498 11.526 8.82623 11.5472C8.79123 11.5847 8.74249 11.6022 8.7025 11.6347C8.66273 11.668 8.61804 11.695 8.57002 11.7147C8.50752 11.7384 8.46003 11.7822 8.40254 11.8109C8.32505 11.8484 8.25256 11.8947 8.17632 11.9322C8.15632 11.9422 8.12258 11.9484 8.11133 11.9759C8.11133 11.9934 8.11883 11.9984 8.13383 12.0072C8.16757 12.0271 8.20507 12.0321 8.23881 12.0459C8.2938 12.0709 8.3463 12.1021 8.40129 12.1246C8.45378 12.1459 8.49753 12.1821 8.56002 12.1871C8.58841 12.1923 8.61479 12.2053 8.63626 12.2246C8.67375 12.2571 8.72124 12.2696 8.76124 12.2846C8.79623 12.2971 8.82998 12.3196 8.86997 12.3271C8.89497 12.3321 8.92872 12.3309 8.94871 12.3459C8.98371 12.3734 9.0237 12.3883 9.0612 12.4108C9.08619 12.4258 9.11994 12.4058 9.13494 12.4283C9.15618 12.4596 9.19493 12.4646 9.21868 12.4733C9.28992 12.4983 9.35616 12.5271 9.42615 12.5558C9.48614 12.5808 9.54738 12.5983 9.60612 12.6308C9.65487 12.6571 9.71986 12.6583 9.7761 12.6821C9.79735 12.6921 9.80859 12.7121 9.83234 12.7146C9.88646 12.7179 9.93907 12.7338 9.98607 12.7608C10.0011 12.7708 10.0173 12.7883 10.0361 12.792C10.0911 12.8033 10.1448 12.817 10.1985 12.8395C10.2485 12.8595 10.301 12.882 10.3535 12.8895C10.3823 12.8933 10.3885 12.922 10.416 12.922C10.4648 12.922 10.5035 12.9533 10.5497 12.9633C10.6122 12.9783 10.6735 13.0008 10.7347 13.0195C10.7485 13.0233 10.7722 13.017 10.7785 13.0245C10.816 13.0745 10.8784 13.0495 10.9284 13.0745C10.9822 13.102 11.0534 13.1145 11.1159 13.1357C11.1722 13.1557 11.2284 13.177 11.2884 13.1795C11.2984 13.1795 11.3071 13.182 11.3159 13.1882C11.3559 13.2132 11.4021 13.227 11.4484 13.2382C11.4703 13.2427 11.4924 13.2465 11.5146 13.2495C11.5546 13.2557 11.5871 13.2832 11.6258 13.2857C11.6833 13.2882 11.7321 13.3232 11.7921 13.3257C11.8146 13.327 11.8521 13.3232 11.8708 13.342C11.9096 13.3807 11.9645 13.3782 12.0083 13.3895C12.1033 13.4145 12.2045 13.4082 12.302 13.4407C12.3582 13.4607 12.422 13.4532 12.4845 13.4682C12.5845 13.4907 12.6932 13.4832 12.7994 13.4894C12.9957 13.5019 13.1931 13.4969 13.3881 13.4744C13.4381 13.4682 13.4843 13.4657 13.5331 13.4532C13.6027 13.4353 13.6738 13.4236 13.7456 13.4182C13.8068 13.4132 13.863 13.387 13.9255 13.3932C13.93 13.3932 13.9343 13.3919 13.938 13.3895C13.9918 13.3557 14.0543 13.3557 14.1105 13.337C14.1505 13.3245 14.198 13.3257 14.2317 13.3057C14.2668 13.2845 14.3053 13.2697 14.3455 13.262C14.408 13.252 14.4517 13.1995 14.5154 13.2045C14.5179 13.2045 14.5204 13.2007 14.5229 13.1995C14.5654 13.167 14.6179 13.1495 14.6654 13.1332C14.7171 13.1155 14.7676 13.0947 14.8167 13.0708C14.8816 13.0383 14.9441 12.9958 15.0079 12.9583C15.0266 12.947 15.0541 12.9633 15.0679 12.9333C15.0779 12.9083 15.1016 12.8958 15.1304 12.8895C15.1629 12.8808 15.2004 12.8683 15.2141 12.8308C15.2204 12.8145 15.2328 12.8133 15.2453 12.8145C15.2539 12.8148 15.2624 12.8127 15.2699 12.8085C15.2773 12.8043 15.2836 12.7982 15.2878 12.7908C15.3278 12.7308 15.3966 12.7033 15.4516 12.6633C15.5091 12.6233 15.5541 12.5696 15.614 12.5333C15.6853 12.4921 15.7365 12.4258 15.794 12.3684C15.8428 12.3184 15.889 12.2671 15.9403 12.2221C15.9802 12.1871 15.999 12.1396 16.039 12.1046C16.0665 12.0796 16.1102 12.0546 16.1215 12.0171C16.139 11.9584 16.1865 11.9347 16.2265 11.8984C16.2408 11.868 16.2617 11.8411 16.2877 11.8197L16.3027 11.7959C16.3239 11.7834 16.3127 11.7522 16.3352 11.7384C16.3752 11.7122 16.3902 11.6634 16.4077 11.626C16.4352 11.5685 16.4689 11.5122 16.5014 11.4585C16.5364 11.3997 16.5577 11.3347 16.6014 11.2798C16.6339 11.2373 16.6552 11.181 16.6789 11.131C16.7214 11.0435 16.7651 10.9573 16.8114 10.8723C16.8389 10.8223 16.8651 10.7698 16.8889 10.7173C16.9126 10.6623 16.9439 10.6111 16.9689 10.5586C16.9939 10.5036 17.0289 10.4536 17.0488 10.3999C17.0738 10.3336 17.1113 10.2774 17.1401 10.2136C17.1488 10.1912 17.1463 10.1637 17.1626 10.1474C17.1947 10.1123 17.2186 10.0705 17.2326 10.0249C17.2576 9.95868 17.3138 9.90744 17.3201 9.8337L17.3251 9.8312C17.3501 9.81245 17.3588 9.78121 17.3726 9.75496C17.3951 9.71372 17.405 9.66497 17.4325 9.62748C17.475 9.56749 17.5 9.5 17.5325 9.43625C17.5538 9.39626 17.57 9.35127 17.5925 9.31502C17.63 9.25628 17.655 9.19004 17.69 9.1313C17.715 9.08968 17.736 9.04573 17.7525 9.00006C17.7638 8.97007 17.785 8.94007 17.8037 8.91258C17.8375 8.86008 17.8612 8.80009 17.905 8.75385C17.9237 8.73385 17.9225 8.70636 17.945 8.68386C17.9825 8.64636 18.0025 8.59637 18.0325 8.55263C18.055 8.52013 18.07 8.48014 18.0962 8.45514C18.1462 8.40765 18.1837 8.3489 18.2174 8.29516C18.2512 8.24142 18.2949 8.19268 18.3337 8.14643C18.3974 8.06894 18.4662 7.9927 18.5361 7.91771C18.5996 7.85032 18.6629 7.78283 18.7261 7.71524C18.7636 7.6765 18.7536 7.66775 18.7261 7.64025" fill="#133C9A"/>
</svg>
