<svg width="14" height="14" viewBox="0 0 14 14" fill="none" xmlns="http://www.w3.org/2000/svg">
<path d="M1.58467 8.17391C1.1167 9.32621 1.03602 10.4136 1.40716 10.6084C1.66535 10.7544 2.08489 10.4298 2.47218 9.84557C2.6174 10.4948 3.00468 11.0628 3.53718 11.5335C2.9724 11.7445 2.60126 12.1015 2.60126 12.491C2.60126 13.1402 3.60172 13.6758 4.82812 13.6758C5.94153 13.6758 6.86132 13.2538 7.03881 12.6858H7.29701C7.47449 13.2538 8.39429 13.6758 9.5077 13.6758C10.7502 13.6758 11.7346 13.1564 11.7346 12.491C11.7346 12.1015 11.3634 11.7444 10.7986 11.5335C11.3311 11.0628 11.7184 10.4948 11.8637 9.84557C12.2509 10.4298 12.6543 10.7544 12.9287 10.6084C13.3159 10.4136 13.2353 9.30999 12.7512 8.17391C12.38 7.28128 11.8798 6.61585 11.4925 6.46979C11.4925 6.4211 11.5087 6.35617 11.5087 6.29126C11.5087 5.95044 11.4118 5.62585 11.2505 5.36617V5.30125C11.2505 5.13896 11.2182 4.99289 11.1536 4.86305C11.0568 2.52597 9.57225 0.675781 7.16792 0.675781C4.76357 0.675781 3.279 2.52597 3.18218 4.86305C3.11764 4.99289 3.08536 5.13896 3.08536 5.30125V5.36617C2.924 5.62585 2.82717 5.95044 2.82717 6.29127V6.46979C2.47217 6.61585 1.9558 7.26504 1.58467 8.17391Z" fill="#4CAFE9"/>
</svg>
