<svg width="14" height="14" viewBox="0 0 14 14" fill="none" xmlns="http://www.w3.org/2000/svg">
<g clip-path="url(#clip0_307_3318)">
<path d="M13.4085 9.48983C13.1194 7.81096 11.9067 6.71102 11.9067 6.71102C12.0796 5.18691 11.4447 4.91637 11.4447 4.91637C11.3111 0.200638 7.25871 0.282746 7.17319 0.285016C7.08768 0.282746 3.03449 0.200638 2.90168 4.91637C2.90168 4.91637 2.26638 5.18691 2.4393 6.71102C2.4393 6.71102 1.2266 7.81096 0.937896 9.48983C0.937896 9.48983 0.783518 12.3265 2.32427 9.83718C2.32427 9.83718 2.67087 10.7827 3.30579 11.6318C3.30579 11.6318 2.1699 12.0182 2.26676 13.0212C2.26676 13.0212 2.22741 14.1401 4.69217 14.0633C4.69217 14.0633 6.42438 13.9286 6.94465 13.1949H7.17168H7.17546H7.40287C7.92276 13.9282 9.65498 14.0633 9.65498 14.0633C12.119 14.1401 12.0804 13.0212 12.0804 13.0212C12.1765 12.0182 11.0414 11.6318 11.0414 11.6318C11.6763 10.7827 12.0229 9.83718 12.0229 9.83718C13.5621 12.3265 13.4085 9.48983 13.4085 9.48983Z" fill="currentColor"/>
</g>
<defs>
<clipPath id="clip0_307_3318">
<rect width="14" height="14" fill="white"/>
</clipPath>
</defs>
</svg>
