<svg width="20" height="20" viewBox="0 0 20 20" fill="none" xmlns="http://www.w3.org/2000/svg">
<path d="M12.4763 7.76455C12.6355 7.76455 12.7947 7.77926 12.9531 7.79316C12.527 5.81562 10.3893 4.33813 7.95425 4.33813C5.23124 4.34769 3 6.18808 3 8.525C3 9.87226 3.74377 10.9834 4.97924 11.8437L4.48056 13.3195L6.21473 12.4601C6.83602 12.5816 7.33475 12.7032 7.94813 12.7032C8.10737 12.7032 8.25879 12.6962 8.41012 12.6823C8.31177 12.3467 8.26083 11.999 8.25877 11.6493C8.26579 9.50682 10.1225 7.76542 12.4771 7.76542L12.4763 7.76455H12.4763ZM9.81101 6.43287C10.1872 6.43287 10.4322 6.67592 10.4322 7.04919C10.4322 7.41381 10.1872 7.66557 9.81101 7.66557C9.4426 7.66557 9.06723 7.42164 9.06723 7.04917C9.06723 6.67592 9.4426 6.43287 9.81101 6.43287ZM6.34335 7.66557C5.97589 7.66557 5.59966 7.42164 5.59966 7.04917C5.59966 6.67592 5.97589 6.43287 6.34335 6.43287C6.71177 6.43287 6.96464 6.67592 6.96464 7.04919C6.96464 7.41381 6.71965 7.66557 6.34335 7.66557ZM17 11.5981C17 9.63443 15.0208 8.02932 12.7877 8.02932C10.4331 8.02932 8.57635 9.63443 8.57635 11.5981C8.57635 13.5687 10.4331 15.1677 12.7877 15.1677C13.2795 15.1677 13.7782 15.0462 14.2761 14.9238L15.6341 15.6616L15.2587 14.4359C16.2562 13.6841 17 12.7014 17 11.5981ZM11.4227 10.9817C11.1777 10.9817 10.924 10.7386 10.924 10.4869C10.924 10.2438 11.1777 9.9921 11.4227 9.9921C11.799 9.9921 12.044 10.236 12.044 10.4869C12.044 10.7386 11.799 10.9817 11.4227 10.9817ZM14.1466 10.9817C13.9008 10.9817 13.6548 10.7386 13.6548 10.4869C13.6548 10.2438 13.8999 9.9921 14.1466 9.9921C14.522 9.9921 14.7678 10.236 14.7678 10.4869C14.7678 10.7386 14.522 10.9817 14.1466 10.9817Z" fill="#09BB07"/>
</svg>
