<svg width="14" height="14" viewBox="0 0 14 14" fill="none" xmlns="http://www.w3.org/2000/svg">
<path d="M9.47625 4.74798C9.63725 4.74798 9.79562 4.76023 9.95487 4.77773C9.52612 2.78098 7.392 1.29785 4.95512 1.29785C2.23125 1.29785 0 3.15373 0 5.51185C0 6.87248 0.742 7.98985 1.98275 8.85785L1.4875 10.348L3.22 9.47998C3.8395 9.6016 4.3365 9.7276 4.95512 9.7276C5.11088 9.7276 5.26487 9.7206 5.41712 9.70923C5.32088 9.3776 5.264 9.0311 5.264 8.66973C5.26487 6.50498 7.12337 4.74798 9.47625 4.74798ZM6.81275 3.40485C7.18725 3.40485 7.43313 3.65073 7.43313 4.02348C7.43313 4.39448 7.18725 4.64298 6.81275 4.64298C6.44262 4.64298 6.06987 4.39448 6.06987 4.02348C6.06987 3.64985 6.44175 3.40485 6.81275 3.40485ZM3.34512 4.64298C2.97325 4.64298 2.59875 4.39448 2.59875 4.02348C2.59875 3.65073 2.97325 3.40485 3.34512 3.40485C3.717 3.40485 3.96375 3.64985 3.96375 4.02348C3.96375 4.39448 3.717 4.64298 3.34512 4.64298ZM14 8.61023C14 6.62923 12.0173 5.01485 9.79037 5.01485C7.43225 5.01485 5.57638 6.6301 5.57638 8.61023C5.57638 10.5965 7.43313 12.2056 9.79037 12.2056C10.2839 12.2056 10.7817 12.0822 11.277 11.958L12.6359 12.7035L12.2631 11.4645C13.258 10.7172 14 9.7276 14 8.61023ZM8.42362 7.98985C8.17775 7.98985 7.92837 7.74485 7.92837 7.4946C7.92837 7.24785 8.17775 6.99935 8.42362 6.99935C8.79988 6.99935 9.044 7.24785 9.044 7.4946C9.044 7.74485 8.79988 7.98985 8.42362 7.98985ZM11.1493 7.98985C10.9051 7.98985 10.6566 7.74485 10.6566 7.4946C10.6566 7.24785 10.9043 6.99935 11.1493 6.99935C11.522 6.99935 11.7696 7.24785 11.7696 7.4946C11.7696 7.74485 11.522 7.98985 11.1493 7.98985Z" fill="currentColor"/>
</svg>
