<svg width="16" height="16" viewBox="0 0 16 16" fill="none" xmlns="http://www.w3.org/2000/svg">
<path d="M15.1033 11.884C14.8044 11.9436 14.5194 12.059 14.2633 12.224C14.0122 12.4875 13.6952 12.679 13.3452 12.7787C13.3919 12.4654 13.5472 12.1794 13.7819 11.968C13.9784 11.6681 14.12 11.3355 14.1999 10.986C14.1995 10.808 14.2519 10.634 14.3504 10.4858C14.4489 10.3376 14.5892 10.2219 14.7534 10.1534C14.9176 10.0848 15.0985 10.0665 15.2731 10.1008C15.4477 10.135 15.6083 10.2202 15.7345 10.3457C15.8607 10.4712 15.9469 10.6312 15.9821 10.8056C16.0174 10.9801 16.0002 11.161 15.9326 11.3257C15.8651 11.4903 15.7502 11.6312 15.6026 11.7306C15.455 11.83 15.2812 11.8834 15.1033 11.884ZM13.4566 9.7286C13.158 9.53069 12.8266 9.38756 12.4779 9.30591C12.2999 9.30591 12.1258 9.25313 11.9778 9.15423C11.8298 9.05533 11.7145 8.91476 11.6463 8.75031C11.5782 8.58584 11.5604 8.40488 11.5951 8.23029C11.6298 8.0557 11.7156 7.89533 11.8414 7.76946C11.9673 7.64358 12.1277 7.55786 12.3023 7.52314C12.4769 7.48841 12.6578 7.50623 12.8223 7.57435C12.9868 7.64247 13.1273 7.75783 13.2262 7.90584C13.3251 8.05385 13.3779 8.22787 13.3779 8.40588C13.4366 8.70522 13.5505 8.99101 13.7139 9.24858C13.9757 9.50166 14.1653 9.81993 14.2633 10.1706C13.9521 10.121 13.6679 9.96472 13.4592 9.72861H13.4559L13.4566 9.7286ZM11.9738 6.55647C11.7025 4.28371 9.34907 2.50297 6.50163 2.50297C3.46815 2.50297 1.00005 4.52172 1.00005 7.00449C1.02398 7.69107 1.2156 8.36135 1.5582 8.95683C1.90079 9.5523 2.38394 10.0549 2.96547 10.4206C3.15703 10.5618 3.35745 10.6905 3.5655 10.806L3.3215 11.78C3.40949 11.8214 3.49483 11.8654 3.58483 11.9034L4.81689 11.2873C4.99688 11.334 5.18624 11.364 5.37423 11.396C5.49424 11.4173 5.61425 11.4393 5.73759 11.454C6.50592 11.5509 7.28549 11.5061 8.03769 11.322C8.06097 11.6553 8.12179 11.985 8.21902 12.3047C7.65604 12.4367 7.07985 12.504 6.50161 12.5054C5.98286 12.5025 5.46583 12.4455 4.95889 12.3354L2.72343 13.4514C2.63836 13.495 2.54248 13.5128 2.44744 13.5029C2.3524 13.4929 2.2623 13.4556 2.18807 13.3954C2.11351 13.3357 2.05762 13.2559 2.02702 13.1654C1.99642 13.0749 1.99239 12.9775 2.0154 12.8848L2.41541 11.274C1.69358 10.815 1.09572 10.1854 0.674504 9.4409C0.25329 8.69636 0.021653 7.85965 0 7.00449C0 3.9657 2.91078 1.50293 6.50161 1.50293C9.91107 1.50293 12.7032 3.72569 12.9752 6.55114C12.8186 6.52704 12.6608 6.51146 12.5025 6.50448C12.3259 6.51115 12.1492 6.5278 11.9738 6.55581L11.9738 6.55647ZM9.89709 10.1053C10.1964 10.0453 10.4811 9.93061 10.7371 9.76528C10.9885 9.50219 11.3057 9.31113 11.6558 9.21192C11.6081 9.52419 11.4535 9.81025 11.2185 10.0213C11.0218 10.3213 10.8805 10.6546 10.8005 11.004C10.8007 11.1819 10.7483 11.3559 10.6497 11.504C10.5511 11.6521 10.4108 11.7677 10.2466 11.8361C10.0823 11.9046 9.90148 11.9228 9.72689 11.8885C9.55231 11.8541 9.39181 11.7689 9.26567 11.6434C9.13953 11.5179 9.05342 11.3578 9.0182 11.1834C8.98299 11.009 9.00026 10.8281 9.06783 10.6635C9.1354 10.4989 9.25023 10.358 9.39783 10.2587C9.54543 10.1593 9.71916 10.1059 9.89709 10.1053ZM11.5185 12.2707C11.8158 12.47 12.1465 12.6141 12.4945 12.6974C12.6725 12.6974 12.8466 12.7502 12.9946 12.8491C13.1426 12.948 13.2579 13.0885 13.3261 13.253C13.3942 13.4175 13.412 13.5984 13.3773 13.773C13.3425 13.9476 13.2568 14.108 13.131 14.2338C13.0051 14.3597 12.8447 14.4454 12.6701 14.4802C12.4955 14.5149 12.3146 14.4971 12.1501 14.4289C11.9856 14.3608 11.8451 14.2455 11.7462 14.0975C11.6473 13.9494 11.5945 13.7754 11.5945 13.5974C11.5371 13.2977 11.4241 13.0114 11.2611 12.7534C11.0003 12.4992 10.8121 12.1799 10.7158 11.8287C11.0272 11.8799 11.3111 12.0381 11.5185 12.276V12.2707Z" fill="currentColor"/>
</svg>
