<svg width="20" height="20" viewBox="0 0 20 20" fill="none" xmlns="http://www.w3.org/2000/svg">
<path d="M13.2286 14.8628C13.1992 14.892 13.1765 14.9273 13.1621 14.9662C13.1478 15.0051 13.1421 15.0466 13.1455 15.0879C13.1489 15.1292 13.1613 15.1693 13.1818 15.2053C13.2023 15.2414 13.2304 15.2725 13.2642 15.2965C13.8823 15.8743 14.2803 16.6491 14.39 17.4881C14.4733 17.7924 14.6741 18.0512 14.9481 18.2075C15.2221 18.3639 15.547 18.4051 15.8514 18.3221C16.1189 18.2492 16.3525 18.0852 16.5118 17.8582C16.6711 17.6313 16.746 17.3558 16.7235 17.0795C16.7011 16.8032 16.5827 16.5434 16.3889 16.3451C16.1951 16.1469 15.9381 16.0226 15.6623 15.9939C14.8801 15.848 14.1669 15.4508 13.6311 14.8625C13.5776 14.8094 13.5053 14.7795 13.4299 14.7795C13.3544 14.7795 13.2821 14.8094 13.2286 14.8625V14.8628Z" fill="#FB6500"/>
<path d="M17.9837 13.0384C17.7914 13.2305 17.671 13.483 17.6429 13.7534C17.4988 14.5347 17.1035 15.2475 16.517 15.7835C16.4627 15.8357 16.4313 15.9074 16.4297 15.9827C16.4282 16.0581 16.4566 16.131 16.5087 16.1854C16.5381 16.2162 16.5741 16.24 16.614 16.2549C16.6539 16.2699 16.6966 16.2757 16.739 16.2719C16.7815 16.2681 16.8225 16.2549 16.8591 16.233C16.8957 16.2112 16.9269 16.1815 16.9504 16.146C17.5271 15.529 18.3004 15.1319 19.1378 15.0226C19.438 14.937 19.6923 14.7367 19.8459 14.4649C19.9994 14.1932 20.0398 13.872 19.9584 13.5707C19.8769 13.2694 19.6801 13.0123 19.4105 12.855C19.141 12.6977 18.8203 12.6528 18.5179 12.7301C18.317 12.7846 18.134 12.891 17.9873 13.0387H17.9837V13.0384Z" fill="#0082EF"/>
<path d="M14.6852 9.75074C14.5268 9.90942 14.4165 10.1097 14.3671 10.3284C14.3177 10.5471 14.3312 10.7754 14.406 10.9867C14.4809 11.1981 14.614 11.384 14.79 11.5229C14.966 11.6618 15.1778 11.748 15.4008 11.7717C16.183 11.9162 16.8963 12.3121 17.4328 12.8995C17.4605 12.9284 17.494 12.9512 17.531 12.9664C17.5681 12.9815 17.608 12.9886 17.648 12.9873C17.688 12.986 17.7273 12.9763 17.7634 12.9587C17.7994 12.9412 17.8313 12.9162 17.857 12.8855C17.8827 12.8548 17.9016 12.819 17.9125 12.7804C17.9234 12.7419 17.9261 12.7015 17.9203 12.6618C17.9146 12.6222 17.9005 12.5842 17.879 12.5504C17.8576 12.5166 17.8292 12.4877 17.7959 12.4655C17.1782 11.8873 16.7807 11.1125 16.6711 10.2736C16.6156 10.0735 16.5086 9.89136 16.3607 9.74545C16.2129 9.59954 16.0293 9.49492 15.8285 9.44202C15.6276 9.38912 15.4164 9.38979 15.2158 9.44396C15.0153 9.49812 14.8324 9.6039 14.6855 9.75074H14.6852Z" fill="#2DBC00"/>
<path d="M14.1642 11.5666L14.1431 11.588C13.5663 12.2256 12.7817 12.6373 11.9293 12.7497C11.6273 12.83 11.3696 13.0268 11.2126 13.2969C11.0555 13.567 11.0121 13.8883 11.0917 14.1905C11.1456 14.3962 11.2538 14.583 11.405 14.732C11.5148 14.842 11.6453 14.9293 11.789 14.9888C11.9327 15.0483 12.0867 15.0788 12.2422 15.0786C12.3977 15.0784 12.5516 15.0474 12.6951 14.9876C12.8386 14.9277 12.9689 14.8401 13.0784 14.7297C13.269 14.5379 13.3885 14.2868 13.417 14.0178C13.5617 13.2371 13.9572 12.5249 14.5434 11.9894C14.5993 11.9389 14.6329 11.8683 14.6368 11.793C14.6408 11.7178 14.6148 11.6441 14.5645 11.588C14.5397 11.5602 14.5096 11.5376 14.4761 11.5215C14.4425 11.5054 14.406 11.496 14.3688 11.4941C14.3316 11.4921 14.2944 11.4974 14.2593 11.5099C14.2242 11.5223 14.1919 11.5416 14.1642 11.5666Z" fill="#FFCC00"/>
<path d="M7.18055 1.69061C5.12987 1.91772 3.27071 2.79809 1.93556 4.17356C1.41474 4.70418 0.982361 5.31488 0.654887 5.98239C0.158304 6.98685 -0.062454 8.10522 0.0152087 9.22302C0.0928713 10.3408 0.466166 11.4179 1.09688 12.344C1.45965 12.8945 2.05537 13.5819 2.59966 14.0703L2.35309 16.0168L2.32585 16.0991C2.3189 16.1232 2.3189 16.1508 2.31556 16.1749L2.30861 16.2367L2.31556 16.2986C2.32236 16.3804 2.3452 16.46 2.38278 16.5328C2.42037 16.6057 2.47195 16.6705 2.53459 16.7234C2.59723 16.7763 2.66969 16.8164 2.74782 16.8413C2.82596 16.8662 2.90824 16.8754 2.98995 16.8685C3.08307 16.8602 3.17314 16.8313 3.25348 16.7834H3.26376L3.30157 16.7559L3.89034 16.4602L5.64664 15.5731C6.48115 15.8141 7.34607 15.9333 8.21465 15.9273C9.28863 15.9296 10.3547 15.7433 11.3642 15.3769C11.1178 15.2946 10.9067 15.131 10.7655 14.9129C10.6243 14.6949 10.5615 14.4353 10.5872 14.1768C9.543 14.5141 8.43875 14.6243 7.34845 14.5001L7.1736 14.4762C6.77998 14.4245 6.39087 14.3428 6.00968 14.2318C5.90683 14.1997 5.79849 14.1889 5.69132 14.2002C5.58415 14.2114 5.4804 14.2444 5.38644 14.2972L5.33863 14.3213L3.89367 15.1742L3.83224 15.212C3.79805 15.2326 3.78081 15.2395 3.76358 15.2395C3.73782 15.2377 3.71379 15.2259 3.69657 15.2066C3.67935 15.1874 3.67028 15.1622 3.67129 15.1364L3.72605 14.9129L3.7911 14.6685L3.89395 14.2663L4.01348 13.8193C4.05247 13.6977 4.05231 13.5669 4.01301 13.4453C3.97371 13.3238 3.89726 13.2176 3.79443 13.1419C3.2263 12.7181 2.73335 12.2019 2.33613 11.6149C1.83755 10.8858 1.54181 10.0373 1.47924 9.15626C1.41666 8.27523 1.5895 7.39341 1.98003 6.60119C2.24548 6.06947 2.592 5.58228 3.00718 5.15706C4.10244 4.02233 5.6433 3.30013 7.34818 3.11444C7.9375 3.04911 8.53238 3.04911 9.12171 3.11444C10.8166 3.31042 12.3502 4.0429 13.4391 5.17068C13.8524 5.59777 14.1956 6.08751 14.4559 6.62176C14.7951 7.31672 14.966 8.05254 14.966 8.8056C14.966 8.88454 14.9591 8.96377 14.9558 9.03938C15.174 8.90433 15.4316 8.84714 15.6865 8.87712C15.9414 8.90711 16.1786 9.0225 16.3596 9.2045L16.4107 9.26621C16.4987 8.1434 16.2836 7.01756 15.7878 6.0063C15.4635 5.34032 15.036 4.72982 14.521 4.19746C13.1219 2.78364 11.275 1.89993 9.29628 1.69756C8.59346 1.6172 7.88389 1.61487 7.18055 1.69061Z" fill="#0082EF"/>
</svg>
